<?xml version="1.0" encoding="UTF-8"?>
<!-- Generator: Adobe Illustrator 20.1.0, SVG Export Plug-In . SVG Version: 6.00 Build 0)  -->
<svg version="1.1" id="Layer_1" xmlns="http://www.w3.org/2000/svg" xmlns:xlink="http://www.w3.org/1999/xlink" x="0px" y="0px" viewBox="0 0 500 427.6" xml:space="preserve">
<g fill="currentColor">
	<rect x="254.8" y="137.6" width="18" height="62.3"/>
	
		<rect x="129.7" y="205.7" transform="matrix(0.7072 -0.707 0.707 0.7072 -128.0676 167.9198)" width="18" height="65.8"/>
	
		<rect x="356" y="229.6" transform="matrix(0.7071 -0.7071 0.7071 0.7071 -54.8009 344.838)" width="65.8" height="18"/>
	<g>
		<path d="M10.6,143.7c-5.9,0-10.6,4.7-10.6,10.6c0,5.8,4.7,10.6,10.6,10.6c2,0,3.9-0.6,5.5-1.6l35.7,34.2    c-0.6,1.2-0.9,2.4-0.9,3.8c0,4.9,4,8.8,8.8,8.8c4.9,0,8.8-3.9,8.8-8.8c0-2.7-1.2-5.1-3.1-6.7l16.7-40.1c1.1,0.3,2.3,0.4,3.5,0.4    c4.3,0,8.1-1.7,11-4.4l18.4,13.6c-0.3,1-0.5,2.1-0.5,3.1c0,5.8,4.7,10.6,10.6,10.6c5.8,0,10.6-4.7,10.6-10.6    c0-4.3-2.6-8.1-6.4-9.7l7.5-54.6c3.9-0.8,6.9-4.3,6.9-8.5c0-4.8-3.9-8.7-8.7-8.7c-2.8,0-5.2,1.3-6.8,3.3L89.7,75.3    c0-5-3.9-8.8-8.7-8.8c-4.3,0-7.9,3.1-8.6,7.2l-55.7,6.5c-1.4-3-4.4-5-7.9-5c-4.8,0-8.7,3.9-8.7,8.7c0,4.8,3.9,8.7,8.7,8.7    c1.2,0,2.4-0.3,3.5-0.7l16.9,19c-0.8,1.3-1.3,2.8-1.3,4.5c0,2,0.7,3.8,1.8,5.3L14,144.2C12.9,143.9,11.8,143.7,10.6,143.7z     M60.5,192.5c-2.1-0.2-3.6,0.3-4.9,1l-35.8-34.1c0.7-1.3,1.2-2.9,1.3-4.5l49.7-10.2c1.2,3.2,3.5,5.8,6.3,7.6L60.5,192.5z     M85.7,148.5c-5.3,0-9.6-4.3-9.6-9.6c0-5.3,4.3-9.6,9.6-9.6c5.3,0,9.6,4.3,9.6,9.6C95.3,144.2,91,148.5,85.7,148.5z M87.9,80.4    L126.3,94c-0.1,3.8,2.1,6.8,5.1,8.2l-7.4,54.4c-2.3,0.3-4.4,1.3-6,2.8L100,146c1.1-2.2,1.7-4.6,1.7-7.1c0-8.3-6.3-15.1-14.4-15.9    l-2.9-39.8C85.8,82.6,87,81.6,87.9,80.4z M16.4,88.2c0.5-0.8,0.8-1.7,1-2.6L73.3,79l-32.4,28.7c-1.3-0.7-2.7-1.2-4.3-1.2    c-1.2,0-2.3,0.2-3.3,0.7L16.4,88.2z M34.2,123.6c0.8,0.2,1.5,0.4,2.4,0.4c4.8,0,8.7-3.9,8.7-8.7c0-1.3-0.3-2.4-0.8-3.5L77.4,83    c0.5,0.2,1,0.4,1.5,0.5l2.9,39.9c-6.9,1.7-12.2,8.1-12.1,15.9L20,149.5c-0.4-0.8-0.9-1.6-1.5-2.3L34.2,123.6z"/>
	</g>
	<g>
		<path d="M499.7,138.6c0.2-1.4,0.3-2.7,0.3-4.1c0-1.4-0.1-2.8-0.3-4.2l-6.9-1.9c0,0,0,0,0,0c-0.5-1.9-1.3-3.8-2.3-5.5    l3.5-6.3c-1.7-2.2-3.6-4.2-5.9-5.9l-6.3,3.5c-1.7-1-3.5-1.7-5.5-2.3l-1.9-6.9c-1.4-0.2-2.7-0.3-4.2-0.3c-1.4,0-2.8,0.1-4.1,0.3    l-1.9,6.9c-1.9,0.5-3.8,1.3-5.5,2.3l-6.3-3.5c-2.2,1.7-4.2,3.6-5.9,5.9l3.5,6.3l0,0c-1,1.7-1.7,3.5-2.3,5.5c0,0,0,0,0,0l-6.9,1.9    c-0.2,1.4-0.3,2.7-0.3,4.2c0,1.4,0.1,2.8,0.3,4.1l6.9,1.9c0,0,0,0,0,0c0.5,1.9,1.3,3.8,2.3,5.5c0,0,0,0,0,0l-3.5,6.3    c1.7,2.2,3.6,4.2,5.9,5.9l6.3-3.5c1.7,1,3.5,1.7,5.5,2.3l1.9,6.9c1.4,0.2,2.7,0.3,4.1,0.3c1.4,0,2.8-0.1,4.2-0.3l1.9-6.9    c1.9-0.5,3.8-1.3,5.5-2.3v0l6.3,3.5c2.2-1.7,4.2-3.6,5.9-5.9l-3.5-6.3c0,0,0,0,0,0c1-1.7,1.8-3.6,2.3-5.5c0,0,0,0,0,0L499.7,138.6    z M470.4,145.4c-6.1,0-11-4.9-11-11c0-6.1,4.9-11,11-11c6.1,0,11,4.9,11,11C481.4,140.5,476.4,145.4,470.4,145.4z"/>
		<path d="M461.4,84.5h-36.6c-6.7,0-12.2,5.5-12.2,12.2v79.9c0,6.7,5.5,12.2,12.2,12.2h36.6c6.7,0,12.2-5.5,12.2-12.2    v-8.8c-1.1,0.1-2.2,0.2-3.3,0.2c-0.8,0-1.6,0-2.4-0.1v3.1h-49.8V97.8H468v3.1c0.8-0.1,1.6-0.1,2.4-0.1c1.1,0,2.2,0.1,3.3,0.2v-4.4    C473.6,90,468.1,84.5,461.4,84.5z M436,177.5h14.1c0.9,0,1.7,0.7,1.7,1.7c0,0.9-0.7,1.7-1.7,1.7H436c-0.9,0-1.7-0.8-1.7-1.7    C434.4,178.2,435.1,177.5,436,177.5z"/>
	</g>
	<g>
		<path d="M209.7,9.2c0-1.2,1-2.1,2.1-2.1h103.8c1.2,0,2.1,1,2.1,2.1v56.7h7V9.2c0-5-4.1-9.2-9.2-9.2H211.9    c-5,0-9.2,4.1-9.2,9.2v56.7h7V9.2z"/>
		<path d="M198.1,88.5h131.4c2.6,0,3.5-1.6,4.6-4.6l1.5-8.2c0-2.6-2.1-4.6-4.6-4.6H196.5c-2.6,0-4.6,2.1-4.6,4.6    l1.5,8.2C194.2,86.5,195.5,88.5,198.1,88.5z M205.9,76.3c2.1,0,3.7,1.7,3.7,3.7c0,2.1-1.7,3.7-3.7,3.7c-2.1,0-3.7-1.7-3.7-3.7    C202.1,78,203.8,76.3,205.9,76.3z"/>
		<path d="M277.2,36.1v-4c0-7.4-6-13.4-13.5-13.4s-13.4,6-13.4,13.4v4c-1.5,0.4-2.7,1.9-2.7,3.6c0,9,0,6.8,0,15.7    c0,1.8,1.4,3.4,3.2,3.7c10.3,1.3,15.6,1.3,26,0c1.8-0.2,3.2-1.9,3.2-3.7c0-9,0-6.8,0-15.7C279.9,38.1,278.8,36.6,277.2,36.1z     M266,49.7c0,1.2-1,2.2-2.2,2.2c-1.2,0-2.2-1-2.2-2.2v-3.2c0-1.2,1-2.2,2.2-2.2c1.2,0,2.2,1,2.2,2.2V49.7z M272,35.5    c-5.9-0.6-10.4-0.6-16.4,0v-3.3c0-4.5,3.7-8.2,8.2-8.2s8.2,3.7,8.2,8.2V35.5z"/>
	</g>
	<g>
		<path d="M320,350.4c-20-5.9-1.8-37.6-2.5-70.7c0-29.7-22.6-54.4-53.7-54.4c-30.8,0-53.7,24.7-53.7,54.4    c-0.8,33.1,14.9,65-2.8,70.7c-21,6.7-32.9,17.3-32.9,37.5l2.1,39.3h64.6l-8.7-54.6l-25.6,2l36.3-31.5c0.2-4.6,0-10.7-0.7-16.1    c-13.9-18.8-12.9-45.3-8.7-55.2c9.9,6.1,27.7,12.3,54.7,5.6c0,0-10.4-3.5-14.8-11.8c0,0,9.2-2.4,19.2,4.1    c4.9,11,6.6,38.1-7.9,57.7c-0.6,5.3-0.8,11.3-0.6,15.8l36.3,31.5l-25.6-2l-8.7,54.6H351l2.1-39.3    C353.1,367.8,339.2,356.1,320,350.4z"/>
		<path d="M263.7,405.4L241.2,375l3.3,19.9l15.6,20.9c0.9,1.2,2.2,1.9,3.7,1.9c0,0,0,0,0,0c1.5,0,2.8-0.7,3.7-1.9    l15.7-21.2l3.3-20L263.7,405.4z"/>
	</g>
</g>
</svg>