<?xml version="1.0" encoding="UTF-8" standalone="no"?>
<svg
   xmlns:dc="http://purl.org/dc/elements/1.1/"
   xmlns:cc="http://creativecommons.org/ns#"
   xmlns:rdf="http://www.w3.org/1999/02/22-rdf-syntax-ns#"
   xmlns:svg="http://www.w3.org/2000/svg"
   xmlns="http://www.w3.org/2000/svg"
   xmlns:sodipodi="http://sodipodi.sourceforge.net/DTD/sodipodi-0.dtd"
   xmlns:inkscape="http://www.inkscape.org/namespaces/inkscape"
   version="1.1"
   id="Layer_1"
   x="0px"
   y="0px"
   viewBox="0 0 500 427.6"
   xml:space="preserve"
   sodipodi:docname="advisor.svg"
   inkscape:version="1.0.1 (3bc2e813f5, 2020-09-07)"><metadata
   id="metadata39"><rdf:RDF><cc:Work
       rdf:about=""><dc:format>image/svg+xml</dc:format><dc:type
         rdf:resource="http://purl.org/dc/dcmitype/StillImage" /></cc:Work></rdf:RDF></metadata><defs
   id="defs37">
	
	
		
	
		
	
	
	
	
</defs><sodipodi:namedview
   pagecolor="#ffffff"
   bordercolor="#666666"
   borderopacity="1"
   objecttolerance="10"
   gridtolerance="10"
   guidetolerance="10"
   inkscape:pageopacity="0"
   inkscape:pageshadow="2"
   inkscape:window-width="1920"
   inkscape:window-height="1026"
   id="namedview35"
   showgrid="false"
   inkscape:zoom="1.7960711"
   inkscape:cx="250"
   inkscape:cy="213.8"
   inkscape:window-x="1680"
   inkscape:window-y="0"
   inkscape:window-maximized="1"
   inkscape:current-layer="Layer_1" />
<rect
   x="254.8"
   y="137.60001"
   width="18"
   height="62.299999"
   id="rect2"
   style="fill:#000000" /><rect
   x="-79.591957"
   y="233.90738"
   transform="rotate(-44.991897)"
   width="17.999828"
   height="65.79937"
   id="rect4"
   style="fill:#000000;stroke-width:0.99999" /><rect
   x="73.40921"
   y="434.685"
   transform="rotate(-45)"
   width="65.79937"
   height="17.999826"
   id="rect6"
   style="fill:#000000;stroke-width:0.99999" /><g
   id="g10"
   style="fill:#000000">
		<path
   d="m 10.6,143.7 c -5.9,0 -10.6,4.7 -10.6,10.6 0,5.8 4.7,10.6 10.6,10.6 2,0 3.9,-0.6 5.5,-1.6 l 35.7,34.2 c -0.6,1.2 -0.9,2.4 -0.9,3.8 0,4.9 4,8.8 8.8,8.8 4.9,0 8.8,-3.9 8.8,-8.8 0,-2.7 -1.2,-5.1 -3.1,-6.7 l 16.7,-40.1 c 1.1,0.3 2.3,0.4 3.5,0.4 4.3,0 8.1,-1.7 11,-4.4 l 18.4,13.6 c -0.3,1 -0.5,2.1 -0.5,3.1 0,5.8 4.7,10.6 10.6,10.6 5.8,0 10.6,-4.7 10.6,-10.6 0,-4.3 -2.6,-8.1 -6.4,-9.7 l 7.5,-54.6 c 3.9,-0.8 6.9,-4.3 6.9,-8.5 0,-4.8 -3.9,-8.7 -8.7,-8.7 -2.8,0 -5.2,1.3 -6.8,3.3 L 89.7,75.3 c 0,-5 -3.9,-8.8 -8.7,-8.8 -4.3,0 -7.9,3.1 -8.6,7.2 l -55.7,6.5 c -1.4,-3 -4.4,-5 -7.9,-5 -4.8,0 -8.7,3.9 -8.7,8.7 0,4.8 3.9,8.7 8.7,8.7 1.2,0 2.4,-0.3 3.5,-0.7 l 16.9,19 c -0.8,1.3 -1.3,2.8 -1.3,4.5 0,2 0.7,3.8 1.8,5.3 L 14,144.2 c -1.1,-0.3 -2.2,-0.5 -3.4,-0.5 z m 49.9,48.8 c -2.1,-0.2 -3.6,0.3 -4.9,1 L 19.8,159.4 c 0.7,-1.3 1.2,-2.9 1.3,-4.5 l 49.7,-10.2 c 1.2,3.2 3.5,5.8 6.3,7.6 z m 25.2,-44 c -5.3,0 -9.6,-4.3 -9.6,-9.6 0,-5.3 4.3,-9.6 9.6,-9.6 5.3,0 9.6,4.3 9.6,9.6 0,5.3 -4.3,9.6 -9.6,9.6 z M 87.9,80.4 126.3,94 c -0.1,3.8 2.1,6.8 5.1,8.2 l -7.4,54.4 c -2.3,0.3 -4.4,1.3 -6,2.8 L 100,146 c 1.1,-2.2 1.7,-4.6 1.7,-7.1 0,-8.3 -6.3,-15.1 -14.4,-15.9 L 84.4,83.2 c 1.4,-0.6 2.6,-1.6 3.5,-2.8 z m -71.5,7.8 c 0.5,-0.8 0.8,-1.7 1,-2.6 L 73.3,79 40.9,107.7 c -1.3,-0.7 -2.7,-1.2 -4.3,-1.2 -1.2,0 -2.3,0.2 -3.3,0.7 z m 17.8,35.4 c 0.8,0.2 1.5,0.4 2.4,0.4 4.8,0 8.7,-3.9 8.7,-8.7 0,-1.3 -0.3,-2.4 -0.8,-3.5 L 77.4,83 c 0.5,0.2 1,0.4 1.5,0.5 l 2.9,39.9 c -6.9,1.7 -12.2,8.1 -12.1,15.9 L 20,149.5 c -0.4,-0.8 -0.9,-1.6 -1.5,-2.3 z"
   id="path8" />
	</g><g
   id="g16"
   style="fill:#000000">
		<path
   d="m 499.7,138.6 c 0.2,-1.4 0.3,-2.7 0.3,-4.1 0,-1.4 -0.1,-2.8 -0.3,-4.2 l -6.9,-1.9 c 0,0 0,0 0,0 -0.5,-1.9 -1.3,-3.8 -2.3,-5.5 l 3.5,-6.3 c -1.7,-2.2 -3.6,-4.2 -5.9,-5.9 l -6.3,3.5 c -1.7,-1 -3.5,-1.7 -5.5,-2.3 l -1.9,-6.9 c -1.4,-0.2 -2.7,-0.3 -4.2,-0.3 -1.4,0 -2.8,0.1 -4.1,0.3 l -1.9,6.9 c -1.9,0.5 -3.8,1.3 -5.5,2.3 l -6.3,-3.5 c -2.2,1.7 -4.2,3.6 -5.9,5.9 l 3.5,6.3 v 0 c -1,1.7 -1.7,3.5 -2.3,5.5 0,0 0,0 0,0 l -6.9,1.9 c -0.2,1.4 -0.3,2.7 -0.3,4.2 0,1.4 0.1,2.8 0.3,4.1 l 6.9,1.9 c 0,0 0,0 0,0 0.5,1.9 1.3,3.8 2.3,5.5 0,0 0,0 0,0 l -3.5,6.3 c 1.7,2.2 3.6,4.2 5.9,5.9 l 6.3,-3.5 c 1.7,1 3.5,1.7 5.5,2.3 l 1.9,6.9 c 1.4,0.2 2.7,0.3 4.1,0.3 1.4,0 2.8,-0.1 4.2,-0.3 l 1.9,-6.9 c 1.9,-0.5 3.8,-1.3 5.5,-2.3 v 0 l 6.3,3.5 c 2.2,-1.7 4.2,-3.6 5.9,-5.9 l -3.5,-6.3 c 0,0 0,0 0,0 1,-1.7 1.8,-3.6 2.3,-5.5 0,0 0,0 0,0 z m -29.3,6.8 c -6.1,0 -11,-4.9 -11,-11 0,-6.1 4.9,-11 11,-11 6.1,0 11,4.9 11,11 0,6.1 -5,11 -11,11 z"
   id="path12" />
		<path
   d="m 461.4,84.5 h -36.6 c -6.7,0 -12.2,5.5 -12.2,12.2 v 79.9 c 0,6.7 5.5,12.2 12.2,12.2 h 36.6 c 6.7,0 12.2,-5.5 12.2,-12.2 v -8.8 c -1.1,0.1 -2.2,0.2 -3.3,0.2 -0.8,0 -1.6,0 -2.4,-0.1 V 171 H 418.1 V 97.8 H 468 v 3.1 c 0.8,-0.1 1.6,-0.1 2.4,-0.1 1.1,0 2.2,0.1 3.3,0.2 V 96.6 C 473.6,90 468.1,84.5 461.4,84.5 Z m -25.4,93 h 14.1 c 0.9,0 1.7,0.7 1.7,1.7 0,0.9 -0.7,1.7 -1.7,1.7 H 436 c -0.9,0 -1.7,-0.8 -1.7,-1.7 0.1,-1 0.8,-1.7 1.7,-1.7 z"
   id="path14" />
	</g><g
   id="g24"
   style="fill:#000000">
		<path
   d="m 209.7,9.2 c 0,-1.2 1,-2.1 2.1,-2.1 h 103.8 c 1.2,0 2.1,1 2.1,2.1 v 56.7 h 7 V 9.2 c 0,-5 -4.1,-9.2 -9.2,-9.2 H 211.9 c -5,0 -9.2,4.1 -9.2,9.2 v 56.7 h 7 z"
   id="path18" />
		<path
   d="m 198.1,88.5 h 131.4 c 2.6,0 3.5,-1.6 4.6,-4.6 l 1.5,-8.2 c 0,-2.6 -2.1,-4.6 -4.6,-4.6 H 196.5 c -2.6,0 -4.6,2.1 -4.6,4.6 l 1.5,8.2 c 0.8,2.6 2.1,4.6 4.7,4.6 z m 7.8,-12.2 c 2.1,0 3.7,1.7 3.7,3.7 0,2.1 -1.7,3.7 -3.7,3.7 -2.1,0 -3.7,-1.7 -3.7,-3.7 -0.1,-2 1.6,-3.7 3.7,-3.7 z"
   id="path20" />
		<path
   d="m 277.2,36.1 v -4 c 0,-7.4 -6,-13.4 -13.5,-13.4 -7.5,0 -13.4,6 -13.4,13.4 v 4 c -1.5,0.4 -2.7,1.9 -2.7,3.6 0,9 0,6.8 0,15.7 0,1.8 1.4,3.4 3.2,3.7 10.3,1.3 15.6,1.3 26,0 1.8,-0.2 3.2,-1.9 3.2,-3.7 0,-9 0,-6.8 0,-15.7 -0.1,-1.6 -1.2,-3.1 -2.8,-3.6 z M 266,49.7 c 0,1.2 -1,2.2 -2.2,2.2 -1.2,0 -2.2,-1 -2.2,-2.2 v -3.2 c 0,-1.2 1,-2.2 2.2,-2.2 1.2,0 2.2,1 2.2,2.2 z m 6,-14.2 c -5.9,-0.6 -10.4,-0.6 -16.4,0 v -3.3 c 0,-4.5 3.7,-8.2 8.2,-8.2 4.5,0 8.2,3.7 8.2,8.2 z"
   id="path22" />
	</g><g
   id="g30"
   style="fill:#0096c7;fill-opacity:1">
		<path
   d="m 320,350.4 c -20,-5.9 -1.8,-37.6 -2.5,-70.7 0,-29.7 -22.6,-54.4 -53.7,-54.4 -30.8,0 -53.7,24.7 -53.7,54.4 -0.8,33.1 14.9,65 -2.8,70.7 -21,6.7 -32.9,17.3 -32.9,37.5 l 2.1,39.3 h 64.6 l -8.7,-54.6 -25.6,2 36.3,-31.5 c 0.2,-4.6 0,-10.7 -0.7,-16.1 -13.9,-18.8 -12.9,-45.3 -8.7,-55.2 9.9,6.1 27.7,12.3 54.7,5.6 0,0 -10.4,-3.5 -14.8,-11.8 0,0 9.2,-2.4 19.2,4.1 4.9,11 6.6,38.1 -7.9,57.7 -0.6,5.3 -0.8,11.3 -0.6,15.8 l 36.3,31.5 -25.6,-2 -8.7,54.6 H 351 l 2.1,-39.3 c 0,-20.2 -13.9,-31.9 -33.1,-37.6 z"
   id="path26"
   style="fill:#0096c7;fill-opacity:1" />
		<path
   d="m 263.7,405.4 -22.5,-30.4 3.3,19.9 15.6,20.9 c 0.9,1.2 2.2,1.9 3.7,1.9 0,0 0,0 0,0 1.5,0 2.8,-0.7 3.7,-1.9 l 15.7,-21.2 3.3,-20 z"
   id="path28"
   style="fill:#0096c7;fill-opacity:1" />
	</g>
</svg>
