<?xml version="1.0" encoding="UTF-8" standalone="no"?>
<svg
   xmlns:dc="http://purl.org/dc/elements/1.1/"
   xmlns:cc="http://creativecommons.org/ns#"
   xmlns:rdf="http://www.w3.org/1999/02/22-rdf-syntax-ns#"
   xmlns:svg="http://www.w3.org/2000/svg"
   xmlns="http://www.w3.org/2000/svg"
   xmlns:sodipodi="http://sodipodi.sourceforge.net/DTD/sodipodi-0.dtd"
   xmlns:inkscape="http://www.inkscape.org/namespaces/inkscape"
   viewBox="0 0 31.750001 12.7"
   version="1.1"
   id="svg8"
   inkscape:version="1.0 (4035a4fb49, 2020-05-01)"
   sodipodi:docname="AgileoText2.svg">
  <defs
     id="defs2" />
  <sodipodi:namedview
     id="base"
     pagecolor="#ffffff"
     bordercolor="#666666"
     borderopacity="1.0"
     inkscape:pageopacity="1"
     inkscape:pageshadow="2"
     inkscape:zoom="34.583333"
     inkscape:cx="18.241943"
     inkscape:cy="14.955871"
     inkscape:document-units="px"
     inkscape:current-layer="text934"
     inkscape:document-rotation="0"
     showgrid="false"
     units="px"
     inkscape:snap-grids="false"
     inkscape:pagecheckerboard="false"
     inkscape:window-width="1920"
     inkscape:window-height="1026"
     inkscape:window-x="1680"
     inkscape:window-y="0"
     inkscape:window-maximized="1">
    <inkscape:grid
       type="xygrid"
       id="grid839" />
  </sodipodi:namedview>
  <metadata
     id="metadata5">
    <rdf:RDF>
      <cc:Work
         rdf:about="">
        <dc:format>image/svg+xml</dc:format>
        <dc:type
           rdf:resource="http://purl.org/dc/dcmitype/StillImage" />
        <dc:title></dc:title>
      </cc:Work>
    </rdf:RDF>
  </metadata>
  <g
     inkscape:label="Layer 1"
     inkscape:groupmode="layer"
     id="layer1">
    <path
       style="fill:#00b4d8;fill-opacity:1;stroke:none;stroke-width:0.0127397;stroke-linecap:round;stroke-linejoin:bevel;stroke-miterlimit:4;stroke-dasharray:none;stroke-opacity:1;paint-order:markers fill stroke"
       d="M 4.599326,0.06044823 C 4.609955,0.0709608 7.9859878,10.106166 7.9876535,10.1322 7.9884447,10.14458 7.237725,10.406737 6.3193854,10.714768 L 4.6496769,11.274824 2.9624379,10.729616 C 2.034456,10.429752 1.2683592,10.178744 1.26,10.171821 1.2516472,10.164893 1.4789722,9.4574868 1.7651808,8.5997965 2.0513896,7.7421067 2.8045671,5.4683073 3.4389098,3.5469097 4.073252,1.6255121 4.5954392,0.05660418 4.599326,0.06044823 Z"
       id="path845" />
    <path
       style="fill:currentColor;fill-opacity:1;stroke:none;stroke-width:0.0127397;stroke-linecap:round;stroke-linejoin:bevel;stroke-miterlimit:4;stroke-dasharray:none;stroke-opacity:1;paint-order:markers fill stroke"
       d="m 6.5117537,10.853664 c 0.8415065,-0.281895 1.5359048,-0.507137 1.543107,-0.500536 0.0072,0.0066 0.1865377,0.531271 0.3985225,1.165935 l 0.385429,1.153933 -1.9304808,-0.635357 C 5.8465675,11.688192 4.9787268,11.394163 4.9797968,11.384242 c 0.00107,-0.0099 0.6904505,-0.248682 1.5319569,-0.530578 z"
       id="path847" />
    <path
       style="fill:currentColor;fill-opacity:1;stroke:none;stroke-width:0.0127397;stroke-linecap:round;stroke-linejoin:bevel;stroke-miterlimit:4;stroke-dasharray:none;stroke-opacity:1;paint-order:markers fill stroke"
       d="m 2.7400349,10.865123 c 0.8548762,0.279841 1.5484241,0.514764 1.5412177,0.52205 -0.02145,0.02169 -3.70076582,1.260309 -3.78042082,1.272659 -0.064521,0.01006 -0.028199,-0.126118 0.3058327,-1.14608 L 1.1857148,10.35632 Z"
       id="path849" />
  </g>
</svg>
