<?xml version="1.0" encoding="UTF-8" standalone="no"?>
<svg
   xmlns:dc="http://purl.org/dc/elements/1.1/"
   xmlns:cc="http://creativecommons.org/ns#"
   xmlns:rdf="http://www.w3.org/1999/02/22-rdf-syntax-ns#"
   xmlns:svg="http://www.w3.org/2000/svg"
   xmlns="http://www.w3.org/2000/svg"
   xmlns:sodipodi="http://sodipodi.sourceforge.net/DTD/sodipodi-0.dtd"
   xmlns:inkscape="http://www.inkscape.org/namespaces/inkscape"
   sodipodi:docname="Agileo.svg"
   inkscape:version="1.0 (4035a4fb49, 2020-05-01)"
   id="svg8"
   version="1.1"
   viewBox="0 0 12.7 12.7">
  <defs
     id="defs2" />
  <sodipodi:namedview
     inkscape:window-maximized="1"
     inkscape:window-y="0"
     inkscape:window-x="1680"
     inkscape:window-height="1026"
     inkscape:window-width="1920"
     inkscape:pagecheckerboard="true"
     inkscape:snap-grids="false"
     units="px"
     showgrid="false"
     inkscape:document-rotation="0"
     inkscape:current-layer="layer1"
     inkscape:document-units="px"
     inkscape:cy="17.817071"
     inkscape:cx="8.4257907"
     inkscape:zoom="12.227055"
     inkscape:pageshadow="2"
     inkscape:pageopacity="0.0"
     borderopacity="1.0"
     bordercolor="#666666"
     pagecolor="#ffffff"
     id="base">
    <inkscape:grid
       id="grid839"
       type="xygrid" />
  </sodipodi:namedview>
  <metadata
     id="metadata5">
    <rdf:RDF>
      <cc:Work
         rdf:about="">
        <dc:format>image/svg+xml</dc:format>
        <dc:type
           rdf:resource="http://purl.org/dc/dcmitype/StillImage" />
        <dc:title></dc:title>
      </cc:Work>
    </rdf:RDF>
  </metadata>
  <g
     id="layer1"
     inkscape:groupmode="layer"
     inkscape:label="Layer 1">
    <path
       id="path845"
       d="m 6.2642718,0.0366258 c 0.010629,0.01051257 3.3866618,10.0457172 3.3883275,10.0717512 7.912e-4,0.01238 -0.7499285,0.274537 -1.6682681,0.582568 L 6.3146227,11.251001 4.6273837,10.705793 C 3.6994018,10.405929 2.933305,10.154921 2.9249458,10.147998 2.916593,10.14107 3.143918,9.4336643 3.4301266,8.575974 3.7163354,7.7182842 4.4695129,5.4444848 5.1038556,3.5230872 5.7381978,1.6016896 6.260385,0.03278175 6.2642718,0.0366258 Z"
       style="fill:#00b4d8;fill-opacity:1;stroke:none;stroke-width:0.0127397;stroke-linecap:round;stroke-linejoin:bevel;stroke-miterlimit:4;stroke-dasharray:none;stroke-opacity:1;paint-order:markers fill stroke" />
    <path
       id="path847"
       d="m 8.1766995,10.829841 c 0.8415065,-0.281895 1.5359048,-0.507137 1.543107,-0.500536 0.0072,0.0066 0.1865377,0.531271 0.3985225,1.165935 l 0.385429,1.153933 -1.9304808,-0.635357 C 7.5115133,11.664369 6.6436726,11.37034 6.6447426,11.360419 c 0.00107,-0.0099 0.6904505,-0.248682 1.5319569,-0.530578 z"
       style="fill:currentColor;fill-opacity:1;stroke:none;stroke-width:0.0127397;stroke-linecap:round;stroke-linejoin:bevel;stroke-miterlimit:4;stroke-dasharray:none;stroke-opacity:1;paint-order:markers fill stroke" />
    <path
       id="path849"
       d="m 4.4049807,10.8413 c 0.8548762,0.279841 1.5484241,0.514764 1.5412177,0.52205 -0.02145,0.02169 -3.7007658,1.260309 -3.7804208,1.272659 -0.064521,0.01006 -0.028199,-0.126118 0.3058327,-1.14608 l 0.3790503,-1.157432 z"
       style="fill:currentColor;fill-opacity:1;stroke:none;stroke-width:0.0127397;stroke-linecap:round;stroke-linejoin:bevel;stroke-miterlimit:4;stroke-dasharray:none;stroke-opacity:1;paint-order:markers fill stroke" />
  </g>
</svg>
