<?xml version="1.0" encoding="UTF-8" standalone="no"?>
<svg
   xmlns:dc="http://purl.org/dc/elements/1.1/"
   xmlns:cc="http://creativecommons.org/ns#"
   xmlns:rdf="http://www.w3.org/1999/02/22-rdf-syntax-ns#"
   xmlns:svg="http://www.w3.org/2000/svg"
   xmlns="http://www.w3.org/2000/svg"
   xmlns:sodipodi="http://sodipodi.sourceforge.net/DTD/sodipodi-0.dtd"
   xmlns:inkscape="http://www.inkscape.org/namespaces/inkscape"
   sodipodi:docname="AiryText.svg"
   inkscape:version="1.0 (4035a4fb49, 2020-05-01)"
   id="svg8"
   version="1.1"
   viewBox="0 0 62 15">
  <defs
     id="defs2" />
  <sodipodi:namedview
     width="65in"
     inkscape:window-maximized="1"
     inkscape:window-y="0"
     inkscape:window-x="1680"
     inkscape:window-height="1026"
     inkscape:window-width="1920"
     inkscape:pagecheckerboard="false"
     inkscape:snap-grids="false"
     units="px"
     showgrid="false"
     inkscape:document-rotation="0"
     inkscape:current-layer="layer1"
     inkscape:document-units="px"
     inkscape:cy="-11.164408"
     inkscape:cx="50.295263"
     inkscape:zoom="8.6458333"
     inkscape:pageshadow="2"
     inkscape:pageopacity="1"
     borderopacity="1.0"
     bordercolor="#666666"
     pagecolor="#ffffff"
     id="base">
    <inkscape:grid
       id="grid839"
       type="xygrid" />
  </sodipodi:namedview>
  <metadata
     id="metadata5">
    <rdf:RDF>
      <cc:Work
         rdf:about="">
        <dc:format>image/svg+xml</dc:format>
        <dc:type
           rdf:resource="http://purl.org/dc/dcmitype/StillImage" />
        <dc:title></dc:title>
      </cc:Work>
    </rdf:RDF>
  </metadata>
  <g
     id="layer1"
     inkscape:groupmode="layer"
     inkscape:label="Layer 1">
    <g
       transform="translate(0,1.1332814)"
       id="g845">
      <path
         style="fill:#00b4d8;fill-opacity:1;stroke:none;stroke-width:0.0127397;stroke-linecap:round;stroke-linejoin:bevel;stroke-miterlimit:4;stroke-dasharray:none;stroke-opacity:1;paint-order:markers fill stroke"
         d="M 4.599326,0.06044823 C 4.609955,0.0709608 7.9859878,10.106166 7.9876535,10.1322 7.9884447,10.14458 7.237725,10.406737 6.3193854,10.714768 L 4.6496769,11.274824 2.9624379,10.729616 C 2.034456,10.429752 1.2683592,10.178744 1.26,10.171821 1.2516472,10.164893 1.4789722,9.4574868 1.7651808,8.5997965 2.0513896,7.7421067 2.8045671,5.4683073 3.4389098,3.5469097 4.073252,1.6255121 4.5954392,0.05660418 4.599326,0.06044823 Z"
         id="path845" />
      <path
         style="fill:currentColor;fill-opacity:1;stroke:none;stroke-width:0.0127397;stroke-linecap:round;stroke-linejoin:bevel;stroke-miterlimit:4;stroke-dasharray:none;stroke-opacity:1;paint-order:markers fill stroke"
         d="m 6.5117537,10.853664 c 0.8415065,-0.281895 1.5359048,-0.507137 1.543107,-0.500536 0.0072,0.0066 0.1865377,0.531271 0.3985225,1.165935 l 0.385429,1.153933 -1.9304808,-0.635357 C 5.8465675,11.688192 4.9787268,11.394163 4.9797968,11.384242 c 0.00107,-0.0099 0.6904505,-0.248682 1.5319569,-0.530578 z"
         id="path847" />
      <path
         style="fill:currentColor;fill-opacity:1;stroke:none;stroke-width:0.0127397;stroke-linecap:round;stroke-linejoin:bevel;stroke-miterlimit:4;stroke-dasharray:none;stroke-opacity:1;paint-order:markers fill stroke"
         d="m 2.7400349,10.865123 c 0.8548762,0.279841 1.5484241,0.514764 1.5412177,0.52205 -0.02145,0.02169 -3.70076582,1.260309 -3.78042082,1.272659 -0.064521,0.01006 -0.028199,-0.126118 0.3058327,-1.14608 L 1.1857148,10.35632 Z"
         id="path849" />
    </g>
    <g
       style="font-style:normal;font-variant:normal;font-weight:normal;font-stretch:normal;font-size:11.1613px;line-height:1.25;font-family:Purisa;-inkscape-font-specification:'Purisa, Normal';font-variant-ligatures:normal;font-variant-caps:normal;font-variant-numeric:normal;font-variant-east-asian:normal;fill:currentColor;fill-opacity:1;stroke:none;stroke-width:0.012891"
       id="text836"
       transform="scale(0.9874103,1.0127502)"
       aria-label="iry">
      <path
         id="path848"
         style="font-style:normal;font-variant:normal;font-weight:normal;font-stretch:normal;font-size:11.1613px;font-family:Purisa;-inkscape-font-specification:'Purisa, Normal';font-variant-ligatures:normal;font-variant-caps:normal;font-variant-numeric:normal;font-variant-east-asian:normal;fill:currentColor;fill-opacity:1;stroke-width:0.012891"
         d="m 9.7505481,5.5942045 q 0.1562582,-0.1339356 0.2678709,-0.1339356 0.234388,0 0.334839,0.747807 0.111613,0.7366458 0.200904,2.8461315 0.04465,0.9821946 0.04465,1.7746466 0,0.792452 -0.06697,0.870581 -0.133936,0.16742 -0.334839,0.16742 -0.2790324,0 -0.3460002,-0.234387 -0.055807,-0.145097 -0.1674195,-2.2545829 -0.111613,-2.120647 -0.111613,-2.9465832 0,-0.6920005 0.1785808,-0.8370974 z M 9.6835803,2.971299 q 0,-0.1562582 0.1227743,-0.3125164 0.1339356,-0.1562582 0.2343874,-0.1562582 0.111613,0 0.301355,0.1562582 0.200903,0.1450969 0.200903,0.3794842 0,0.1674195 -0.100451,0.2901938 -0.08929,0.111613 -0.245549,0.111613 -0.178581,0 -0.3460002,-0.1339356 Q 9.6835803,3.1722024 9.6835803,2.971299 Z" />
      <path
         id="path850"
         style="font-style:normal;font-variant:normal;font-weight:normal;font-stretch:normal;font-size:11.1613px;font-family:Purisa;-inkscape-font-specification:'Purisa, Normal';font-variant-ligatures:normal;font-variant-caps:normal;font-variant-numeric:normal;font-variant-east-asian:normal;fill:currentColor;fill-opacity:1;stroke-width:0.012891"
         d="m 16.190602,6.5317536 q 0.189742,0 0.334839,0.1227743 0.145096,0.111613 0.145096,0.1897421 0,0.1339356 -0.424129,0.3013551 -0.692001,0.2790325 -1.417485,1.3505173 -0.714323,1.0603234 -0.870581,2.0536796 -0.178581,1.127291 -0.290194,1.473291 -0.111613,0.357162 -0.290194,0.357162 -0.156258,0 -0.245549,-0.111613 -0.07813,-0.111613 -0.111613,-0.245549 -0.02232,-0.133936 -0.05581,-0.491097 -0.01116,-0.06697 -0.01116,-0.100452 -0.267872,-2.8126473 -0.267872,-4.4421971 0,-0.5803876 0.04465,-0.7143232 0.122774,-0.3571616 0.312516,-0.3571616 0.178581,0 0.178581,0.3013551 0,0.5022585 0.156258,1.6183885 0.156258,1.11613 0.234387,1.11613 0.100452,0 0.412968,-0.6138715 0.390646,-0.7254845 1.038001,-1.2612269 0.658517,-0.5469037 1.127292,-0.5469037 z" />
      <path
         id="path852"
         style="font-style:normal;font-variant:normal;font-weight:normal;font-stretch:normal;font-size:11.1613px;font-family:Purisa;-inkscape-font-specification:'Purisa, Normal';font-variant-ligatures:normal;font-variant-caps:normal;font-variant-numeric:normal;font-variant-east-asian:normal;fill:currentColor;fill-opacity:1;stroke-width:0.012891"
         d="m 18.869303,8.741691 q 0,0.8705813 0.07813,1.294711 0.07813,0.412968 0.301355,0.412968 0.212065,0 0.692001,-0.5245813 0.491097,-0.524581 0.692,-0.9821943 0.25671,-0.558065 0.412968,-1.339356 0.156259,-0.7924523 0.279033,-1.2054204 0.122774,-0.4129681 0.368323,-0.4129681 0.122774,0 0.223226,0.1004517 0.100452,0.1004517 0.100452,0.2567099 0,0.1785808 -0.25671,1.1719365 -0.245549,0.9933557 -0.245549,2.087163 0,0.3571616 0.03348,0.680839 l 0.07813,0.323678 0.357162,-0.178581 q 0.279032,-0.122774 0.43529,-0.122774 0.290194,0 0.290194,0.212065 0,0.267871 -0.468774,0.513419 l -0.457614,0.234388 0.05581,1.250065 q -0.06697,1.97555 -0.145097,2.087163 -0.07813,0.133936 -0.279033,0.133936 -0.234387,0 -0.703162,-0.200903 -0.267871,-0.122775 -0.424129,-0.267872 -0.145097,-0.145097 -0.279032,-0.424129 -0.312517,-0.636194 -0.312517,-1.138453 0,-0.17858 0.03348,-0.279032 0.03348,-0.08929 0.16742,-0.301355 0.133935,-0.200904 0.245548,-0.401807 0.100452,-0.189742 0.323678,-0.312516 0.234387,-0.133936 0.290194,-0.200904 0.08929,-0.08929 0.167419,-0.145097 0.08929,-0.05581 0.111613,-0.07813 0.02232,-0.02232 0.02232,-0.07813 0,-0.133935 -0.06697,-0.502258 -0.06697,-0.379485 -0.16742,-0.379485 -0.06697,0 -0.301355,0.279033 -0.234387,0.267871 -0.591549,0.546904 -0.357161,0.267871 -0.714323,0.267871 -0.446452,0 -0.736645,-0.524581 -0.145097,-0.267871 -0.189743,-0.6138718 -0.03348,-0.3460003 -0.03348,-1.4621302 0.01116,-1.2612269 0.08929,-1.7188402 0.08929,-0.4687746 0.323678,-0.4687746 0.133935,0 0.17858,0.1562582 0.04465,0.1450969 0.04465,0.6808393 0,0.2120647 -0.01116,0.7254845 -0.01116,0.5134198 -0.01116,0.8482588 z m 1.473292,4.431036 q 0,0.200903 0.301355,0.524581 0.312516,0.334839 0.468774,0.334839 0.16742,0 0.16742,-0.781291 -0.01116,-0.212065 -0.07813,-0.524581 -0.05581,-0.312516 -0.06697,-0.435291 l -0.06697,-0.669678 -0.312516,0.479936 q -0.412968,0.647356 -0.412968,1.071485 z" />
    </g>
    <g
       style="font-style:normal;font-variant:normal;font-weight:normal;font-stretch:normal;font-size:12.5643px;line-height:1.25;font-family:Uroob;-inkscape-font-specification:'Uroob, Normal';font-variant-ligatures:normal;font-variant-caps:normal;font-variant-numeric:normal;font-variant-east-asian:normal;fill:currentColor;fill-opacity:1;stroke:none;stroke-width:0.314108"
       id="text840"
       transform="scale(1.2232866,0.81746992)"
       aria-label="code/&gt;">
      <path
         id="path855"
         style="stroke-width:0.314108"
         d="m 24.113046,8.6134376 q -0.496927,0 -0.496927,0.5153326 v 3.1410748 q 0,0.490793 0.496927,0.490793 h 0.871158 q 0.208587,0 0.331285,-0.116563 0.122698,-0.122699 0.122698,-0.33742 h 1.055205 q -0.01841,0.926371 -0.717784,1.263791 -0.233127,0.110429 -0.533738,0.110429 h -1.392625 q -0.546007,0 -0.901832,-0.392635 -0.36196,-0.392634 -0.36196,-0.944776 V 8.9938021 q 0,-0.5398722 0.33742,-0.9263717 0.337421,-0.3803645 0.865023,-0.3803645 h 1.453974 q 0.546007,0 0.889562,0.3864994 0.34969,0.3864995 0.36196,0.9447765 H 25.438187 Q 25.432052,8.8404293 25.327759,8.7300009 25.2296,8.6134376 25.045553,8.6134376 Z" />
      <path
         id="path857"
         style="stroke-width:0.314108"
         d="m 30.793966,12.392543 q 0.0061,0.527603 -0.435579,0.889563 -0.441714,0.368094 -0.993856,0.368094 h -0.791404 q -0.558277,0 -1.01226,-0.36196 -0.453983,-0.361959 -0.453983,-0.895697 V 8.9447228 q 0,-0.5398722 0.453983,-0.901832 0.453983,-0.3619598 1.01226,-0.3619598 h 0.791404 q 0.539872,0 0.987721,0.3619598 0.441714,0.3619598 0.441714,0.901832 z m -1.04907,-0.202452 V 9.1471749 q 0,-0.2331266 -0.134968,-0.3926343 -0.128834,-0.1656427 -0.380365,-0.1656427 h -0.582817 q -0.257666,0 -0.374229,0.1656427 -0.116564,0.1595077 -0.116564,0.3926343 v 3.0429161 q 0,0.233127 0.116564,0.39877 0.116563,0.159507 0.374229,0.159507 h 0.582817 q 0.251531,0 0.380365,-0.159507 0.134968,-0.165643 0.134968,-0.39877 z" />
      <path
         id="path859"
         style="stroke-width:0.314108"
         d="m 33.671239,7.6932008 q 0.368095,0 0.67484,0.1840474 V 5.871132 h 1.055205 V 13.6502 H 34.438103 V 13.361859 Q 34.039334,13.6502 33.548541,13.6502 h -0.429444 q -0.785269,0 -1.245387,-0.509197 -0.466253,-0.509198 -0.466253,-1.300602 V 9.5091347 q 0,-1.2883315 0.865022,-1.6809658 0.300611,-0.1349681 0.72392,-0.1349681 z m 0.67484,4.6011842 V 9.0244767 q 0,-0.1779125 -0.165642,-0.3006107 -0.165643,-0.1226982 -0.33742,-0.1226982 h -0.650301 q -0.631896,0 -0.71165,0.6012213 -0.02454,0.1840474 -0.02454,0.3864995 v 2.2331084 q 0.0061,0.478523 0.104293,0.631895 0.190182,0.294476 0.631896,0.294476 h 0.527602 q 0.337421,0 0.558277,-0.269936 0.06748,-0.08589 0.06748,-0.184047 z" />
      <path
         id="path861"
         style="stroke-width:0.314108"
         d="m 39.971794,12.306655 q -0.01841,0.926371 -0.717785,1.263791 -0.233127,0.110429 -0.533737,0.110429 h -1.453975 q -0.546007,0 -0.901832,-0.392635 -0.361959,-0.392634 -0.361959,-0.944776 V 8.9938021 q 0,-0.5460071 0.331285,-0.9386415 0.331285,-0.3926344 0.871157,-0.3926344 h 1.558268 q 0.546007,0 0.871157,0.4171741 0.325151,0.417174 0.325151,0.9754509 v 0.7975386 q 0,0.5398722 -0.300611,0.9263712 -0.300611,0.380365 -0.834348,0.380365 h -1.791394 v 1.110419 q 0,0.490793 0.496928,0.490793 h 0.932506 q 0.208587,0 0.331286,-0.116563 0.128833,-0.122699 0.122698,-0.33742 z M 37.530099,8.6134376 q -0.496928,0 -0.496928,0.5153326 v 1.1226888 h 1.343545 q 0.233127,0 0.392635,-0.128833 0.165642,-0.1349681 0.165642,-0.3864995 v -0.631896 q 0,-0.2576663 -0.165642,-0.3742296 -0.159508,-0.1165633 -0.392635,-0.1165633 z" />
      <path
         id="path863"
         style="stroke-width:0.314108"
         d="M 44.076049,5.8404574 41.622085,15.515213 H 40.493261 L 42.947226,5.8404574 Z" />
      <path
         id="path865"
         style="stroke-width:0.314108"
         d="m 49.99624,10.871085 -3.4969,2.503044 h -1.619616 l 3.496899,-2.503044 -3.496899,-2.5030439 h 1.619616 z" />
    </g>
  </g>
</svg>
