<?xml version="1.0" encoding="UTF-8" standalone="no"?>
<svg
   xmlns:dc="http://purl.org/dc/elements/1.1/"
   xmlns:cc="http://creativecommons.org/ns#"
   xmlns:rdf="http://www.w3.org/1999/02/22-rdf-syntax-ns#"
   xmlns:svg="http://www.w3.org/2000/svg"
   xmlns="http://www.w3.org/2000/svg"
   xmlns:sodipodi="http://sodipodi.sourceforge.net/DTD/sodipodi-0.dtd"
   xmlns:inkscape="http://www.inkscape.org/namespaces/inkscape"
   version="1.1"
   id="Layer_1"
   x="0px"
   y="0px"
   viewBox="0 0 512 512"
   enable-background="new 0 0 512 512"
   xml:space="preserve"
   sodipodi:docname="code.svg"
   inkscape:version="1.0 (4035a4fb49, 2020-05-01)"><metadata
   id="metadata19"><rdf:RDF><cc:Work
       rdf:about=""><dc:format>image/svg+xml</dc:format><dc:type
         rdf:resource="http://purl.org/dc/dcmitype/StillImage" /><dc:title /></cc:Work></rdf:RDF></metadata><defs
   id="defs17" /><sodipodi:namedview
   inkscape:document-rotation="0"
   pagecolor="#ffffff"
   bordercolor="#666666"
   borderopacity="1"
   objecttolerance="10"
   gridtolerance="10"
   guidetolerance="10"
   inkscape:pageopacity="0"
   inkscape:pageshadow="2"
   inkscape:window-width="1920"
   inkscape:window-height="1026"
   id="namedview15"
   showgrid="false"
   inkscape:zoom="1.6796875"
   inkscape:cx="256"
   inkscape:cy="136.93023"
   inkscape:window-x="1680"
   inkscape:window-y="0"
   inkscape:window-maximized="1"
   inkscape:current-layer="Layer_1" />
<g
   fill="currentColor"
   id="g12"
   style="fill:none;stroke:currentColor;stroke-width:10;stroke-miterlimit:4;stroke-dasharray:none;stroke-opacity:1"
   transform="matrix(1.2132673,0,0,1.2132673,-54.597035,-54.597035)">
	<g
   id="g8"
   style="fill:none;stroke:currentColor;stroke-width:10;stroke-miterlimit:4;stroke-dasharray:none;stroke-opacity:1">
		<path
   d="m 222.012,293.484 v 25.212 L 132.4,279.849 v -21.556 l 89.612,-38.838 v 25.388 l -62.439,24.058 z"
   id="path2"
   style="fill:none;stroke:currentColor;stroke-width:10;stroke-miterlimit:4;stroke-dasharray:none;stroke-opacity:1" />
		<path
   d="m 277.425,218.919 -24.95,102.713 c -0.83,3.38 -1.554,6.056 -2.178,8.018 -0.624,1.961 -1.569,3.495 -2.847,4.581 -1.277,1.102 -3.133,1.649 -5.572,1.649 -6.05,0 -9.083,-2.62 -9.083,-7.835 0,-1.368 0.593,-4.783 1.78,-10.245 l 24.854,-102.713 c 1.308,-5.461 2.555,-9.204 3.742,-11.22 1.187,-2.019 3.5,-3.03 6.95,-3.03 2.968,0 5.241,0.714 6.81,2.14 1.574,1.426 2.364,3.387 2.364,5.879 10e-4,1.841 -0.628,5.195 -1.87,10.063 z"
   id="path4"
   style="fill:none;stroke:currentColor;stroke-width:10;stroke-miterlimit:4;stroke-dasharray:none;stroke-opacity:1" />
		<path
   d="m 379.599,279.849 -89.611,39.022 v -25.212 l 62.625,-24.583 -62.625,-24.234 v -25.031 l 89.611,38.658 z"
   id="path6"
   style="fill:none;stroke:currentColor;stroke-width:10;stroke-miterlimit:4;stroke-dasharray:none;stroke-opacity:1" />
	</g>
	<path
   d="M 437.281,74.719 H 74.719 C 61.069,74.719 50,85.791 50,99.441 v 313.121 c 0,13.645 11.069,24.72 24.719,24.72 h 362.563 c 13.654,0 24.719,-11.075 24.719,-24.72 V 99.441 C 462,85.786 450.935,74.719 437.281,74.719 Z m -61.8,16.481 c 9.082,0 16.48,7.39 16.48,16.481 0,9.088 -7.398,16.479 -16.48,16.479 -9.089,0 -16.481,-7.391 -16.481,-16.479 0,-9.09 7.392,-16.481 16.481,-16.481 z m -45.319,0 c 9.083,0 16.476,7.39 16.476,16.481 0,9.088 -7.393,16.479 -16.476,16.479 -9.088,0 -16.481,-7.391 -16.481,-16.479 C 313.68,98.591 321.074,91.2 330.162,91.2 Z M 437.281,412.562 H 74.719 V 140.641 H 437.282 V 412.562 Z M 420.8,124.16 c -9.083,0 -16.48,-7.391 -16.48,-16.479 0,-9.091 7.397,-16.481 16.48,-16.481 9.083,0 16.481,7.39 16.481,16.481 0,9.088 -7.398,16.479 -16.481,16.479 z"
   id="path10"
   style="fill:none;stroke:currentColor;stroke-width:10;stroke-miterlimit:4;stroke-dasharray:none;stroke-opacity:1" />
</g>
<path
   id="path835"
   d="m 342.15995,89.022673 c -3.70008,-1.155402 -6.34498,-3.427463 -8.1077,-6.964783 -2.75729,-5.533161 -1.72163,-11.606123 2.69366,-15.795161 8.52621,-8.089319 22.63216,-2.027552 22.63216,9.725747 0,6.136145 -3.81498,11.239896 -9.71029,12.990617 -3.64983,1.08388 -4.16675,1.086881 -7.50783,0.04358 z"
   style="fill:#f9cb2e;stroke:none;stroke-width:11.907;stroke-linecap:round;fill-opacity:1" /><path
   id="path837"
   d="m 398.28837,89.353784 c -6.83279,-1.712419 -11.79605,-8.614474 -10.77706,-14.986901 0.8074,-5.04921 3.44336,-8.504324 8.09799,-10.614533 9.99731,-4.532347 21.40646,5.188039 18.45643,15.724529 -1.83992,6.571541 -9.59495,11.426325 -15.77736,9.876905 z"
   style="fill:#2dcf41;fill-opacity:1;stroke:none;stroke-width:11.907;stroke-linecap:round" /><path
   id="path839"
   d="m 452.16744,88.98287 c -12.05906,-3.744413 -13.01579,-20.038314 -1.48837,-25.348158 4.55431,-2.097841 9.87299,-1.235152 13.96164,2.264575 4.91447,4.206603 6.144,10.334906 3.24193,16.158603 -1.80638,3.624929 -4.41907,5.816583 -8.34111,6.996945 -3.35072,1.008419 -3.91231,1.002938 -7.37409,-0.07196 z"
   style="fill:#fd6058;fill-opacity:1;stroke:none;stroke-width:11.907;stroke-linecap:round" /></svg>
