<?xml version="1.0" encoding="UTF-8" standalone="no"?>
<svg
   xmlns:dc="http://purl.org/dc/elements/1.1/"
   xmlns:cc="http://creativecommons.org/ns#"
   xmlns:rdf="http://www.w3.org/1999/02/22-rdf-syntax-ns#"
   xmlns:svg="http://www.w3.org/2000/svg"
   xmlns="http://www.w3.org/2000/svg"
   xmlns:sodipodi="http://sodipodi.sourceforge.net/DTD/sodipodi-0.dtd"
   xmlns:inkscape="http://www.inkscape.org/namespaces/inkscape"
   version="1.1"
   x="0px"
   y="0px"
   viewBox="0 0 1000 1000"
   enable-background="new 0 0 1000 1000"
   xml:space="preserve"
   id="svg24"
   sodipodi:docname="contract.svg"
   inkscape:version="1.0.1 (3bc2e813f5, 2020-09-07)"><defs
   id="defs28" /><sodipodi:namedview
   pagecolor="#ffffff"
   bordercolor="#666666"
   borderopacity="1"
   objecttolerance="10"
   gridtolerance="10"
   guidetolerance="10"
   inkscape:pageopacity="0"
   inkscape:pageshadow="2"
   inkscape:window-width="1920"
   inkscape:window-height="1026"
   id="namedview26"
   showgrid="false"
   inkscape:zoom="0.768"
   inkscape:cx="500"
   inkscape:cy="500"
   inkscape:window-x="1680"
   inkscape:window-y="0"
   inkscape:window-maximized="1"
   inkscape:current-layer="g22" />
<metadata
   id="metadata2"> Svg Vector Icons : http://www.onlinewebfonts.com/icon <rdf:RDF><cc:Work
     rdf:about=""><dc:format>image/svg+xml</dc:format><dc:type
       rdf:resource="http://purl.org/dc/dcmitype/StillImage" /></cc:Work></rdf:RDF></metadata>
<g
   id="g22"><path
     d="m 197.65,13.68 c -4.09,2.04 -8.58,6.54 -10.63,10.63 -3.47,6.74 -3.68,30.25 -3.68,403.25 0,445.15 -1.43,406.93 15.12,414.49 7.77,3.47 15.94,3.88 125.49,3.88 64.18,0 116.91,-0.41 116.91,-0.82 0,-0.41 2.25,-5.72 4.91,-12.06 l 5.11,-11.24 -4.09,-7.97 c -2.25,-4.29 -4.7,-10.63 -5.52,-13.9 l -1.64,-6.13 -101.58,-0.61 -101.58,-0.41 V 427.97 63.14 H 409.18 581.9 l 0.2,75.01 c 0,82.98 0.41,86.46 11.85,94.02 6.95,4.7 6.95,4.7 88.3,4.7 h 81.55 v 277.96 277.76 l -28.82,0.61 -29.02,0.61 -4.91,15.12 -4.7,14.92 5.11,11.24 5.11,11.04 45.38,-0.61 c 51.1,-0.61 55.59,-1.84 61.72,-14.71 3.07,-6.54 3.27,-32.91 2.86,-317.62 l -0.61,-310.87 -4.29,-5.72 C 803.46,185.56 625.84,15.72 619.3,12.86 613.78,10.41 581.29,10 408.78,10 218.7,10 204.39,10.21 197.65,13.68 Z m 500.13,145.93 24.73,24.12 H 678.77 635.03 V 141.42 99.11 l 19.01,18.19 c 10.22,10.02 30.05,29.03 43.74,42.31 z"
     id="path4"
     style="stroke-width:0.1" /><path
     d="m 318.24,311.88 c -5.72,2.04 -14.31,11.44 -16.56,18.39 -2.86,8.79 0.2,18.39 8.58,26.37 l 6.13,5.93 178.22,0.61 c 98.11,0.21 181.09,0 184.56,-0.61 8.38,-1.43 16.56,-9.81 19.42,-19.42 2.04,-6.34 1.64,-8.99 -1.84,-16.76 -7.36,-16.96 5.52,-15.94 -197.03,-15.74 -98.09,0 -179.85,0.61 -181.48,1.23 z"
     id="path6"
     style="stroke-width:0.1" /><path
     d="m 312.52,447.39 c -14.31,8.79 -15.94,27.8 -3.48,40.26 l 6.74,6.74 h 183.95 183.95 l 6.34,-5.31 C 703.3,478.04 702.48,457.4 688.38,448 l -6.95,-4.7 H 500.35 c -178.02,0 -181.29,0 -187.83,4.09 z"
     id="path8"
     style="stroke-width:0.1" /><path
     d="m 561.66,527.3 c -2.86,1.02 -9.4,5.11 -14.72,8.79 -16.55,12.06 -20.85,13.49 -38.63,13.49 -9.2,0 -19.42,1.22 -23.1,2.86 -9.61,3.88 -17.17,13.9 -21.05,27.38 -5.31,18.19 -8.18,22.28 -23.91,33.93 -10.42,7.77 -15.94,13.49 -18.6,19.21 -4.29,9.61 -3.88,15.33 2.86,37.4 l 4.7,15.54 -5.52,18.19 c -8.99,28.82 -6.54,36.99 16.96,53.96 13.9,10.22 17.58,15.13 22.69,31.68 8.18,25.96 13.69,30.04 43.54,31.68 l 22.07,1.43 15.74,10.83 c 13.29,9.61 17.17,11.24 26.98,11.85 11.85,0.82 12.06,0.82 36.38,-16.55 8.17,-5.93 10.22,-6.34 28.61,-7.15 10.83,-0.41 22.28,-1.63 25.55,-2.86 8.58,-3.27 14.92,-12.26 20.85,-30.04 5.52,-16.76 8.18,-20.23 28.41,-35.77 15.94,-12.06 19.01,-25.14 11.45,-47.21 -5.11,-14.92 -5.11,-25.96 0,-40.88 8.38,-24.12 4.7,-34.54 -16.96,-51.1 -15.54,-11.44 -20.64,-19.42 -24.94,-36.79 -2.04,-9.4 -8.99,-19.21 -15.94,-23.1 -4.5,-2.25 -13.29,-3.68 -27.39,-4.5 -20.44,-1.02 -20.85,-1.23 -34.75,-10.42 -7.56,-5.31 -15.94,-10.63 -18.39,-11.86 -5.31,-2.65 -16.14,-2.65 -22.89,0.01 z m 49.26,49.46 c 18.6,6.75 31.88,15.74 46.6,31.27 20.64,22.08 30.66,47.42 30.66,78.28 0,62.34 -52.12,114.66 -114.46,114.66 -33.31,0 -58.05,-10.63 -81.76,-34.54 -8.58,-8.58 -17.99,-20.23 -21.05,-26.16 -7.36,-13.9 -13.69,-39.04 -13.69,-54.57 0.2,-52.12 37.81,-99.53 89.11,-112.62 17.58,-4.49 47.01,-2.86 64.59,3.68 z"
     id="path10"
     style="stroke-width:0.1;fill:#0096c7;fill-opacity:1" /><path
     d="m 627.88,642.78 c -5.52,2.86 -14.31,8.38 -19.62,12.06 -11.65,8.59 -37.61,35.77 -46.4,48.44 l -6.54,9.4 -12.67,-13.08 c -14.72,-15.33 -29.43,-23.3 -44.97,-23.91 -12.06,-0.41 -14.31,2.25 -5.93,7.36 13.29,7.77 29.64,25.35 44.15,47.62 12.06,18.39 16.35,23.3 19.83,23.3 2.66,0 5.72,-0.82 6.95,-1.63 1.43,-0.82 9.81,-13.9 18.8,-29.02 17.37,-29.43 39.04,-58.66 54.37,-73.58 5.11,-4.91 9.4,-9.81 9.4,-10.63 0.01,-3.08 -7.15,-1.44 -17.37,3.67 z"
     id="path12"
     style="stroke-width:0.1;fill:#0096c7;fill-opacity:1" /><path
     d="m 316.4,577.78 c -14.72,7.36 -20.03,24.94 -11.45,37.81 6.95,10.63 11.65,11.65 53.96,11.65 h 38.83 l 3.48,-7.36 c 4.29,-8.99 13.08,-18.19 25.55,-26.57 5.72,-3.88 10.22,-8.99 11.65,-12.88 l 2.25,-6.34 h -58.66 c -51.71,0.01 -59.48,0.42 -65.61,3.69 z"
     id="path14"
     style="stroke-width:0.1" /><path
     d="m 472.75,831.22 c -3.07,5.11 -64.59,152.47 -64.59,154.92 0,4.91 5.93,3.27 41.9,-10.42 19.21,-7.36 35.56,-13.29 36.79,-13.29 1.02,0 11.85,6.54 23.92,14.71 14.92,9.81 22.89,13.9 24.32,12.47 1.84,-1.84 16.15,-116.29 16.15,-129.58 0,-3.88 -2.45,-6.95 -9.61,-12.26 -14.72,-10.63 -18.6,-11.86 -35.56,-12.06 -8.58,0 -19.42,-1.43 -23.91,-2.86 -4.71,-1.63 -8.79,-2.45 -9.41,-1.63 z"
     id="path16"
     style="stroke-width:0.1;fill:#0096c7;fill-opacity:1" /><path
     d="m 663.65,832.86 c -3.88,1.43 -14.31,2.66 -23.09,2.66 -17.17,0.2 -22.89,2.25 -37.2,13.08 -4.5,3.47 -8.58,6.54 -8.99,6.74 -1.43,1.02 14.51,132.65 16.15,134.49 1.23,1.23 10.83,-4.09 24.12,-12.67 12.06,-8.18 23.1,-14.71 24.32,-14.71 1.43,0 17.99,5.93 36.99,13.29 19.01,7.36 35.97,13.29 37.81,13.29 1.84,0 3.47,-1.63 3.47,-3.48 0,-4.09 -63.77,-156.15 -65.4,-155.74 -0.62,0.19 -4.3,1.41 -8.18,3.05 z"
     id="path18"
     style="stroke-width:0.1;fill:#0096c7;fill-opacity:1" /></g>
</svg>
