<svg id="_x33_0" enable-background="new 0 0 64 64" viewBox="0 0 64 64"
	xmlns="http://www.w3.org/2000/svg">
	<g>
		<g>
			<path d="m41 19.044c0-2.754-2.132-5.023-4.85-5.28l-.855-1.125c-2.208-2.905-5.722-4.639-9.4-4.639-1.374 0-2.724.234-4.014.697l-9.568 3.433c-3.178 1.14-5.313 4.149-5.313 7.49 0 .652.081 1.304.246 1.953l1.238 4.552.463 1.852.053 1.023c0-2.209 1.791-4 4-4h.97.03c7.143-1.438 8.571-6 15.714-6 2.367 0 4.286 1.931 4.286 4.313v1.687h.088.97c2.209 0 4 1.791 4 4l-.043-1.383.468-1.402c.063-.168 1.517-4.151 1.517-7.171z" fill="#00b4d8"/>
		</g>
		<g>
			<g fill="currentColor">
				<path d="m34.665 45.306-4.81-1.132-.514-2.573c2.799-1.571 4.845-4.333 5.461-7.601h.257c2.757 0 5-2.243 5-5s-2.243-5-5-5h-.059v-.688c0-2.929-2.371-5.312-5.286-5.312-4.205 0-6.648 1.525-9.011 3.001-1.877 1.171-3.82 2.38-6.817 2.999h-.886c-2.757 0-5 2.243-5 5s2.243 5 5 5h.199c.616 3.268 2.662 6.03 5.461 7.601l-.514 2.573-4.81 1.132c-7.263 1.709-12.336 8.112-12.336 15.574v2.12h46v-2.12c0-7.462-5.073-13.865-12.335-15.574zm.393-19.306c1.654 0 3 1.346 3 3s-1.346 3-3 3h-.061c0-.021.003-.041.003-.063v-5.937zm-3.718 20.578-1.782 4.752-3.836-3.197 3.444-2.066zm-18.34-14.578c-1.654 0-3-1.346-3-3s1.346-3 3-3v5.938c0 .021.003.041.003.063h-.003zm2-.062v-6.137c2.957-.728 4.969-1.984 6.762-3.104 2.319-1.447 4.321-2.697 7.952-2.697 1.812 0 3.286 1.486 3.286 3.313v8.625c0 4.997-4.038 9.062-9 9.062s-9-4.065-9-9.062zm9 11.062c1.212 0 2.375-.206 3.466-.571l.415 2.076-3.881 2.329-3.881-2.329.415-2.076c1.091.365 2.254.571 3.466.571zm-5.166 3.066 3.444 2.066-3.836 3.197-1.782-4.752zm26.166 14.934h-42v-.12c0-6.528 4.438-12.133 10.793-13.627l.903-.213 2.862 7.63 6.442-5.368 6.442 5.368 2.862-7.63.903.213c6.355 1.494 10.793 7.099 10.793 13.627z"/>
				<path d="m54.2 40.4 1.6 1.2 1.2-1.6v19h2v-19l1.2 1.6 1.6-1.2-3.8-5.067z"/>
				<path d="m46 42c0 .552-.449 1-1 1h-3l1.6-1.2-1.2-1.6-5.067 3.8 5.066 3.8 1.2-1.6-1.599-1.2h3c1.654 0 3-1.346 3-3v-3h-2z"/>
				<path d="m53 57h2v2h-2z"/>
				<path d="m53 53h2v2h-2z"/>
				<path d="m53 49h2v2h-2z"/>
				<path d="m46 31h2v2h-2z"/>
				<path d="m46 35h2v2h-2z"/>
				<circle cx="29" cy="29" r="1"/>
				<circle cx="19" cy="29" r="1"/>
				<path d="m29.092 33.797.151-.303-1.788-.894-.151.303c-.621 1.243-1.87 2.015-3.258 2.015s-2.637-.771-3.258-2.015l-.153-.303-1.789.895.151.303c.962 1.925 2.896 3.12 5.047 3.12s4.086-1.196 5.048-3.121z"/>
				<path d="m58 26v-4.79c3.098-2.022 5-5.499 5-9.21 0-3.124-1.336-6.112-3.665-8.197-2.327-2.084-5.455-3.076-8.586-2.733-5.117.565-9.194 4.699-9.695 9.829-.401 4.095 1.529 8.079 4.946 10.311v4.79c0 1.654 1.346 3 3 3h6c1.654 0 3-1.346 3-3zm-14.956-14.906c.41-4.194 3.743-7.574 7.925-8.036.35-.039.698-.059 1.042-.059 2.221 0 4.317.797 5.989 2.294 1.907 1.706 3 4.151 3 6.707 0 3.194-1.725 6.178-4.501 7.786l-.369.214h-3.13v-5.184c-.314.112-.648.184-1 .184s-.686-.072-1-.184v5.184h-3.13l-.369-.214c-3.098-1.795-4.805-5.126-4.457-8.692zm4.956 14.906v-4h8v4c0 .552-.449 1-1 1h-6c-.551 0-1-.448-1-1z"/>
			</g>
			<path d="m49 12c0-1.654 1.346-3 3-3" fill="#00b4d8"/>
		</g>
		<g>
			<g>
				<path d="m52 15c-1.654 0-3-1.346-3-3s1.346-3 3-3 3 1.346 3 3-1.346 3-3 3z" fill="#00b4d8"/>
			</g>
		</g>
	</g>
</svg>