<?xml version="1.0" encoding="UTF-8" standalone="no"?>
<svg
   xmlns:dc="http://purl.org/dc/elements/1.1/"
   xmlns:cc="http://creativecommons.org/ns#"
   xmlns:rdf="http://www.w3.org/1999/02/22-rdf-syntax-ns#"
   xmlns:svg="http://www.w3.org/2000/svg"
   xmlns="http://www.w3.org/2000/svg"
   xmlns:sodipodi="http://sodipodi.sourceforge.net/DTD/sodipodi-0.dtd"
   xmlns:inkscape="http://www.inkscape.org/namespaces/inkscape"
   inkscape:version="1.0.1 (3bc2e813f5, 2020-09-07)"
   sodipodi:docname="nimbel-certified.svg"
   viewBox="0 0 920 270"
   id="svg901"
   version="1.1">
  <metadata
     id="metadata907">
    <rdf:RDF>
      <cc:Work
         rdf:about="">
        <dc:format>image/svg+xml</dc:format>
        <dc:type
           rdf:resource="http://purl.org/dc/dcmitype/StillImage" />
        <dc:title></dc:title>
      </cc:Work>
    </rdf:RDF>
  </metadata>
  <defs
     id="defs905" />
  <sodipodi:namedview
     inkscape:current-layer="g909"
     inkscape:window-maximized="1"
     inkscape:window-y="0"
     inkscape:window-x="1680"
     inkscape:cy="297.95352"
     inkscape:cx="432.74751"
     inkscape:zoom="1"
     showguides="false"
     showgrid="false"
     id="namedview903"
     inkscape:window-height="1026"
     inkscape:window-width="1920"
     inkscape:pageshadow="2"
     inkscape:pageopacity="0"
     guidetolerance="10"
     gridtolerance="10"
     objecttolerance="10"
     borderopacity="1"
     bordercolor="#666666"
     pagecolor="#ffffff"
     inkscape:document-rotation="0"
     fit-margin-top="0"
     fit-margin-left="0"
     fit-margin-right="0"
     fit-margin-bottom="0" />
  <g
     id="g909"
     inkscape:label="Image"
     inkscape:groupmode="layer"
     transform="translate(-4.1758453,-19.014019)">
    <g
       id="g978"
       transform="translate(2.346743)">
      <g
         id="g961"
         transform="translate(0,2.6084844)">
        <g
           transform="matrix(4.4103346,0,0,4.4824074,-259.42977,-544.52818)"
           style="font-style:normal;font-variant:normal;font-weight:normal;font-stretch:normal;font-size:52px;line-height:1.25;font-family:Gayathri;-inkscape-font-specification:'Gayathri, Normal';font-variant-ligatures:normal;font-variant-caps:normal;font-variant-numeric:normal;font-variant-east-asian:normal;fill:currentColor;fill-opacity:1;stroke:currentColor;stroke-width:2.2491;stroke-miterlimit:4;stroke-dasharray:none;stroke-opacity:1"
           id="text1781"
           aria-label="Nimbel">
          <path
             style="stroke:currentColor;stroke-width:2.2491;stroke-miterlimit:4;stroke-dasharray:none;stroke-opacity:1"
             id="path1789"
             d="m 87.732422,162.52148 c 0.83789,0 2.564453,-0.33007 2.564453,-1.37109 v -33.49023 c 0,-0.43164 -0.685547,-0.8125 -1.498047,-0.8125 -0.837891,0 -1.498047,0.38086 -1.498047,0.8125 v 29.37695 l -21.53125,-29.37695 c -0.380859,-0.50782 -1.320312,-0.8125 -2.335937,-0.8125 -0.888672,0 -2.539063,0.30468 -2.539063,1.42187 v 33.46484 c 0,0.43165 0.685547,0.78711 1.498047,0.78711 0.837891,0 1.498047,-0.35546 1.498047,-0.78711 v -29.40234 l 21.53125,29.37695 c 0.380859,0.50782 1.294922,0.8125 2.310547,0.8125 z" />
          <path
             style="stroke:currentColor;stroke-width:2.2491;stroke-miterlimit:4;stroke-dasharray:none;stroke-opacity:1"
             id="path1791"
             d="m 97.025391,129.08203 c -1.269532,0 -2.285157,1.01563 -2.285157,2.28516 0,1.26953 1.015625,2.28515 2.285157,2.28515 1.269531,0 2.285156,-1.01562 2.285156,-2.28515 0,-1.26953 -1.015625,-2.28516 -2.285156,-2.28516 z m -2.082032,8.58203 v 23.68946 c 0,0.63476 0.939453,1.16796 2.082032,1.16796 1.142578,0 2.082031,-0.5332 2.082031,-1.16796 v -23.68946 c 0,-0.63476 -0.939453,-1.14258 -2.082031,-1.14258 -1.142579,0 -2.082032,0.50782 -2.082032,1.14258 z" />
          <path
             style="stroke:currentColor;stroke-width:2.2491;stroke-miterlimit:4;stroke-dasharray:none;stroke-opacity:1"
             id="path1793"
             d="m 140.39258,162.52148 c 1.14258,0 2.08203,-0.50781 2.08203,-1.14257 V 147.8457 c 0,-6.52539 -4.16406,-11.32422 -10.71484,-11.32422 -3.45313,0 -6.42383,1.06641 -8.32813,4.24024 -1.92969,-2.86914 -4.62109,-4.24024 -8.07422,-4.24024 -2.79297,0 -5.83984,0.96485 -7.46484,3.93555 v -2.79297 c 0,-0.63476 -0.91406,-1.14258 -2.05664,-1.14258 -1.14258,0 -2.08203,0.50782 -2.08203,1.14258 v 23.68946 c 0,0.66015 0.93945,1.16796 2.08203,1.16796 1.14258,0 2.05664,-0.50781 2.05664,-1.16796 V 148.6582 c 0,-4.44336 1.72656,-9.75 6.65234,-9.75 4.97656,0 6.52539,4.64649 6.52539,8.9375 v 13.53321 c 0,0.63476 0.91407,1.14257 2.05664,1.14257 1.14258,0 2.08203,-0.50781 2.08203,-1.14257 V 147.8457 c 0,-4.21484 1.59961,-8.9375 6.52539,-8.9375 4.95118,0 6.60157,4.64649 6.60157,8.9375 v 13.53321 c 0,0.63476 0.91406,1.14257 2.05664,1.14257 z" />
          <path
             style="stroke:currentColor;stroke-width:2.2491;stroke-miterlimit:4;stroke-dasharray:none;stroke-opacity:1"
             id="path1795"
             d="m 160.04492,136.49609 c -3.68164,0 -6.85547,1.67578 -8.35351,3.8086 v -12.31446 c 0,-0.63476 -0.91407,-1.14257 -2.05664,-1.14257 -1.14258,0 -2.08204,0.50781 -2.08204,1.14257 v 33.38868 c 0,0.63476 0.93946,1.14257 2.08204,1.14257 1.14257,0 2.05664,-0.50781 2.05664,-1.14257 v -2.69141 c 1.49804,2.13281 4.67187,3.80859 8.35351,3.80859 7.74414,0 12.49219,-5.63672 12.49219,-13 0,-7.36328 -4.74805,-13 -12.49219,-13 z m 0,2.31055 c 5.63672,0 8.35352,5.76367 8.35352,10.68945 0,4.92578 -2.7168,10.68946 -8.35352,10.68946 -5.63672,0 -8.35351,-5.76368 -8.35351,-10.68946 0,-4.92578 2.71679,-10.68945 8.35351,-10.68945 z" />
          <path
             style="fill:#0096c7;stroke:#0096c7;stroke-width:2.2491;stroke-miterlimit:4;stroke-dasharray:none;stroke-opacity:1"
             id="path1797"
             d="m 188.2793,162.52148 c 3.09765,0 6.37304,-0.8125 8.96289,-2.53906 1.54883,-1.01562 2.6914,-2.28515 3.35156,-3.65625 0.25391,-0.5332 0.55859,-1.39648 0.55859,-1.98047 0,-0.86328 -1.44726,-1.14258 -2.08203,-1.14258 -1.09179,0 -1.95508,0.48243 -2.03125,1.0918 -0.15234,1.54883 -1.26953,3.04688 -2.9707,4.18945 -1.67578,1.14258 -3.75781,1.72657 -5.76367,1.72657 -5.89063,0 -9.11524,-5.20508 -9.11524,-10.61328 h 20.38867 c 0.91407,0 2.05665,-0.30469 2.05665,-1.3711 0,-7.66797 -5.86524,-11.70508 -13.15235,-11.70508 -7.76953,0 -13.40625,5.35743 -13.40625,13.20313 0,7.74414 5.58594,12.79687 13.20313,12.79687 z m 9.1914,-15.25976 h -18.05273 c 0.86328,-4.57031 4.13867,-8.42969 9.06445,-8.42969 5.17969,0 8.60742,3.35156 8.98828,8.42969 z" />
          <path
             style="fill:#0096c7;stroke:#0096c7;stroke-width:2.2491;stroke-miterlimit:4;stroke-dasharray:none;stroke-opacity:1"
             id="path1799"
             d="m 204.80859,127.99023 v 33.38868 c 0,0.63476 0.91407,1.14257 2.08203,1.14257 1.14258,0 2.05665,-0.50781 2.05665,-1.14257 v -33.38868 c 0,-0.63476 -0.91407,-1.14257 -2.05665,-1.14257 -1.16796,0 -2.08203,0.50781 -2.08203,1.14257 z" />
        </g>
        <text
           xml:space="preserve"
           style="font-style:normal;font-variant:normal;font-weight:normal;font-stretch:normal;font-size:94.493px;line-height:1.25;font-family:sans-serif;-inkscape-font-specification:'sans-serif, Normal';font-variant-ligatures:normal;font-variant-caps:normal;font-variant-numeric:normal;font-variant-east-asian:normal;fill:currentColor;fill-opacity:1;stroke:none;stroke-width:1.10734"
           x="259.58511"
           y="282.45901"
           id="text896"><tspan
             sodipodi:role="line"
             id="tspan894"
             x="259.58511"
             y="282.45901"
             style="stroke-width:1.10734">Certified</tspan></text>
      </g>
      <g
         id="g932"
         transform="matrix(0.53101313,0,0,0.53101313,212.10883,-226.74133)">
        <path
           d="m 1156.5506,486.68075 c -2.86,1.02 -9.4,5.11 -14.72,8.79 -16.55,12.06 -20.85,13.49 -38.63,13.49 -9.2,0 -19.42,1.22 -23.1,2.86 -9.61,3.88 -17.17,13.9 -21.05,27.38 -5.31,18.19 -8.18,22.28 -23.91,33.93 -10.42,7.77 -15.94,13.49 -18.6,19.21 -4.29,9.61 -3.88,15.33 2.86,37.4 l 4.7,15.54 -5.52,18.19 c -8.99,28.82 -6.54,36.99 16.96,53.96 13.9,10.22 17.58,15.13 22.69,31.68 8.18,25.96 13.69,30.04 43.54,31.68 l 22.07,1.43 15.74,10.83 c 13.29,9.61 17.17,11.24 26.98,11.85 11.85,0.82 12.06,0.82 36.38,-16.55 8.17,-5.93 10.22,-6.34 28.61,-7.15 10.83,-0.41 22.28,-1.63 25.55,-2.86 8.58,-3.27 14.92,-12.26 20.85,-30.04 5.52,-16.76 8.18,-20.23 28.41,-35.77 15.94,-12.06 19.01,-25.14 11.45,-47.21 -5.11,-14.92 -5.11,-25.96 0,-40.88 8.38,-24.12 4.7,-34.54 -16.96,-51.1 -15.54,-11.44 -20.64,-19.42 -24.94,-36.79 -2.04,-9.4 -8.99,-19.21 -15.94,-23.1 -4.5,-2.25 -13.29,-3.68 -27.39,-4.5 -20.44,-1.02 -20.85,-1.23 -34.75,-10.42 -7.56,-5.31 -15.94,-10.63 -18.39,-11.86 -5.31,-2.65 -16.14,-2.65 -22.89,0.01 z m 49.26,49.46 c 18.6,6.75 31.88,15.74 46.6,31.27 20.64,22.08 30.66,47.42 30.66,78.28 0,62.34 -52.12,114.66 -114.46,114.66 -33.31,0 -58.05,-10.63 -81.76,-34.54 -8.58,-8.58 -17.99,-20.23 -21.05,-26.16 -7.36,-13.9 -13.69,-39.04 -13.69,-54.57 0.2,-52.12 37.81,-99.53 89.11,-112.62 17.58,-4.49 47.01,-2.86 64.59,3.68 z"
           id="path10"
           style="fill:#0096c7;fill-opacity:1;stroke-width:0.1" />
        <path
           d="m 1222.7706,602.16075 c -5.52,2.86 -14.31,8.38 -19.62,12.06 -11.65,8.59 -37.61,35.77 -46.4,48.44 l -6.54,9.4 -12.67,-13.08 c -14.72,-15.33 -29.43,-23.3 -44.97,-23.91 -12.06,-0.41 -14.31,2.25 -5.93,7.36 13.29,7.77 29.64,25.35 44.15,47.62 12.06,18.39 16.35,23.3 19.83,23.3 2.66,0 5.72,-0.82 6.95,-1.63 1.43,-0.82 9.81,-13.9 18.8,-29.02 17.37,-29.43 39.04,-58.66 54.37,-73.58 5.11,-4.91 9.4,-9.81 9.4,-10.63 0.01,-3.08 -7.15,-1.44 -17.37,3.67 z"
           id="path12"
           style="fill:#0096c7;fill-opacity:1;stroke-width:0.1" />
        <path
           d="m 1067.6406,790.60075 c -3.07,5.11 -64.59,152.47 -64.59,154.92 0,4.91 5.93,3.27 41.9,-10.42 19.21,-7.36 35.56,-13.29 36.79,-13.29 1.02,0 11.85,6.54 23.92,14.71 14.92,9.81 22.89,13.9 24.32,12.47 1.84,-1.84 16.15,-116.29 16.15,-129.58 0,-3.88 -2.45,-6.95 -9.61,-12.26 -14.72,-10.63 -18.6,-11.86 -35.56,-12.06 -8.58,0 -19.42,-1.43 -23.91,-2.86 -4.71,-1.63 -8.79,-2.45 -9.41,-1.63 z"
           id="path16"
           style="fill:#0096c7;fill-opacity:1;stroke-width:0.1" />
        <path
           d="m 1258.5406,792.24075 c -3.88,1.43 -14.31,2.66 -23.09,2.66 -17.17,0.2 -22.89,2.25 -37.2,13.08 -4.5,3.47 -8.58,6.54 -8.99,6.74 -1.43,1.02 14.51,132.65 16.15,134.49 1.23,1.23 10.83,-4.09 24.12,-12.67 12.06,-8.18 23.1,-14.71 24.32,-14.71 1.43,0 17.99,5.93 36.99,13.29 19.01,7.36 35.97,13.29 37.81,13.29 1.84,0 3.47,-1.63 3.47,-3.48 0,-4.09 -63.77,-156.15 -65.4,-155.74 -0.62,0.19 -4.3,1.41 -8.18,3.05 z"
           id="path18"
           style="fill:#0096c7;fill-opacity:1;stroke-width:0.1" />
      </g>
    </g>
  </g>
</svg>
