<?xml version="1.0" encoding="UTF-8" standalone="no"?>
<svg
   xmlns:dc="http://purl.org/dc/elements/1.1/"
   xmlns:cc="http://creativecommons.org/ns#"
   xmlns:rdf="http://www.w3.org/1999/02/22-rdf-syntax-ns#"
   xmlns:svg="http://www.w3.org/2000/svg"
   xmlns="http://www.w3.org/2000/svg"
   xmlns:sodipodi="http://sodipodi.sourceforge.net/DTD/sodipodi-0.dtd"
   xmlns:inkscape="http://www.inkscape.org/namespaces/inkscape"
   viewBox="0 0 135.46666 135.46667"
   version="1.1"
   id="svg8"
   inkscape:version="1.0.1 (3bc2e813f5, 2020-09-07)"
   sodipodi:docname="pwa.svg">
  <defs
     id="defs2">
    <inkscape:path-effect
       hide_knots="false"
       only_selected="false"
       apply_with_radius="true"
       apply_no_radius="true"
       use_knot_distance="true"
       flexible="false"
       chamfer_steps="1"
       radius="0"
       mode="F"
       method="auto"
       unit="px"
       satellites_param="F,0,0,1,0,0,0,1 @ F,0,0,1,0,0,0,1 @ F,0,0,1,0,1.2,0,1 @ F,0,0,1,0,1.2,0,1"
       lpeversion="1"
       is_visible="true"
       id="path-effect917"
       effect="fillet_chamfer" />
    <inkscape:path-effect
       hide_knots="false"
       only_selected="false"
       apply_with_radius="true"
       apply_no_radius="true"
       use_knot_distance="true"
       flexible="false"
       chamfer_steps="1"
       radius="0"
       mode="F"
       method="auto"
       unit="px"
       satellites_param="F,0,0,1,0,0,0,1 @ F,0,0,1,0,1,0,1 @ F,0,0,1,0,1,0,1 @ F,0,0,1,0,0,0,1"
       lpeversion="1"
       is_visible="true"
       id="path-effect913"
       effect="fillet_chamfer" />
    <inkscape:path-effect
       effect="fillet_chamfer"
       id="path-effect914"
       is_visible="true"
       lpeversion="1"
       satellites_param="F,0,0,1,0,0.79375187,0,1 @ F,0,0,1,0,0.79375187,0,1 @ F,0,0,1,0,0,0,1 @ F,0,0,1,0,0,0,1"
       unit="px"
       method="auto"
       mode="F"
       radius="0"
       chamfer_steps="1"
       flexible="false"
       use_knot_distance="true"
       apply_no_radius="true"
       apply_with_radius="true"
       only_selected="false"
       hide_knots="false" />
    <inkscape:path-effect
       effect="fillet_chamfer"
       id="path-effect912"
       is_visible="true"
       lpeversion="1"
       satellites_param="F,0,0,1,0,0,0,1 @ F,0,0,1,0,0.66145911,0,1 @ F,0,0,1,0,0.66145807,0,1 @ F,0,0,1,0,0,0,1"
       unit="px"
       method="auto"
       mode="F"
       radius="0"
       chamfer_steps="1"
       flexible="false"
       use_knot_distance="true"
       apply_no_radius="true"
       apply_with_radius="true"
       only_selected="false"
       hide_knots="false" />
  </defs>
  <sodipodi:namedview
     id="base"
     pagecolor="#ffffff"
     bordercolor="#666666"
     borderopacity="1.0"
     inkscape:pageopacity="0.0"
     inkscape:pageshadow="2"
     inkscape:zoom="3.959798"
     inkscape:cx="129.4564"
     inkscape:cy="62.549736"
     inkscape:document-units="px"
     inkscape:current-layer="layer1"
     showgrid="true"
     units="px"
     inkscape:snap-grids="false"
     inkscape:snap-to-guides="false"
     inkscape:window-width="1920"
     inkscape:window-height="1026"
     inkscape:window-x="1680"
     inkscape:window-y="0"
     inkscape:window-maximized="1"
     inkscape:document-rotation="0">
    <inkscape:grid
       type="xygrid"
       id="grid864" />
  </sodipodi:namedview>
  <metadata
     id="metadata5">
    <rdf:RDF>
      <cc:Work
         rdf:about="">
        <dc:format>image/svg+xml</dc:format>
        <dc:type
           rdf:resource="http://purl.org/dc/dcmitype/StillImage" />
        <dc:title />
      </cc:Work>
    </rdf:RDF>
  </metadata>
  <g
     inkscape:label="Layer 1"
     inkscape:groupmode="layer"
     id="layer1"
     transform="translate(0,-161.53331)">
    <g
       style="stroke-width:0.79375;stroke-miterlimit:4;stroke-dasharray:none"
       transform="matrix(1.2546011,0,0,1.2546011,-24.133174,-66.30694)"
       id="g930">
      <path
         d="m 43.974329,190.14017 h 58.498701 v 35.91257 H 43.974329 Z"
         style="fill:none;fill-opacity:1;stroke:currentColor;stroke-width:0.79375;stroke-miterlimit:4;stroke-dasharray:none;stroke-opacity:1;paint-order:stroke fill markers"
         id="rect815" />
      <path
         style="fill:none;fill-opacity:1;stroke:currentColor;stroke-width:0.79375;stroke-miterlimit:4;stroke-dasharray:none;stroke-opacity:1;paint-order:stroke fill markers"
         d="m 43.170526,188.25002 h 60.106304 a 1.1340843,1.1340843 0 0 1 1.13408,1.13409 v 38.55877 H 42.036442 v -38.55877 a 1.1340843,1.1340843 0 0 1 1.134084,-1.13409 z"
         id="rect815-4" />
      <path
         d="m 73.659282,189.17736 a 0.43559685,0.42239698 0 0 1 -0.435598,0.42241 0.43559685,0.42239698 0 0 1 -0.435596,-0.42241 0.43559685,0.42239698 0 0 1 0.435596,-0.42239 0.43559685,0.42239698 0 0 1 0.435598,0.42239"
         style="fill:#000000;fill-opacity:1;stroke:none;stroke-width:0.79375;stroke-miterlimit:4;stroke-dasharray:none;stroke-opacity:1;paint-order:stroke fill markers"
         id="path834" />
      <path
         d="m 74.409015,230.40889 a 1.1853297,1.1853297 0 0 1 -1.185331,1.18534 1.1853297,1.1853297 0 0 1 -1.185329,-1.18534 1.1853297,1.1853297 0 0 1 1.185329,-1.18531 1.1853297,1.1853297 0 0 1 1.185331,1.18531"
         style="fill:none;fill-opacity:1;stroke:currentColor;stroke-width:0.79375;stroke-miterlimit:4;stroke-dasharray:none;stroke-opacity:1;paint-order:stroke fill markers"
         id="path856" />
      <path
         sodipodi:nodetypes="cccc"
         inkscape:connector-curvature="0"
         id="path862"
         d="m 42.036436,227.94288 v 4.67041 a 1,1 45 0 0 1,1 h 60.374484 a 1,1 135 0 0 1,-1 v -4.67041"
         style="fill:none;stroke:currentColor;stroke-width:0.79375;stroke-linecap:butt;stroke-linejoin:miter;stroke-miterlimit:4;stroke-dasharray:none;stroke-opacity:1" />
      <path
         inkscape:connector-curvature="0"
         id="path866"
         d="m 68.183318,233.61329 -2.520182,7.56054 h 15.121087 l -2.520181,-7.56054 v 0"
         style="fill:none;stroke:currentColor;stroke-width:0.79375;stroke-linecap:butt;stroke-linejoin:miter;stroke-miterlimit:4;stroke-dasharray:none;stroke-opacity:1" />
    </g>
    <g
       style="stroke-width:9.54351;stroke-miterlimit:4;stroke-dasharray:none"
       transform="matrix(0.10434736,0,0,0.10434736,90.951694,235.7445)"
       id="g847">
      <path
         style="fill:#cacaca;fill-opacity:1;stroke:currentColor;stroke-width:9.54351;stroke-miterlimit:4;stroke-dasharray:none;stroke-opacity:1"
         d="m 255.99999,475.73353 c -17.16054,0 -31.02475,-14.02768 -31.02475,-31.39059 0,-17.36281 13.8642,-31.39039 31.02475,-31.39039 17.16059,0 31.02477,14.02758 31.02477,31.39039 0,17.36291 -13.86419,31.39059 -31.02477,31.39059 z"
         id="path942" />
      <path
         style="fill:none;stroke:currentColor;stroke-width:9.54351;stroke-miterlimit:4;stroke-dasharray:none;stroke-opacity:1"
         d="M 364.58674,4.8761096 H 147.41327 c -25.6924,0 -46.53717,21.0904874 -46.53717,47.0857364 V 460.03823 c 0,25.99528 20.84477,47.08568 46.53717,47.08568 h 217.17347 c 25.69239,0 46.53716,-21.0904 46.53716,-47.08568 V 51.961846 c 0,-25.995249 -20.84477,-47.0857364 -46.53716,-47.0857364 z"
         id="path904" />
    </g>
    <g
       style="stroke-width:0.55555;stroke-miterlimit:4;stroke-dasharray:none"
       transform="matrix(1.7925291,0,0,1.7925291,-41.490897,-144.85004)"
       id="g922">
      <path
         id="rect815-6"
         style="fill:none;fill-opacity:1;stroke:currentColor;stroke-width:0.55555;stroke-miterlimit:4;stroke-dasharray:none;stroke-opacity:1;paint-order:stroke fill markers"
         d="m 28.021193,216.9449 h 31.03465 v 19.0523 h -31.03465 z" />
      <path
         id="rect815-4-7"
         d="m 27.594759,215.94215 h 31.887517 a 0.60165284,0.60165284 0 0 1 0.601653,0.60165 v 20.45614 H 26.993107 V 216.5438 a 0.60165284,0.60165284 0 0 1 0.601652,-0.60165 z"
         style="fill:none;fill-opacity:1;stroke:currentColor;stroke-width:0.55555;stroke-miterlimit:4;stroke-dasharray:none;stroke-opacity:1;paint-order:stroke fill markers" />
      <path
         style="fill:none;stroke:currentColor;stroke-width:0.55555;stroke-miterlimit:4;stroke-dasharray:none"
         d="M 24.047684,237.07333 H 63.02935 v 0.26579 a 1.2,1.2 135 0 1 -1.2,1.2 H 25.247684 a 1.2,1.2 45 0 1 -1.2,-1.2 z"
         id="rect915" />
    </g>
    <path
       id="path987"
       d="m 55.442233,193.28835 8.724693,10.58334 23.265845,-18.52083 v 0"
       style="fill:none;stroke:#0096c7;stroke-width:5.29167;stroke-linecap:round;stroke-linejoin:miter;stroke-miterlimit:4;stroke-dasharray:none;stroke-opacity:1" />
    <path
       style="fill:none;stroke:#0096c7;stroke-width:5.29167;stroke-linecap:round;stroke-linejoin:miter;stroke-miterlimit:4;stroke-dasharray:none;stroke-opacity:1"
       d="M 23.025307,259.42915 31.75,270.01249 55.015845,251.49166 v 0"
       id="path987-3" />
    <path
       style="fill:none;stroke:#0096c7;stroke-width:5.2916666;stroke-linecap:round;stroke-linejoin:miter;stroke-miterlimit:4;stroke-dasharray:none;stroke-opacity:1"
       d="m 108.75032,260.78985 5.26582,6.04762 14.0422,-10.58333 v 0"
       id="path987-5" />
  </g>
</svg>
