<?xml version="1.0" encoding="UTF-8" standalone="no"?>
<svg
   xmlns:dc="http://purl.org/dc/elements/1.1/"
   xmlns:cc="http://creativecommons.org/ns#"
   xmlns:rdf="http://www.w3.org/1999/02/22-rdf-syntax-ns#"
   xmlns:svg="http://www.w3.org/2000/svg"
   xmlns="http://www.w3.org/2000/svg"
   xmlns:sodipodi="http://sodipodi.sourceforge.net/DTD/sodipodi-0.dtd"
   xmlns:inkscape="http://www.inkscape.org/namespaces/inkscape"
   aria-hidden="true"
   focusable="false"
   class="svg-inline--fa fa-life-ring fa-w-16"
   role="img"
   viewBox="0 0 512 512"
   version="1.1"
   id="svg4"
   sodipodi:docname="rescue.svg"
   inkscape:version="1.0 (4035a4fb49, 2020-05-01)">
  <metadata
     id="metadata10">
    <rdf:RDF>
      <cc:Work
         rdf:about="">
        <dc:format>image/svg+xml</dc:format>
        <dc:type
           rdf:resource="http://purl.org/dc/dcmitype/StillImage" />
      </cc:Work>
    </rdf:RDF>
  </metadata>
  <defs
     id="defs8" />
  <sodipodi:namedview
     inkscape:document-rotation="0"
     pagecolor="#ffffff"
     bordercolor="#666666"
     borderopacity="1"
     objecttolerance="10"
     gridtolerance="10"
     guidetolerance="10"
     inkscape:pageopacity="0"
     inkscape:pageshadow="2"
     inkscape:window-width="1920"
     inkscape:window-height="1026"
     id="namedview6"
     showgrid="false"
     inkscape:zoom="1.1877184"
     inkscape:cx="293.12078"
     inkscape:cy="253.72029"
     inkscape:window-x="1680"
     inkscape:window-y="0"
     inkscape:window-maximized="1"
     inkscape:current-layer="svg4" />
  <path
     d="M256 504c136.967 0 248-111.033 248-248S392.967 8 256 8 8 119.033 8 256s111.033 248 248 248zm-103.398-76.72l53.411-53.411c31.806 13.506 68.128 13.522 99.974 0l53.411 53.411c-63.217 38.319-143.579 38.319-206.796 0zM336 256c0 44.112-35.888 80-80 80s-80-35.888-80-80 35.888-80 80-80 80 35.888 80 80zm91.28 103.398l-53.411-53.411c13.505-31.806 13.522-68.128 0-99.974l53.411-53.411c38.319 63.217 38.319 143.579 0 206.796zM359.397 84.72l-53.411 53.411c-31.806-13.505-68.128-13.522-99.973 0L152.602 84.72c63.217-38.319 143.579-38.319 206.795 0zM84.72 152.602l53.411 53.411c-13.506 31.806-13.522 68.128 0 99.974L84.72 359.398c-38.319-63.217-38.319-143.579 0-206.796z"
     id="path2"
     style="fill:none;stroke:currentColor;stroke-opacity:1;fill-opacity:1;stroke-width:10;stroke-miterlimit:4;stroke-dasharray:none" />
  <path
     id="rect835-6"
     style="fill:#ff0000;fill-opacity:1;stroke:none;stroke-width:22.3059;stroke-linecap:round;stroke-opacity:1"
     d="m 325.11478,150.55155 53.66733,-52.558417 c 11.49452,7.929427 22.92661,16.451727 33.30977,34.935007 l -53.66734,52.55841 c -9.43193,-13.76831 -20.78296,-25.09853 -33.30976,-34.935 z"
     sodipodi:nodetypes="ccccc" />
  <path
     sodipodi:nodetypes="ccccc"
     d="M 186.15193,360.31067 133.46201,413.8489 C 121.82335,406.13259 110.23619,397.82235 99.514275,379.5335 L 152.2042,325.99528 c 9.68399,13.5922 21.24183,24.71137 33.94773,34.31539 z"
     style="fill:#ff0000;fill-opacity:1;stroke:none;stroke-width:22.3059;stroke-linecap:round;stroke-opacity:1"
     id="rect835-6-3" />
  <path
     sodipodi:nodetypes="ccccc"
     d="m 359.57139,326.11131 54.01145,52.20474 c -7.611,11.7078 -15.81636,23.36946 -34.00772,34.25596 l -54.01144,-52.20475 c 13.50429,-9.80623 24.51872,-21.46392 34.00771,-34.25595 z"
     style="fill:#ff0000;fill-opacity:1;stroke:none;stroke-width:22.3059;stroke-linecap:round;stroke-opacity:1"
     id="rect835-6-5" />
  <path
     id="rect835-6-3-6"
     style="fill:#ff0000;fill-opacity:1;stroke:none;stroke-width:22.3059;stroke-linecap:round;stroke-opacity:1"
     d="m 152.95612,187.94722 -52.80413,-53.42559 c 7.87659,-11.53079 16.34635,-23.00186 34.78179,-33.46973 l 52.80411,53.4256 c -13.72487,9.49501 -25.00288,20.89791 -34.78177,33.46972 z"
     sodipodi:nodetypes="ccccc" />
</svg>
