<?xml version="1.0" encoding="UTF-8" standalone="no"?>
<svg
   xmlns:dc="http://purl.org/dc/elements/1.1/"
   xmlns:cc="http://creativecommons.org/ns#"
   xmlns:rdf="http://www.w3.org/1999/02/22-rdf-syntax-ns#"
   xmlns:svg="http://www.w3.org/2000/svg"
   xmlns="http://www.w3.org/2000/svg"
   xmlns:sodipodi="http://sodipodi.sourceforge.net/DTD/sodipodi-0.dtd"
   xmlns:inkscape="http://www.inkscape.org/namespaces/inkscape"
   inkscape:version="1.0 (4035a4fb49, 2020-05-01)"
   sodipodi:docname="training.svg"
   id="svg4"
   version="1.1"
   viewBox="0 0 512 512"
   role="img"
   class="svg-inline--fa fa-user-graduate fa-w-14"
   data-icon="user-graduate"
   data-prefix="fas"
   focusable="false"
   aria-hidden="true">
  <metadata
     id="metadata10">
    <rdf:RDF>
      <cc:Work
         rdf:about="">
        <dc:format>image/svg+xml</dc:format>
        <dc:type
           rdf:resource="http://purl.org/dc/dcmitype/StillImage" />
        <dc:title></dc:title>
      </cc:Work>
    </rdf:RDF>
  </metadata>
  <defs
     id="defs8">
    <inkscape:path-effect
       hide_knots="false"
       only_selected="false"
       apply_with_radius="true"
       apply_no_radius="true"
       use_knot_distance="true"
       flexible="false"
       chamfer_steps="1"
       radius="0"
       mode="F"
       method="auto"
       unit="px"
       satellites_param="F,0,0,1,0,3.1272023,0,1 @ F,0,0,1,0,68.723339,0,1 @ F,0,0,1,0,0,0,1 @ F,0,0,1,0,63.81672,0,1"
       lpeversion="1"
       is_visible="true"
       id="path-effect839"
       effect="fillet_chamfer" />
  </defs>
  <sodipodi:namedview
     inkscape:current-layer="svg4"
     inkscape:window-maximized="1"
     inkscape:window-y="0"
     inkscape:window-x="1680"
     inkscape:cy="172.47014"
     inkscape:cx="-112.37558"
     inkscape:zoom="0.83984375"
     inkscape:object-nodes="false"
     inkscape:snap-others="true"
     inkscape:snap-to-guides="false"
     inkscape:snap-grids="false"
     showguides="false"
     showgrid="false"
     id="namedview6"
     inkscape:window-height="1026"
     inkscape:window-width="1920"
     inkscape:pageshadow="2"
     inkscape:pageopacity="0"
     guidetolerance="10"
     gridtolerance="10"
     objecttolerance="10"
     borderopacity="1"
     bordercolor="#666666"
     pagecolor="#ffffff" />
  <path
     style="fill:none;stroke:currentColor;stroke-width:17.8157;stroke-miterlimit:4;stroke-dasharray:none;stroke-opacity:1"
     id="path2"
     d="m 341.24403,314.46563 -83.66019,86.32256 -83.66019,-86.32256 C 111.22234,317.27066 61.149006,370.20431 61.149006,435.53437 v 8.68655 c 0,23.97848 18.854241,43.43274 42.093184,43.43274 h 308.68329 c 23.23893,0 42.09318,-19.45426 42.09318,-43.43274 v -8.68655 c 0,-65.33006 -50.07334,-118.26371 -112.77463,-121.06874 z M 73.075405,96.578071 78.687834,97.935352 V 150.7785 c -6.138596,3.80037 -10.5233,10.40576 -10.5233,18.36844 0,7.60072 4.033926,13.93465 9.734043,17.82551 L 64.2183,243.34452 c -1.490801,6.24346 1.841576,12.66787 6.664748,12.66787 H 107.5392 c 4.82317,0 8.15556,-6.42441 6.66475,-12.66787 l -13.68028,-56.37207 c 5.70012,-3.89086 9.73404,-10.22479 9.73404,-17.82551 0,-7.96268 -4.3847,-14.56807 -10.523302,-18.36844 v -47.59503 l 57.878132,14.38708 c -7.5417,15.5634 -12.27719,32.93651 -12.27719,51.57639 0,63.97279 50.24873,115.82061 112.24849,115.82061 61.99974,0 112.24846,-51.84782 112.24846,-115.82061 0,-18.63988 -4.64778,-36.01299 -12.27716,-51.57639 l 84.44943,-20.992479 c 15.96033,-3.981331 15.96033,-24.521397 0,-28.502729 L 275.03496,26.452302 c -11.40024,-2.805029 -23.41434,-2.805029 -34.81456,0 L 73.075405,67.984853 c -15.872635,3.981332 -15.872635,24.611887 0,28.593218 z"
     fill="currentColor" />
  </svg>
