<?xml version="1.0" encoding="iso-8859-1"?>
<!-- Generator: Adobe Illustrator 19.0.0, SVG Export Plug-In . SVG Version: 6.00 Build 0)  -->
<svg version="1.1" id="Capa_1" xmlns="http://www.w3.org/2000/svg" xmlns:xlink="http://www.w3.org/1999/xlink" x="0px" y="0px"
	 viewBox="0 0 512 512" style="enable-background:new 0 0 512 512;" xml:space="preserve">
<g>
	<polygon style="fill:#193651;" points="460.8,371.2 454.4,356.8 490.4,341.6 475.2,305.6 490.4,299.2 511.2,350.4 	"/>
	<path style="fill:#193651;" d="M496,352.8c0,0-5.6-1.6-16-4l4-15.2c9.6,2.4,15.2,4,15.2,4L496,352.8z M464,344
		c-4.8-1.6-9.6-3.2-15.2-4.8l4.8-15.2c5.6,1.6,10.4,3.2,15.2,4.8L464,344z M433.6,333.6c-4.8-1.6-9.6-3.2-15.2-5.6l5.6-15.2
		c5.6,1.6,10.4,4,15.2,5.6L433.6,333.6z M403.2,322.4c-4.8-1.6-9.6-4-15.2-5.6l5.6-15.2c4.8,2.4,10.4,4,14.4,5.6L403.2,322.4z
		 M373.6,310.4c-4.8-2.4-9.6-4-15.2-6.4l6.4-14.4c4.8,2.4,9.6,4,14.4,6.4L373.6,310.4z M344,297.6c-4.8-2.4-9.6-4.8-14.4-7.2
		l7.2-14.4c4.8,2.4,9.6,4.8,14.4,6.4L344,297.6z M314.4,284c-4.8-2.4-9.6-4.8-14.4-7.2l7.2-14.4c4.8,2.4,9.6,4.8,14.4,7.2L314.4,284
		z M285.6,268.8c-4.8-2.4-9.6-4.8-14.4-8l8-13.6c4.8,2.4,9.6,4.8,13.6,7.2L285.6,268.8z M257.6,253.6c-4.8-2.4-9.6-5.6-13.6-8
		l8-13.6c4.8,2.4,8.8,5.6,13.6,8L257.6,253.6z M230.4,236.8c-4.8-3.2-8.8-5.6-13.6-8.8l8.8-13.6c4.8,3.2,8.8,5.6,13.6,8.8
		L230.4,236.8z M203.2,219.2c-4.8-3.2-8.8-5.6-13.6-8.8l8.8-12.8c4,3.2,8.8,5.6,12.8,8.8L203.2,219.2z M176,200.8
		c-4-3.2-8.8-6.4-12.8-9.6l9.6-12.8c4,3.2,8.8,6.4,12.8,9.6L176,200.8z M150.4,181.6c-4-3.2-8.8-6.4-12.8-9.6l9.6-12.8
		c4,3.2,8,6.4,12.8,9.6L150.4,181.6z M124.8,161.6c-4-3.2-8-7.2-12-10.4l10.4-12c4,3.2,8,7.2,12,10.4L124.8,161.6z M100.8,140.8
		c-4-3.2-8-7.2-12-11.2l11.2-12c4,3.2,8,7.2,12,10.4L100.8,140.8z M76.8,119.2c-4-4-8-7.2-11.2-11.2l11.2-12c4,4,7.2,7.2,11.2,11.2
		L76.8,119.2z M53.6,96c-4-4-7.2-8-11.2-12l12-11.2c4,4,7.2,8,11.2,11.2L53.6,96z M32,72.8c-3.2-4-7.2-8-10.4-12l12-10.4
		c3.2,4,7.2,8,10.4,12L32,72.8z M10.4,48C7.2,44,4,40,0.8,35.2l12.8-9.6c3.2,4,6.4,8,9.6,12L10.4,48z"/>
</g>
<path style="fill:#D3D7DA;" d="M495.2,504h-48.8V399.2c16,5.6,32,10.4,48.8,15.2V504z"/>
<path style="fill:#193651;" d="M503.2,512h-64.8V388l10.4,3.2c16.8,5.6,32.8,10.4,48,14.4l5.6,1.6V512H503.2z M454.4,496h32.8v-76
	c-10.4-3.2-21.6-6.4-32.8-9.6V496z"/>
<path style="fill:#D3D7DA;" d="M386.4,504h-48.8V354.4c16,7.2,32,15.2,48.8,21.6V504z"/>
<path style="fill:#193651;" d="M394.4,512h-64.8V341.6l11.2,5.6c16,7.2,32,15.2,48,21.6l4.8,2.4V512H394.4z M345.6,496h32.8V381.6
	c-11.2-4.8-21.6-9.6-32.8-14.4V496z"/>
<path style="fill:#D3D7DA;" d="M276.8,504H228V292.8c15.2,9.6,31.2,20,48.8,29.6V504z"/>
<path style="fill:#193651;" d="M284.8,512H220V278.4l12,8c15.2,9.6,31.2,20,48,28.8l4,2.4V512H284.8z M236.8,496h32.8V327.2
	c-11.2-6.4-21.6-12.8-32.8-19.2V496z"/>
<path style="fill:#D3D7DA;" d="M168,504h-48V212.8c14.4,12,31.2,25.6,48.8,38.4V504H168z"/>
<path style="fill:#193651;" d="M176,512h-64V195.2l12.8,11.2c15.2,12.8,32,25.6,48,38.4l3.2,2.4V512z M128,496h32V255.2
	c-11.2-8-21.6-16.8-32.8-25.6V496H128z"/>
<path style="fill:#D3D7DA;" d="M59.2,157.6V504H10.4V105.6C10.4,105.6,27.2,126.4,59.2,157.6z"/>
<path style="fill:#193651;" d="M67.2,512H2.4V82.4L16.8,100c0,0,16.8,20.8,48,51.2l2.4,2.4C67.2,153.6,67.2,512,67.2,512z M18.4,496
	h32.8V160.8c-13.6-13.6-24.8-25.6-32.8-33.6C18.4,127.2,18.4,496,18.4,496z"/>
<circle style="fill:#FFFFFF;" cx="388" cy="120.8" r="112.8"/>
<path style="fill:#193651;" d="M388,241.6c-66.4,0-120.8-54.4-120.8-120.8S321.6,0,388,0s120.8,54.4,120.8,120.8
	S454.4,241.6,388,241.6z M388,16c-57.6,0-104.8,47.2-104.8,104.8S330.4,225.6,388,225.6s104.8-47.2,104.8-104.8S445.6,16,388,16z"/>
<path style="fill:#27A2DE;" d="M388,201.6c-44.8,0-80.8-36-80.8-80.8S343.2,40,388,40s80.8,36,80.8,80.8S432.8,201.6,388,201.6z"/>
<path style="fill:#FFFFFF;" d="M414.4,140.8c0-14.4-12-26.4-26.4-26.4c-7.2,0-12.8-5.6-12.8-12.8c0-7.2,5.6-12.8,12.8-12.8
	c7.2,0,12.8,5.6,12.8,12.8h13.6c0-12-8-22.4-19.2-24.8V66.4h-13.6V76c-11.2,3.2-19.2,12.8-19.2,24.8c0,14.4,12,26.4,26.4,26.4
	c7.2,0,12.8,5.6,12.8,12.8s-5.6,12.8-12.8,12.8c-7.2,0-12.8-5.6-12.8-12.8h-13.6c0,12,8,22.4,19.2,24.8v9.6h13.6v-9.6
	C405.6,162.4,414.4,152.8,414.4,140.8z"/>
<g>
</g>
<g>
</g>
<g>
</g>
<g>
</g>
<g>
</g>
<g>
</g>
<g>
</g>
<g>
</g>
<g>
</g>
<g>
</g>
<g>
</g>
<g>
</g>
<g>
</g>
<g>
</g>
<g>
</g>
</svg>
