<?xml version="1.0" encoding="UTF-8" standalone="no"?>
<svg
   xmlns:dc="http://purl.org/dc/elements/1.1/"
   xmlns:cc="http://creativecommons.org/ns#"
   xmlns:rdf="http://www.w3.org/1999/02/22-rdf-syntax-ns#"
   xmlns:svg="http://www.w3.org/2000/svg"
   xmlns="http://www.w3.org/2000/svg"
   xmlns:sodipodi="http://sodipodi.sourceforge.net/DTD/sodipodi-0.dtd"
   xmlns:inkscape="http://www.inkscape.org/namespaces/inkscape"
   inkscape:version="1.0.1 (3bc2e813f5, 2020-09-07)"
   sodipodi:docname="NimbelBottom.svg"
   viewBox="0 0 310 310"
   height="310"
   width="310"
   id="svg901"
   version="1.1">
  <metadata
     id="metadata907">
    <rdf:RDF>
      <cc:Work
         rdf:about="">
        <dc:format>image/svg+xml</dc:format>
        <dc:type
           rdf:resource="http://purl.org/dc/dcmitype/StillImage" />
        <dc:title />
      </cc:Work>
    </rdf:RDF>
  </metadata>
  <defs
     id="defs905" />
  <sodipodi:namedview
     inkscape:current-layer="g909"
     inkscape:window-maximized="1"
     inkscape:window-y="0"
     inkscape:window-x="1680"
     inkscape:cy="111.86456"
     inkscape:cx="190.58593"
     inkscape:zoom="2"
     showguides="false"
     showgrid="false"
     id="namedview903"
     inkscape:window-height="1026"
     inkscape:window-width="1920"
     inkscape:pageshadow="2"
     inkscape:pageopacity="0"
     guidetolerance="10"
     gridtolerance="10"
     objecttolerance="10"
     borderopacity="1"
     bordercolor="#666666"
     pagecolor="#ffffff"
     inkscape:document-rotation="0" />
  <g
     id="g909"
     inkscape:label="Image"
     inkscape:groupmode="layer">
    <path
       id="path1638"
       style="color:#000000;font-style:normal;font-variant:normal;font-weight:normal;font-stretch:normal;font-size:medium;line-height:normal;font-family:sans-serif;font-variant-ligatures:normal;font-variant-position:normal;font-variant-caps:normal;font-variant-numeric:normal;font-variant-alternates:normal;font-variant-east-asian:normal;font-feature-settings:normal;font-variation-settings:normal;text-indent:0;text-align:start;text-decoration:none;text-decoration-line:none;text-decoration-style:solid;text-decoration-color:#000000;letter-spacing:normal;word-spacing:normal;text-transform:none;writing-mode:lr-tb;direction:ltr;text-orientation:mixed;dominant-baseline:auto;baseline-shift:baseline;text-anchor:start;white-space:normal;shape-padding:0;shape-margin:0;inline-size:0;clip-rule:nonzero;display:inline;overflow:visible;visibility:visible;isolation:auto;mix-blend-mode:normal;color-interpolation:sRGB;color-interpolation-filters:linearRGB;solid-color:#000000;solid-opacity:1;vector-effect:none;fill:#000000;fill-opacity:1;fill-rule:nonzero;stroke:none;stroke-width:40;stroke-linecap:round;stroke-linejoin:bevel;stroke-miterlimit:4;stroke-dasharray:none;stroke-dashoffset:0;stroke-opacity:1;paint-order:markers fill stroke;color-rendering:auto;image-rendering:auto;shape-rendering:auto;text-rendering:auto;enable-background:accumulate;stop-color:#000000"
       d="M 128.71426,10.029788 C 72.20053,15.312883 27.67382,63.138649 27.67382,120.98752 c 0,26.42914 9.29884,50.76292 24.78304,69.90855 16.66583,0.004 33.3473,0.008 50.05368,0.0102 -25.15927,-13.12913 -42.22898,-39.42361 -42.22898,-69.91871 0,-40.556647 30.1883,-73.686805 69.45143,-78.290495 L 112.89074,25.854771 Z" />
    <path
       id="path1646"
       style="color:#000000;font-style:normal;font-variant:normal;font-weight:normal;font-stretch:normal;font-size:medium;line-height:normal;font-family:sans-serif;font-variant-ligatures:normal;font-variant-position:normal;font-variant-caps:normal;font-variant-numeric:normal;font-variant-alternates:normal;font-variant-east-asian:normal;font-feature-settings:normal;font-variation-settings:normal;text-indent:0;text-align:start;text-decoration:none;text-decoration-line:none;text-decoration-style:solid;text-decoration-color:#000000;letter-spacing:normal;word-spacing:normal;text-transform:none;writing-mode:lr-tb;direction:ltr;text-orientation:mixed;dominant-baseline:auto;baseline-shift:baseline;text-anchor:start;white-space:normal;shape-padding:0;shape-margin:0;inline-size:0;clip-rule:nonzero;display:inline;overflow:visible;visibility:visible;isolation:auto;mix-blend-mode:normal;color-interpolation:sRGB;color-interpolation-filters:linearRGB;solid-color:#000000;solid-opacity:1;vector-effect:none;fill:#000000;fill-opacity:1;fill-rule:nonzero;stroke:none;stroke-width:50;stroke-linecap:round;stroke-linejoin:bevel;stroke-miterlimit:4;stroke-dasharray:none;stroke-dashoffset:0;stroke-opacity:1;paint-order:markers fill stroke;color-rendering:auto;image-rendering:auto;shape-rendering:auto;text-rendering:auto;enable-background:accumulate;stop-color:#000000"
       d="M 148.03906 -0.37890625 L 121.80664 25.855469 L 148.03906 52.087891 L 148.03906 42.146484 C 191.77548 42.146484 226.88086 77.251852 226.88086 120.98828 C 226.88086 164.72341 191.77757 199.82798 148.04297 199.83008 C 148.04166 199.83008 148.04037 199.83008 148.03906 199.83008 C 102.03754 199.83003 56.212582 199.8188 10.496094 199.80273 L 27.783203 216.12109 L 10.523438 232.41016 C 56.308084 232.42223 102.063 232.43744 148.03906 232.4375 C 148.04037 232.4375 148.04166 232.4375 148.04297 232.4375 C 148.14353 232.4375 148.24319 232.4375 148.34375 232.4375 L 148.34375 232.43359 C 209.56325 232.26775 259.48828 182.24523 259.48828 120.98828 C 259.48828 59.629526 209.39781 9.5371094 148.03906 9.5371094 L 148.03906 -0.37890625 z " />
    <path
       id="path1701"
       style="color:#000000;font-style:normal;font-variant:normal;font-weight:normal;font-stretch:normal;font-size:medium;line-height:normal;font-family:sans-serif;font-variant-ligatures:normal;font-variant-position:normal;font-variant-caps:normal;font-variant-numeric:normal;font-variant-alternates:normal;font-variant-east-asian:normal;font-feature-settings:normal;font-variation-settings:normal;text-indent:0;text-align:start;text-decoration:none;text-decoration-line:none;text-decoration-style:solid;text-decoration-color:#000000;letter-spacing:normal;word-spacing:normal;text-transform:none;writing-mode:lr-tb;direction:ltr;text-orientation:mixed;dominant-baseline:auto;baseline-shift:baseline;text-anchor:start;white-space:normal;shape-padding:0;shape-margin:0;inline-size:0;clip-rule:nonzero;display:inline;overflow:visible;visibility:visible;isolation:auto;mix-blend-mode:normal;color-interpolation:sRGB;color-interpolation-filters:linearRGB;solid-color:#000000;solid-opacity:1;vector-effect:none;fill:#000000;fill-opacity:1;fill-rule:nonzero;stroke:none;stroke-width:40;stroke-linecap:round;stroke-linejoin:bevel;stroke-miterlimit:4;stroke-dasharray:none;stroke-dashoffset:0;stroke-opacity:1;paint-order:markers fill stroke;color-rendering:auto;image-rendering:auto;shape-rendering:auto;text-rendering:auto;enable-background:accumulate;stop-color:#000000"
       d="m 273.27088,189.91363 v 9.94195 c -11.25396,0 -22.41497,-0.006 -33.64823,-0.007 -12.81902,14.76819 -29.44289,26.15296 -48.31517,32.59903 27.29697,0.007 54.55953,0.016 81.9634,0.016 v 9.91583 l 26.23276,-26.23276 z" />
    <g
       transform="matrix(1.5778638,0,0,1.5900768,-57.886805,50.329279)"
       style="font-style:normal;font-variant:normal;font-weight:normal;font-stretch:normal;font-size:52px;line-height:1.25;font-family:Gayathri;-inkscape-font-specification:'Gayathri, Normal';font-variant-ligatures:normal;font-variant-caps:normal;font-variant-numeric:normal;font-variant-east-asian:normal;fill:#000000;fill-opacity:1;stroke:#000000;stroke-width:0.63133;stroke-opacity:0.5"
       id="text1781"
       aria-label="Nimbel">
      <path
         style="stroke-width:0.63133"
         id="path1789"
         d="m 87.732422,162.52148 c 0.83789,0 2.564453,-0.33007 2.564453,-1.37109 v -33.49023 c 0,-0.43164 -0.685547,-0.8125 -1.498047,-0.8125 -0.837891,0 -1.498047,0.38086 -1.498047,0.8125 v 29.37695 l -21.53125,-29.37695 c -0.380859,-0.50782 -1.320312,-0.8125 -2.335937,-0.8125 -0.888672,0 -2.539063,0.30468 -2.539063,1.42187 v 33.46484 c 0,0.43165 0.685547,0.78711 1.498047,0.78711 0.837891,0 1.498047,-0.35546 1.498047,-0.78711 v -29.40234 l 21.53125,29.37695 c 0.380859,0.50782 1.294922,0.8125 2.310547,0.8125 z" />
      <path
         style="stroke-width:0.63133"
         id="path1791"
         d="m 97.025391,129.08203 c -1.269532,0 -2.285157,1.01563 -2.285157,2.28516 0,1.26953 1.015625,2.28515 2.285157,2.28515 1.269531,0 2.285156,-1.01562 2.285156,-2.28515 0,-1.26953 -1.015625,-2.28516 -2.285156,-2.28516 z m -2.082032,8.58203 v 23.68946 c 0,0.63476 0.939453,1.16796 2.082032,1.16796 1.142578,0 2.082031,-0.5332 2.082031,-1.16796 v -23.68946 c 0,-0.63476 -0.939453,-1.14258 -2.082031,-1.14258 -1.142579,0 -2.082032,0.50782 -2.082032,1.14258 z" />
      <path
         style="stroke-width:0.63133"
         id="path1793"
         d="m 140.39258,162.52148 c 1.14258,0 2.08203,-0.50781 2.08203,-1.14257 V 147.8457 c 0,-6.52539 -4.16406,-11.32422 -10.71484,-11.32422 -3.45313,0 -6.42383,1.06641 -8.32813,4.24024 -1.92969,-2.86914 -4.62109,-4.24024 -8.07422,-4.24024 -2.79297,0 -5.83984,0.96485 -7.46484,3.93555 v -2.79297 c 0,-0.63476 -0.91406,-1.14258 -2.05664,-1.14258 -1.14258,0 -2.08203,0.50782 -2.08203,1.14258 v 23.68946 c 0,0.66015 0.93945,1.16796 2.08203,1.16796 1.14258,0 2.05664,-0.50781 2.05664,-1.16796 V 148.6582 c 0,-4.44336 1.72656,-9.75 6.65234,-9.75 4.97656,0 6.52539,4.64649 6.52539,8.9375 v 13.53321 c 0,0.63476 0.91407,1.14257 2.05664,1.14257 1.14258,0 2.08203,-0.50781 2.08203,-1.14257 V 147.8457 c 0,-4.21484 1.59961,-8.9375 6.52539,-8.9375 4.95118,0 6.60157,4.64649 6.60157,8.9375 v 13.53321 c 0,0.63476 0.91406,1.14257 2.05664,1.14257 z" />
      <path
         style="stroke-width:0.63133"
         id="path1795"
         d="m 160.04492,136.49609 c -3.68164,0 -6.85547,1.67578 -8.35351,3.8086 v -12.31446 c 0,-0.63476 -0.91407,-1.14257 -2.05664,-1.14257 -1.14258,0 -2.08204,0.50781 -2.08204,1.14257 v 33.38868 c 0,0.63476 0.93946,1.14257 2.08204,1.14257 1.14257,0 2.05664,-0.50781 2.05664,-1.14257 v -2.69141 c 1.49804,2.13281 4.67187,3.80859 8.35351,3.80859 7.74414,0 12.49219,-5.63672 12.49219,-13 0,-7.36328 -4.74805,-13 -12.49219,-13 z m 0,2.31055 c 5.63672,0 8.35352,5.76367 8.35352,10.68945 0,4.92578 -2.7168,10.68946 -8.35352,10.68946 -5.63672,0 -8.35351,-5.76368 -8.35351,-10.68946 0,-4.92578 2.71679,-10.68945 8.35351,-10.68945 z" />
      <path
         style="stroke-width:0.63133"
         id="path1797"
         d="m 188.2793,162.52148 c 3.09765,0 6.37304,-0.8125 8.96289,-2.53906 1.54883,-1.01562 2.6914,-2.28515 3.35156,-3.65625 0.25391,-0.5332 0.55859,-1.39648 0.55859,-1.98047 0,-0.86328 -1.44726,-1.14258 -2.08203,-1.14258 -1.09179,0 -1.95508,0.48243 -2.03125,1.0918 -0.15234,1.54883 -1.26953,3.04688 -2.9707,4.18945 -1.67578,1.14258 -3.75781,1.72657 -5.76367,1.72657 -5.89063,0 -9.11524,-5.20508 -9.11524,-10.61328 h 20.38867 c 0.91407,0 2.05665,-0.30469 2.05665,-1.3711 0,-7.66797 -5.86524,-11.70508 -13.15235,-11.70508 -7.76953,0 -13.40625,5.35743 -13.40625,13.20313 0,7.74414 5.58594,12.79687 13.20313,12.79687 z m 9.1914,-15.25976 h -18.05273 c 0.86328,-4.57031 4.13867,-8.42969 9.06445,-8.42969 5.17969,0 8.60742,3.35156 8.98828,8.42969 z" />
      <path
         style="stroke-width:0.63133"
         id="path1799"
         d="m 204.80859,127.99023 v 33.38868 c 0,0.63476 0.91407,1.14257 2.08203,1.14257 1.14258,0 2.05665,-0.50781 2.05665,-1.14257 v -33.38868 c 0,-0.63476 -0.91407,-1.14257 -2.05665,-1.14257 -1.16796,0 -2.08203,0.50781 -2.08203,1.14257 z" />
    </g>
  </g>
</svg>
