<?xml version="1.0" encoding="UTF-8"?>
<svg width="500px" height="500px" viewBox="0 0 500 500" version="1.1" xmlns="http://www.w3.org/2000/svg" xmlns:xlink="http://www.w3.org/1999/xlink">
    <!-- Generator: Sketch 45.2 (43514) - http://www.bohemiancoding.com/sketch -->
    <title>gatsby-arcticls</title>
    <desc>Created with Sketch.</desc>
    <defs/>
    <g id="Page-1" stroke="none" stroke-width="1" fill="none" fill-rule="evenodd">
        <g id="gatsby-arcticls" fill-rule="nonzero">
            <path d="M446.428571,250 L321.428571,250 L321.428571,285.714286 L407.142857,285.714286 C394.642857,339.285714 355.357143,383.928571 303.571429,401.785714 L98.2142857,196.428571 C119.642857,133.928571 180.357143,89.2857143 250,89.2857143 C303.571429,89.2857143 351.785714,116.071429 382.142857,157.142857 L408.928571,133.928571 C373.214286,85.7142857 316.071429,53.5714286 250,53.5714286 C157.142857,53.5714286 78.5714286,119.642857 58.9285714,207.142857 L294.642857,442.857143 C380.357143,421.428571 446.428571,342.857143 446.428571,250 Z M53.5714286,251.785714 C53.5714286,301.785714 73.2142857,350 110.714286,387.5 C148.214286,425 198.214286,444.642857 246.428571,444.642857 L53.5714286,251.785714 Z" id="Shape" fill="#FFFFFF"/>
            <path d="M250,0 C112.5,0 0,112.5 0,250 C0,387.5 112.5,500 250,500 C387.5,500 500,387.5 500,250 C500,112.5 387.5,0 250,0 Z M110.714286,389.285714 C73.2142857,351.785714 53.5714286,301.785714 53.5714286,253.571429 L248.214286,446.428571 C198.214286,444.642857 148.214286,426.785714 110.714286,389.285714 Z M292.857143,441.071429 L58.9285714,207.142857 C78.5714286,119.642857 157.142857,53.5714286 250,53.5714286 C316.071429,53.5714286 373.214286,85.7142857 408.928571,133.928571 L382.142857,157.142857 C351.785714,116.071429 303.571429,89.2857143 250,89.2857143 C180.357143,89.2857143 121.428571,133.928571 98.2142857,196.428571 L303.571429,401.785714 C355.357143,383.928571 394.642857,339.285714 407.142857,285.714286 L321.428571,285.714286 L321.428571,250 L446.428571,250 C446.428571,342.857143 380.357143,421.428571 292.857143,441.071429 Z" id="Shape" fill="#663399"/>
        </g>
    </g>
</svg>