<?xml version="1.0" encoding="UTF-8" standalone="no"?>
<svg
   xmlns:dc="http://purl.org/dc/elements/1.1/"
   xmlns:cc="http://creativecommons.org/ns#"
   xmlns:rdf="http://www.w3.org/1999/02/22-rdf-syntax-ns#"
   xmlns:svg="http://www.w3.org/2000/svg"
   xmlns="http://www.w3.org/2000/svg"
   xmlns:sodipodi="http://sodipodi.sourceforge.net/DTD/sodipodi-0.dtd"
   xmlns:inkscape="http://www.inkscape.org/namespaces/inkscape"
   inkscape:version="1.0 (4035a4fb49, 2020-05-01)"
   sodipodi:docname="heroku.svg"
   id="svg6"
   version="1.1"
   preserveAspectRatio="xMinYMin meet"
   viewBox="0 0 32 32"
   height="200"
   width="200">
  <metadata
     id="metadata12">
    <rdf:RDF>
      <cc:Work
         rdf:about="">
        <dc:format>image/svg+xml</dc:format>
        <dc:type
           rdf:resource="http://purl.org/dc/dcmitype/StillImage" />
        <dc:title></dc:title>
      </cc:Work>
    </rdf:RDF>
  </metadata>
  <defs
     id="defs10" />
  <sodipodi:namedview
     inkscape:current-layer="svg6"
     inkscape:window-maximized="1"
     inkscape:window-y="0"
     inkscape:window-x="1680"
     inkscape:cy="154.4834"
     inkscape:cx="303.11873"
     inkscape:zoom="1.9323814"
     showgrid="false"
     id="namedview8"
     inkscape:window-height="1026"
     inkscape:window-width="1920"
     inkscape:pageshadow="2"
     inkscape:pageopacity="0"
     guidetolerance="10"
     gridtolerance="10"
     objecttolerance="10"
     borderopacity="1"
     bordercolor="#666666"
     pagecolor="#ffffff" />
  <g
     transform="matrix(0.10072357,0,0,0.10072357,3.1130739,0)"
     id="g859">
    <path
       id="path853"
       fill="#6762a6"
       d="M 225.628,317.253 H 30.258 C 13.545,317.253 0,303.708 0,286.998 V 30.256 C 0,13.546 13.546,0 30.257,0 h 195.37 c 16.71,0 30.26,13.546 30.26,30.256 v 256.742 c 0,16.71 -13.55,30.255 -30.26,30.255 z" />
    <path
       d="M 160.36,273.6 V 147.61 c 0,0 8.195,-30.15 -100.943,12.334 -0.2,0.539 -0.2,-116.504 -0.2,-116.504 l 35.66,-0.22 v 74.991 c 0,0 99.846,-39.325 99.846,29.824 V 273.6 H 160.361 Z M 180.68,88.606 h -37.824 c 13.615,-16.646 25.94,-45.167 25.94,-45.167 h 39.11 c 0,0 -6.696,18.587 -27.225,45.167 z M 59.865,273.382 v -71.748 l 35.878,35.877 z"
       fill="#ffffff"
       id="path4" />
  </g>
</svg>
