<?xml version="1.0" encoding="UTF-8" standalone="no"?>
<svg
   xmlns:dc="http://purl.org/dc/elements/1.1/"
   xmlns:cc="http://creativecommons.org/ns#"
   xmlns:rdf="http://www.w3.org/1999/02/22-rdf-syntax-ns#"
   xmlns:svg="http://www.w3.org/2000/svg"
   xmlns="http://www.w3.org/2000/svg"
   xmlns:sodipodi="http://sodipodi.sourceforge.net/DTD/sodipodi-0.dtd"
   xmlns:inkscape="http://www.inkscape.org/namespaces/inkscape"
   inkscape:version="1.0 (4035a4fb49, 2020-05-01)"
   sodipodi:docname="mongodb.svg"
   id="svg8"
   version="1.1"
   viewBox="0 0 26 26">
  <metadata
     id="metadata14">
    <rdf:RDF>
      <cc:Work
         rdf:about="">
        <dc:format>image/svg+xml</dc:format>
        <dc:type
           rdf:resource="http://purl.org/dc/dcmitype/StillImage" />
        <dc:title></dc:title>
      </cc:Work>
    </rdf:RDF>
  </metadata>
  <defs
     id="defs12" />
  <sodipodi:namedview
     inkscape:current-layer="svg8"
     inkscape:window-maximized="1"
     inkscape:window-y="0"
     inkscape:window-x="1680"
     inkscape:cy="5.330098"
     inkscape:cx="20.535898"
     inkscape:zoom="14.769231"
     showgrid="false"
     id="namedview10"
     inkscape:window-height="1026"
     inkscape:window-width="1920"
     inkscape:pageshadow="2"
     inkscape:pageopacity="0"
     guidetolerance="10"
     gridtolerance="10"
     objecttolerance="10"
     borderopacity="1"
     bordercolor="#666666"
     pagecolor="#ffffff" />
  <g
     transform="translate(7.0474926)"
     id="g842">
    <path
       d="M 11.7,10.4 C 10.3,4.3 7.4,2.7 6.7,1.6 6.3,1.1 6.1,0.5 5.8,0 5.8,0.5 5.7,0.9 5.3,1.3 4.3,2.1 0.4,5.3 0,12.2 -0.3,18.7 4.8,22.6 5.5,23 6,23.3 6.7,23 7,22.8 9.4,21.1 12.8,16.7 11.7,10.4"
       fill="#10aa50"
       id="path2" />
    <path
       d="m 6,19.5 c -0.2,1.6 -0.3,2.5 -0.6,3.4 0,0 0.2,1.5 0.4,3.1 H 6.3 C 6.5,24.9 6.7,23.8 6.9,22.7 6.2,22.3 6,20.9 6,19.5 Z"
       fill="#b8c4c2"
       id="path4" />
    <path
       d="m 7,22.8 v 0 C 6.3,22.4 6.1,20.9 6.1,19.6 6.3,17.3 6.3,15 6.3,12.6 6.2,11.4 6.3,1.5 6,0 c 0.2,0.5 0.4,1 0.7,1.4 0.7,1.2 3.6,2.8 5,8.9 1.1,6.3 -2.2,10.8 -4.7,12.5 z"
       fill="#12924f"
       id="path6" />
  </g>
</svg>
