<?xml version="1.0" encoding="UTF-8" standalone="no"?>
<svg
   xmlns:dc="http://purl.org/dc/elements/1.1/"
   xmlns:cc="http://creativecommons.org/ns#"
   xmlns:rdf="http://www.w3.org/1999/02/22-rdf-syntax-ns#"
   xmlns:svg="http://www.w3.org/2000/svg"
   xmlns="http://www.w3.org/2000/svg"
   xmlns:xlink="http://www.w3.org/1999/xlink"
   xmlns:sodipodi="http://sodipodi.sourceforge.net/DTD/sodipodi-0.dtd"
   xmlns:inkscape="http://www.inkscape.org/namespaces/inkscape"
   viewBox="0 0 166.6875 166.68751"
   version="1.1"
   id="svg8"
   inkscape:version="1.0 (4035a4fb49, 2020-05-01)"
   sodipodi:docname="serverless.svg">
  <defs
     id="defs2">
    <path
       id="path-1"
       d="M 1.2527344,280.73164 2.8583453,277.60086 102.21118,89.083355 58.061327,5.6082033 C 54.392001,-1.2830458 45.074125,0.4736744 43.86992,8.1878909 Z" />
    <filter
       id="filter-2"
       filterUnits="objectBoundingBox"
       height="2"
       width="2"
       y="-0.5"
       x="-0.5">
      <feGaussianBlur
         id="feGaussianBlur845"
         result="shadowBlurInner1"
         in="SourceAlpha"
         stdDeviation="17.5" />
      <feOffset
         id="feOffset847"
         result="shadowOffsetInner1"
         in="shadowBlurInner1"
         dy="0"
         dx="0" />
      <feComposite
         id="feComposite849"
         result="shadowInnerInner1"
         k3="1"
         k2="-1"
         operator="arithmetic"
         in2="SourceAlpha"
         in="shadowOffsetInner1"
         k1="0"
         k4="0" />
      <feColorMatrix
         id="feColorMatrix851"
         in="shadowInnerInner1"
         type="matrix"
         values="0 0 0 0 0   0 0 0 0 0   0 0 0 0 0  0 0 0 0.06 0" />
    </filter>
    <path
       id="path-3"
       d="M 134.4171,148.97423 166.45572,116.16174 134.4171,55.154687 c -3.04227,-5.791096 -10.43319,-6.397851 -13.44327,-0.590039 l -17.70508,34.109182 -0.52933,1.743717 z" />
    <filter
       id="filter-4"
       filterUnits="objectBoundingBox"
       height="2"
       width="2"
       y="-0.5"
       x="-0.5">
      <feGaussianBlur
         id="feGaussianBlur855"
         result="shadowBlurInner1"
         in="SourceAlpha"
         stdDeviation="3.5" />
      <feOffset
         id="feOffset857"
         result="shadowOffsetInner1"
         in="shadowBlurInner1"
         dy="-9"
         dx="1" />
      <feComposite
         id="feComposite859"
         result="shadowInnerInner1"
         k3="1"
         k2="-1"
         operator="arithmetic"
         in2="SourceAlpha"
         in="shadowOffsetInner1"
         k1="0"
         k4="0" />
      <feColorMatrix
         id="feColorMatrix861"
         in="shadowInnerInner1"
         type="matrix"
         values="0 0 0 0 0   0 0 0 0 0   0 0 0 0 0  0 0 0 0.09 0" />
    </filter>
  </defs>
  <sodipodi:namedview
     id="base"
     pagecolor="#ffffff"
     bordercolor="#666666"
     borderopacity="1.0"
     inkscape:pageopacity="0.0"
     inkscape:pageshadow="2"
     inkscape:zoom="2.8"
     inkscape:cx="90.339906"
     inkscape:cy="150.24022"
     inkscape:document-units="mm"
     inkscape:current-layer="layer1"
     inkscape:document-rotation="0"
     showgrid="false"
     units="px"
     fit-margin-top="0"
     fit-margin-left="0"
     fit-margin-right="0"
     fit-margin-bottom="0"
     inkscape:window-width="1920"
     inkscape:window-height="1026"
     inkscape:window-x="1680"
     inkscape:window-y="0"
     inkscape:window-maximized="1" />
  <metadata
     id="metadata5">
    <rdf:RDF>
      <cc:Work
         rdf:about="">
        <dc:format>image/svg+xml</dc:format>
        <dc:type
           rdf:resource="http://purl.org/dc/dcmitype/StillImage" />
        <dc:title />
      </cc:Work>
    </rdf:RDF>
  </metadata>
  <g
     inkscape:label="Layer 1"
     inkscape:groupmode="layer"
     id="layer1"
     transform="translate(-18.258483,-1.4935465)">
    <g
       id="g890"
       transform="matrix(0.26458333,0,0,0.26458333,71.646979,16.36717)">
      <path
         id="path866"
         fill="#ffc24a"
         d="M 0,282.99762 2.1225075,280.0256 102.52736,89.511928 102.73942,87.495132 58.478806,4.3581771 C 54.770627,-2.6060418 44.331303,-0.84524577 43.114348,6.9506547 Z" />
      <g
         id="g872">
        <use
           id="use868"
           xlink:href="#path-1"
           fill-rule="evenodd"
           fill="#ffa712"
           x="0"
           y="0"
           width="100%"
           height="100%" />
        <use
           id="use870"
           xlink:href="#path-1"
           filter="url(#filter-2)"
           fill-opacity="1"
           fill="#000000"
           x="0"
           y="0"
           width="100%"
           height="100%" />
      </g>
      <path
         id="path874"
         fill="#f4bd62"
         d="M 135.00497,150.3807 167.9602,116.62946 134.99542,53.699311 c -3.12931,-5.956776 -11.8666,-5.97397 -14.9628,0 l -17.61161,33.588774 v 2.860659 z" />
      <g
         id="g880">
        <use
           id="use876"
           xlink:href="#path-3"
           fill-rule="evenodd"
           fill="#ffa50e"
           x="0"
           y="0"
           width="100%"
           height="100%" />
        <use
           id="use878"
           xlink:href="#path-3"
           filter="url(#filter-4)"
           fill-opacity="1"
           fill="#000000"
           x="0"
           y="0"
           width="100%"
           height="100%" />
      </g>
      <polygon
         id="polygon882"
         points="0.96209717,282.0304 4.4577114,280.60956 132.93532,152.60956 134.56303,148.1786 102.51312,87.104858 0,282.99762 "
         fill="#f6820c" />
      <path
         id="path884"
         fill="#fde068"
         d="M 139.12097,347.55127 255.39592,282.70367 222.1917,78.209337 c -1.03865,-6.398089 -8.88804,-8.927522 -13.46739,-4.3399 L 2.5472637e-4,282.99788 115.60845,347.54554 c 7.30619,4.07944 16.20442,4.08135 23.51252,0.006" />
      <path
         id="path886"
         fill="#fcca3f"
         d="M 254.35408,282.15984 221.40194,79.217937 c -1.03077,-6.349518 -7.55815,-8.976982 -12.10273,-4.424187 L 1.2894531,282.60078 115.62783,346.50946 c 7.25072,4.04847 16.0814,4.05037 23.33402,0.006 z" />
      <path
         id="path888"
         fill="#eeab37"
         d="m 139.12091,345.64082 c -7.3081,4.07562 -16.20633,4.07371 -23.51252,-0.006 L 0.93134768,282.01455 1.9104478e-4,282.99788 115.60839,347.54554 c 7.30619,4.07944 16.20442,4.08135 23.51252,0.006 l 116.27494,-64.8476 -0.28465,-1.75189 z" />
    </g>
    <g
       id="g933"
       transform="matrix(0.26458333,0,0,0.26458333,19.592249,89.368241)">
      <path
         id="path925"
         d="m 86.4,66.4 c 0,3.7 0.4,6.7 1.1,8.9 0.8,2.2 1.8,4.6 3.2,7.2 0.5,0.8 0.7,1.6 0.7,2.3 0,1 -0.6,2 -1.9,3 L 83.2,92 c -0.9,0.6 -1.8,0.9 -2.6,0.9 -1,0 -2,-0.5 -3,-1.4 C 76.2,90 75,88.4 74,86.8 73,85.1 72,83.2 70.9,80.9 63.1,90.1 53.3,94.7 41.5,94.7 c -8.4,0 -15.1,-2.4 -20,-7.2 -4.9,-4.8 -7.4,-11.2 -7.4,-19.2 0,-8.5 3,-15.4 9.1,-20.6 6.1,-5.2 14.2,-7.8 24.5,-7.8 3.4,0 6.9,0.3 10.6,0.8 3.7,0.5 7.5,1.3 11.5,2.2 V 35.6 C 69.8,28 68.2,22.7 65.1,19.6 61.9,16.5 56.5,15 48.8,15 c -3.5,0 -7.1,0.4 -10.8,1.3 -3.7,0.9 -7.3,2 -10.8,3.4 -1.6,0.7 -2.8,1.1 -3.5,1.3 -0.7,0.2 -1.2,0.3 -1.6,0.3 -1.4,0 -2.1,-1 -2.1,-3.1 V 13.3 C 20,11.7 20.2,10.5 20.7,9.8 21.2,9.1 22.1,8.4 23.5,7.7 27,5.9 31.2,4.4 36.1,3.2 41,1.9 46.2,1.3 51.7,1.3 63.6,1.3 72.3,4 77.9,9.4 83.4,14.8 86.2,23 86.2,34 V 66.4 Z M 45.8,81.6 c 3.3,0 6.7,-0.6 10.3,-1.8 3.6,-1.2 6.8,-3.4 9.5,-6.4 1.6,-1.9 2.8,-4 3.4,-6.4 0.6,-2.4 1,-5.3 1,-8.7 v -4.2 c -2.9,-0.7 -6,-1.3 -9.2,-1.7 -3.2,-0.4 -6.3,-0.6 -9.4,-0.6 -6.7,0 -11.6,1.3 -14.9,4 -3.3,2.7 -4.9,6.5 -4.9,11.5 0,4.7 1.2,8.2 3.7,10.6 2.4,2.5 5.9,3.7 10.5,3.7 z m 80.3,10.8 c -1.8,0 -3,-0.3 -3.8,-1 -0.8,-0.6 -1.5,-2 -2.1,-3.9 L 96.7,10.2 c -0.6,-2 -0.9,-3.3 -0.9,-4 0,-1.6 0.8,-2.5 2.4,-2.5 h 9.8 c 1.9,0 3.2,0.3 3.9,1 0.8,0.6 1.4,2 2,3.9 l 16.8,66.2 15.6,-66.2 c 0.5,-2 1.1,-3.3 1.9,-3.9 0.8,-0.6 2.2,-1 4,-1 h 8 c 1.9,0 3.2,0.3 4,1 0.8,0.6 1.5,2 1.9,3.9 l 15.8,67 17.3,-67 c 0.6,-2 1.3,-3.3 2,-3.9 0.8,-0.6 2.1,-1 3.9,-1 h 9.3 c 1.6,0 2.5,0.8 2.5,2.5 0,0.5 -0.1,1 -0.2,1.6 -0.1,0.6 -0.3,1.4 -0.7,2.5 l -24.1,77.3 c -0.6,2 -1.3,3.3 -2.1,3.9 -0.8,0.6 -2.1,1 -3.8,1 h -8.6 c -1.9,0 -3.2,-0.3 -4,-1 -0.8,-0.7 -1.5,-2 -1.9,-4 L 156,23 140.6,87.4 c -0.5,2 -1.1,3.3 -1.9,4 -0.8,0.7 -2.2,1 -4,1 z m 128.5,2.7 c -5.2,0 -10.4,-0.6 -15.4,-1.8 -5,-1.2 -8.9,-2.5 -11.5,-4 -1.6,-0.9 -2.7,-1.9 -3.1,-2.8 -0.4,-0.9 -0.6,-1.9 -0.6,-2.8 v -5.1 c 0,-2.1 0.8,-3.1 2.3,-3.1 0.6,0 1.2,0.1 1.8,0.3 0.6,0.2 1.5,0.6 2.5,1 3.4,1.5 7.1,2.7 11,3.5 4,0.8 7.9,1.2 11.9,1.2 6.3,0 11.2,-1.1 14.6,-3.3 3.4,-2.2 5.2,-5.4 5.2,-9.5 0,-2.8 -0.9,-5.1 -2.7,-7 -1.8,-1.9 -5.2,-3.6 -10.1,-5.2 L 246,52 c -7.3,-2.3 -12.7,-5.7 -16,-10.2 -3.3,-4.4 -5,-9.3 -5,-14.5 0,-4.2 0.9,-7.9 2.7,-11.1 1.8,-3.2 4.2,-6 7.2,-8.2 3,-2.3 6.4,-4 10.4,-5.2 4,-1.2 8.2,-1.7 12.6,-1.7 2.2,0 4.5,0.1 6.7,0.4 2.3,0.3 4.4,0.7 6.5,1.1 2,0.5 3.9,1 5.7,1.6 1.8,0.6 3.2,1.2 4.2,1.8 1.4,0.8 2.4,1.6 3,2.5 0.6,0.8 0.9,1.9 0.9,3.3 v 4.7 c 0,2.1 -0.8,3.2 -2.3,3.2 -0.8,0 -2.1,-0.4 -3.8,-1.2 -5.7,-2.6 -12.1,-3.9 -19.2,-3.9 -5.7,0 -10.2,0.9 -13.3,2.8 -3.1,1.9 -4.7,4.8 -4.7,8.9 0,2.8 1,5.2 3,7.1 2,1.9 5.7,3.8 11,5.5 l 14.2,4.5 c 7.2,2.3 12.4,5.5 15.5,9.6 3.1,4.1 4.6,8.8 4.6,14 0,4.3 -0.9,8.2 -2.6,11.6 -1.8,3.4 -4.2,6.4 -7.3,8.8 -3.1,2.5 -6.8,4.3 -11.1,5.6 -4.5,1.4 -9.2,2.1 -14.3,2.1 z"
         class="st0" />
      <g
         id="g931">
        <path
           id="path927"
           d="M 273.5,143.7 C 240.6,168 192.8,180.9 151.7,180.9 94.1,180.9 42.2,159.6 3,124.2 c -3.1,-2.8 -0.3,-6.6 3.4,-4.4 42.4,24.6 94.7,39.5 148.8,39.5 36.5,0 76.6,-7.6 113.5,-23.2 5.5,-2.5 10.2,3.6 4.8,7.6 z"
           class="st1" />
        <path
           id="path929"
           d="m 287.2,128.1 c -4.2,-5.4 -27.8,-2.6 -38.5,-1.3 -3.2,0.4 -3.7,-2.4 -0.8,-4.5 18.8,-13.2 49.7,-9.4 53.3,-5 3.6,4.5 -1,35.4 -18.6,50.2 -2.7,2.3 -5.3,1.1 -4.1,-1.9 4,-9.9 12.9,-32.2 8.7,-37.5 z"
           class="st1" />
      </g>
    </g>
    <path
       d="m 156.6634,110.36194 -16.61186,-3.47139 c -0.0709,0.13547 -0.14711,0.2667 -0.23178,0.39053 l 15.12276,22.06024 0.9123,-0.91123 2.57285,-15.99908 c -0.87526,-0.36725 -1.53355,-1.13455 -1.76427,-2.06907 z m -6.06011,-21.715229 c -0.62231,0.95463 -1.69654,1.58647 -2.91999,1.58647 -0.18838,0 -0.37148,-0.019 -0.5514,-0.0476 l -7.57567,11.853519 20.23989,-8.710219 c -0.006,-0.0815 -0.0243,-0.1577 -0.0243,-0.2413 0,-0.1704 0.0233,-0.3355 0.0508,-0.49849 z m 0.55034,-2.16009 9.80667,4.19318 c 0.3101,-0.24236 0.66359,-0.42228 1.052,-0.53129 l 1.61187,-10.02258 -6.14055,-6.140548 -6.91208,10.815288 c 0.33126,0.48896 0.53658,1.0647 0.58209,1.68595 z m 20.54892,1.7177 -6.1543,-6.15537 -1.33776,8.31017 c 0.34079,0.17251 0.64454,0.40218 0.89854,0.6837 z m -14.74493,19.968949 c 0.47944,-0.86679 1.36422,-1.46582 2.40457,-1.54625 l 1.76745,-10.993079 c -0.13865,-0.0921 -0.26247,-0.20215 -0.38418,-0.31539 l -20.3563,8.761019 c 0.0519,0.21273 0.0878,0.42969 0.10477,0.65512 z m 16.42136,-18.291459 -7.12058,3.06392 17.56861,7.511109 0.0635,-0.0635 z m -12.72454,22.582009 -2.13999,13.30452 12.42609,-12.42609 -8.95046,-1.86905 c -0.34185,0.44557 -0.80012,0.79059 -1.33564,0.99062 z m -24.1526,-3.42059 c -0.4498,0 -0.88055,-0.0773 -1.28378,-0.21378 l -4.12757,6.4591 -1.59493,-1.59387 3.90954,-6.11726 c -0.0974,-0.1196 -0.18627,-0.24554 -0.26987,-0.37466 l -7.08248,3.04911 -1.67854,-1.67855 7.75241,-3.33697 -14.01573,-2.92528 -1.91667,-1.91773 0.60643,-0.606439 16.16206,3.374019 c 0.18733,-0.35349 0.42546,-0.6784 0.70592,-0.95674 l -7.84449,-11.441829 1.58435,-1.58435 8.19587,11.955119 c 0.28892,-0.0656 0.58844,-0.10477 0.89748,-0.10477 0.34608,0 0.68157,0.0487 1.00225,0.13123 l 7.66881,-11.999569 c -0.60115,-0.62654 -0.97263,-1.47534 -0.97263,-2.41198 0,-0.27517 0.0349,-0.54187 0.0952,-0.79799 l -9.56748,-4.09053 1.67854,-1.67855 9.06477,3.87674 c 0.6022,-0.49531 1.37268,-0.79271 2.21301,-0.79271 0.39688,0 0.77789,0.0698 1.13455,0.19262 l 7.07084,-11.066098 -5.86538,-5.86538 -33.86719,33.867207 33.86719,33.86719 3.33275,-3.33274 -15.23601,-22.22746 c -0.49636,0.21907 -1.04353,0.3429 -1.61927,0.3429 z M 163.2855,96.108081 161.48736,107.2832 c 0.61913,0.49954 1.03189,1.23086 1.11021,2.06695 l 10.20567,2.13046 9.34523,-9.34523 -16.86798,-7.211589 c -0.47309,0.62865 -1.18006,1.0647 -1.99499,1.18429 z"
       fill="#25c7b7"
       id="path948"
       style="stroke-width:0.264583" />
  </g>
  <style
     id="style923"
     type="text/css">
	.st0{fill:#252F3E;}
	.st1{fill-rule:evenodd;clip-rule:evenodd;fill:#FF9900;}
</style>
</svg>
