<?xml version="1.0" encoding="UTF-8" standalone="no"?>
<svg
   xmlns:dc="http://purl.org/dc/elements/1.1/"
   xmlns:cc="http://creativecommons.org/ns#"
   xmlns:rdf="http://www.w3.org/1999/02/22-rdf-syntax-ns#"
   xmlns:svg="http://www.w3.org/2000/svg"
   xmlns="http://www.w3.org/2000/svg"
   xmlns:sodipodi="http://sodipodi.sourceforge.net/DTD/sodipodi-0.dtd"
   xmlns:inkscape="http://www.inkscape.org/namespaces/inkscape"
   sodipodi:docname="serverles-db.svg"
   inkscape:version="1.0 (4035a4fb49, 2020-05-01)"
   id="svg8"
   version="1.1"
   viewBox="0 0 153.45833 153.45833">
  <defs
     id="defs2" />
  <sodipodi:namedview
     inkscape:window-maximized="1"
     inkscape:window-y="0"
     inkscape:window-x="1680"
     inkscape:window-height="1026"
     inkscape:window-width="1920"
     fit-margin-bottom="0"
     fit-margin-right="0"
     fit-margin-left="0"
     fit-margin-top="0"
     units="px"
     showgrid="false"
     inkscape:document-rotation="0"
     inkscape:current-layer="g867"
     inkscape:document-units="px"
     inkscape:cy="343.03421"
     inkscape:cx="66.064111"
     inkscape:zoom="0.7"
     inkscape:pageshadow="2"
     inkscape:pageopacity="0.0"
     borderopacity="1.0"
     bordercolor="#666666"
     pagecolor="#ffffff"
     id="base" />
  <metadata
     id="metadata5">
    <rdf:RDF>
      <cc:Work
         rdf:about="">
        <dc:format>image/svg+xml</dc:format>
        <dc:type
           rdf:resource="http://purl.org/dc/dcmitype/StillImage" />
        <dc:title></dc:title>
      </cc:Work>
    </rdf:RDF>
  </metadata>
  <g
     transform="translate(-35.10516,-18.983663)"
     id="layer1"
     inkscape:groupmode="layer"
     inkscape:label="Layer 1">
    <g
       style="stroke-width:0.0546714"
       transform="matrix(4.8395148,0,0,4.8395148,46.905843,30.894008)"
       id="g842">
      <path
         style="stroke-width:0.00282381"
         d="M 11.7,10.4 C 10.3,4.3 7.4,2.7 6.7,1.6 6.3,1.1 6.1,0.5 5.8,0 5.8,0.5 5.7,0.9 5.3,1.3 4.3,2.1 0.4,5.3 0,12.2 -0.3,18.7 4.8,22.6 5.5,23 6,23.3 6.7,23 7,22.8 9.4,21.1 12.8,16.7 11.7,10.4"
         fill="#10aa50"
         id="path2" />
      <path
         style="stroke-width:0.00282381"
         d="m 6,19.5 c -0.2,1.6 -0.3,2.5 -0.6,3.4 0,0 0.2,1.5 0.4,3.1 H 6.3 C 6.5,24.9 6.7,23.8 6.9,22.7 6.2,22.3 6,20.9 6,19.5 Z"
         fill="#b8c4c2"
         id="path4" />
      <path
         style="stroke-width:0.00282381"
         d="m 7,22.8 v 0 C 6.3,22.4 6.1,20.9 6.1,19.6 6.3,17.3 6.3,15 6.3,12.6 6.2,11.4 6.3,1.5 6,0 c 0.2,0.5 0.4,1 0.7,1.4 0.7,1.2 3.6,2.8 5,8.9 1.1,6.3 -2.2,10.8 -4.7,12.5 z"
         fill="#12924f"
         id="path6" />
    </g>
    <g
       transform="matrix(0.26458333,0,0,0.26458333,80.605694,17.589564)"
       id="g867">
	<path
   class="st0"
   d="m 91.019874,394.14526 2.2,-3.1 104.499996,-198.3 0.2,-2.1 -46.1,-86.6 c -3.9,-7.299999 -14.7,-5.399999 -16,2.7 z"
   id="path847" />

	<path
   class="st1"
   d="m 231.51987,256.14526 34.3,-35.1 -34.3,-65.5 c -3.3,-6.2 -12.4,-6.2 -15.6,0 l -18.3,35 v 3 z"
   id="path849" />

	<polygon
   transform="translate(-3.7001255,32.035261)"
   class="st2"
   points="201.42,158.21 94.72,362.11 95.72,361.11 99.32,359.61 233.12,226.41 234.72,221.81 "
   id="polygon851" />

	<path
   class="st3"
   d="m 235.81987,461.34526 121,-67.5 -34.6,-212.9 c -1.1,-6.7 -9.3,-9.3 -14,-4.5 l -217.199996,217.7 120.399996,67.2 c 7.5,4.3 16.8,4.3 24.4,0"
   id="path853" />

	<path
   class="st4"
   d="m 355.81987,393.24526 -34.3,-211.2 c -1.1,-6.6 -7.9,-9.3 -12.6,-4.6 l -216.599996,216.3 118.999996,66.5 c 7.5,4.2 16.7,4.2 24.3,0 z"
   id="path855" />

	<path
   class="st5"
   d="m 235.81987,459.34526 c -7.6,4.2 -16.9,4.2 -24.5,0 l -119.399996,-66.2 -1,1 120.399996,67.2 c 7.6,4.2 16.9,4.2 24.5,0 l 121,-67.5 -0.3,-1.8 z"
   id="path857" />

	
		<circle
   style="stroke-width:1.00005"
   r="78.703926"
   transform="rotate(-80.805175)"
   class="st6"
   cx="-323.12537"
   cy="379.51279"
   id="ellipse859" />

	<polygon
   transform="translate(-3.7001255,32.035261)"
   class="st7"
   points="291.15,344.21 291.15,326.23 326.15,308.5 362.1,326.23 362.1,344.21 326.15,326.41 "
   id="polygon861" />

	<polygon
   transform="translate(-3.7001255,32.035261)"
   class="st7"
   points="291.15,374.83 291.15,356.85 326.15,339.12 362.1,356.85 362.1,374.83 326.15,357.03 "
   id="polygon863" />

	<polygon
   transform="translate(-3.7001255,32.035261)"
   class="st7"
   points="326.23,391.45 326.23,374.41 336.44,369.65 354.41,377.92 "
   id="polygon865" />

</g>
  </g>
  <style
     type="text/css"
     id="style845">
	.st0{fill:#FFC24A;}
	.st1{fill:#F4BD62;}
	.st2{fill:#F6820C;}
	.st3{fill:#FDE068;}
	.st4{fill:#FCCA3F;}
	.st5{fill:#EEAB37;}
	.st6{fill-rule:evenodd;clip-rule:evenodd;fill:#757575;}
	.st7{fill-rule:evenodd;clip-rule:evenodd;fill:#FFFFFF;}
</style>
</svg>
