<?xml version="1.0" encoding="UTF-8" standalone="no"?>
<svg
   xmlns:dc="http://purl.org/dc/elements/1.1/"
   xmlns:cc="http://creativecommons.org/ns#"
   xmlns:rdf="http://www.w3.org/1999/02/22-rdf-syntax-ns#"
   xmlns:svg="http://www.w3.org/2000/svg"
   xmlns="http://www.w3.org/2000/svg"
   xmlns:sodipodi="http://sodipodi.sourceforge.net/DTD/sodipodi-0.dtd"
   xmlns:inkscape="http://www.inkscape.org/namespaces/inkscape"
   inkscape:version="1.0 (4035a4fb49, 2020-05-01)"
   sodipodi:docname="styled-component.svg"
   id="svg853"
   version="1.1"
   viewBox="0 0 250 250"
   height="250mm"
   width="250mm">
  <defs
     id="defs847" />
  <sodipodi:namedview
     inkscape:window-maximized="1"
     inkscape:window-y="0"
     inkscape:window-x="1680"
     inkscape:window-height="1026"
     inkscape:window-width="1920"
     showgrid="false"
     inkscape:document-rotation="0"
     inkscape:current-layer="layer1"
     inkscape:document-units="px"
     inkscape:cy="110.63673"
     inkscape:cx="-93.379256"
     inkscape:zoom="0.49497475"
     inkscape:pageshadow="2"
     inkscape:pageopacity="0"
     borderopacity="1.0"
     bordercolor="#666666"
     pagecolor="#ffffff"
     id="base" />
  <metadata
     id="metadata850">
    <rdf:RDF>
      <cc:Work
         rdf:about="">
        <dc:format>image/svg+xml</dc:format>
        <dc:type
           rdf:resource="http://purl.org/dc/dcmitype/StillImage" />
        <dc:title></dc:title>
      </cc:Work>
    </rdf:RDF>
  </metadata>
  <g
     id="layer1"
     inkscape:groupmode="layer"
     inkscape:label="Layer 1">
    <path
       transform="scale(0.26458333)"
       id="path1486"
       d=""
       style="fill:#ff00ff;stroke:none;stroke-width:0.631345;stroke-linecap:round;stroke-linejoin:round;paint-order:markers fill stroke" />
    <path
       transform="scale(0.26458333)"
       id="path1492"
       d=""
       style="fill:#ff00ff;stroke:none;stroke-width:3.57143;stroke-linecap:round;stroke-linejoin:round;paint-order:markers fill stroke" />
    <path
       transform="scale(0.26458333)"
       id="path1512"
       d=""
       style="fill:#ff00ff;stroke:none;stroke-width:0.0126269;stroke-linecap:round;stroke-linejoin:bevel;stroke-miterlimit:4;stroke-dasharray:none;paint-order:markers fill stroke" />
    <g
       transform="matrix(9.3214819,0,0,9.3214819,-933.60611,-817.81189)"
       id="g1558">
      <path
         style="fill:#000000;stroke-width:0.264583"
         d="m 100.21828,110.14765 v -4.35039 l 3.24114,-2.73963 c 5.05409,-4.272057 7.13291,-5.905986 8.13594,-6.394762 l 0.92604,-0.451259 -0.80407,0.742693 c -0.44223,0.408479 -0.64772,0.636426 -0.45662,0.50655 0.19109,-0.129879 0.39829,-0.185285 0.46045,-0.123127 0.0622,0.06216 -0.89322,0.981938 -2.12306,2.043962 -2.21328,1.911263 -2.47069,2.240113 -1.98733,2.538853 0.29587,0.18285 1.53879,-0.8347 4.28783,-3.510361 1.14005,-1.109617 2.1505,-1.890238 2.3151,-1.788511 0.48904,0.302241 0.32799,1.496726 -0.36012,2.670889 -0.35871,0.61209 -0.58154,1.183543 -0.49519,1.269893 0.0863,0.0863 0.64773,-0.24165 1.24751,-0.728889 1.27552,-1.036193 2.83011,-2.00438 3.20717,-1.997406 0.14552,0.0027 -0.0331,0.241941 -0.39687,0.531659 -0.53072,0.422646 -0.55687,0.490858 -0.1323,0.345102 0.29105,-0.09992 -0.007,0.269306 -0.66145,0.820491 -2.30947,1.943893 -3.70417,3.348483 -3.70417,3.730433 0,0.21245 0.0893,0.38497 0.19844,0.38338 0.10914,-0.002 1.53798,-1.25175 3.17521,-2.77812 1.63723,-1.526381 3.09575,-2.775233 3.24115,-2.775233 0.45347,0 0.28955,1.680634 -0.2648,2.714933 -0.29104,0.54303 -0.52917,1.34912 -0.52917,1.79133 0,0.71068 0.0589,0.77248 0.50766,0.53233 0.27922,-0.14943 0.58696,-0.63272 0.68387,-1.07398 0.0969,-0.44126 0.4586,-1.13789 0.80375,-1.54806 0.43864,-0.5213 0.83893,-1.694076 1.32987,-3.896269 0.38629,-1.732771 0.81387,-3.329086 0.95019,-3.547367 0.19386,-0.310433 0.22094,-0.281619 0.12431,0.132292 -0.0679,0.291042 -0.44032,1.898385 -0.8275,3.571875 -0.38718,1.673489 -0.88541,3.325259 -1.10717,3.670599 -0.22176,0.34534 -0.27179,0.54667 -0.11117,0.4474 0.37132,-0.22948 0.36764,-0.0755 -0.0184,0.77185 -0.23143,0.50793 -0.37129,0.5953 -0.54932,0.34318 -0.18104,-0.25639 -0.21143,-0.2422 -0.1256,0.0586 0.1088,0.38132 -0.74641,1.351 -1.81321,2.05592 -0.42802,0.28282 -0.40379,0.28644 0.15276,0.0228 0.60229,-0.28527 0.62898,-0.27392 0.29834,0.12689 -0.3094,0.37506 -0.30643,0.4402 0.02,0.4402 1.10591,0 2.76032,-3.49789 3.87939,-8.202087 0.73805,-3.102493 1.5277,-6.871635 1.69065,-8.069792 0.0583,-0.428633 0.27235,-0.529166 1.12668,-0.529166 h 1.05471 v 2.643234 2.643235 l -0.78184,0.135426 c -0.75334,0.130488 -0.8182,0.260794 -1.77922,3.574472 -0.54856,1.891477 -1.0004,3.935928 -1.0041,4.543228 -0.005,0.78501 -0.19791,1.3314 -0.66817,1.89028 -0.3638,0.43235 -0.66146,0.94927 -0.66146,1.1487 0,0.19942 -0.23813,0.80688 -0.52917,1.3499 -0.29104,0.54303 -0.53033,1.43423 -0.53175,1.98046 -0.004,1.38609 -1.01579,3.36903 -2.63408,5.16033 l -1.37442,1.52135 h -8.31321 -8.31321 z m 9.10532,2.19778 c 1.03119,-0.89289 3.34488,-3.12532 5.14154,-4.96094 3.07236,-3.13898 3.27491,-3.41119 3.40539,-4.57642 l 0.13873,-1.23893 -1.36464,1.31534 c -1.66831,1.60804 -2.45725,1.95392 -3.41229,1.49598 -0.38249,-0.18341 -0.82037,-0.58412 -0.97307,-0.89048 -0.25907,-0.51977 -0.57797,-0.29253 -4.77024,3.39909 -4.87194,4.29014 -6.70274,5.80856 -6.38759,5.29769 0.19987,-0.32397 4.24753,-3.94709 8.61831,-7.71435 1.24804,-1.07572 2.41495,-2.14728 2.59314,-2.38125 0.313,-0.411 0.4725,-1.61604 0.21389,-1.61604 -0.0698,0 -0.75442,0.47882 -1.52135,1.06405 -0.76694,0.58522 -1.66232,1.13392 -1.98975,1.21931 -0.97468,0.25419 -1.85403,-0.10642 -2.10651,-0.86384 l -0.23274,-0.69823 -2.95034,2.48363 -2.95034,2.48362 0.003,3.9026 0.003,3.90261 h 3.33339 3.3334 l 1.87488,-1.62344 z m 8.01234,0.49896 c 1.76761,-1.82645 2.72609,-3.56017 2.72609,-4.93102 0,-1.08886 -0.0316,-1.14623 -0.37341,-0.67872 -0.20538,0.28087 -0.32331,0.59175 -0.26207,0.69084 0.19955,0.32288 -1.23608,1.2568 -1.67377,1.08884 -0.30403,-0.11667 -0.36234,-0.0637 -0.20682,0.18795 0.14357,0.2323 0.11431,0.28723 -0.0868,0.16294 -0.16685,-0.10312 -0.5064,-0.0739 -0.75456,0.065 -0.54176,0.30318 -1.65314,-0.0518 -2.13068,-0.68048 -0.29034,-0.38225 -0.56845,-0.20195 -2.38125,1.54368 -1.12889,1.08706 -2.52614,2.35874 -3.105,2.82596 l -1.05247,0.84948 h 4.10624 4.10623 z m 0.34484,-5.09323 c 1.40143,-1.42795 1.0859,-1.56544 -0.54769,-0.23865 -1.02054,0.82888 -0.9901,0.77757 0.23541,-0.39687 0.77414,-0.74187 1.61085,-1.34886 1.85936,-1.34886 0.24851,0 0.70082,-0.17439 1.00512,-0.38753 0.30431,-0.21314 0.62846,-0.31236 0.72033,-0.22049 0.0919,0.0919 0.16705,-0.0314 0.16705,-0.27392 0,-0.52931 -0.23553,-0.5465 -0.87219,-0.0637 -0.26143,0.19826 -0.73768,0.30321 -1.05834,0.23322 -0.48551,-0.10598 -0.51664,-0.0756 -0.18613,0.18168 0.32445,0.25256 0.27455,0.28259 -0.27352,0.16456 -0.53967,-0.11622 -0.97755,0.13037 -2.24579,1.26466 -1.38671,1.24026 -1.53229,1.46099 -1.21545,1.84276 0.57826,0.69676 1.16631,0.51221 2.41184,-0.75689 z m 1.4724,0.36905 c 0.12822,-0.20746 0.024,-0.20666 -0.3674,0.003 -0.3005,0.16082 -0.62689,0.4227 -0.72532,0.58196 -0.12822,0.20747 -0.0241,0.20666 0.3674,-0.003 0.3005,-0.16082 0.62689,-0.4227 0.72532,-0.58196 z m -3.88591,-5.26384 c 0.62423,-0.58209 1.03568,-1.05345 0.91434,-1.04749 -0.31288,0.0154 -2.58959,2.10582 -2.29347,2.10582 0.1343,0 0.75491,-0.47625 1.37913,-1.05833 z m 3.24101,-2.05052 c 0.32911,-0.41965 0.31975,-0.42901 -0.0999,-0.0999 -0.44073,0.34564 -0.58088,0.56292 -0.36312,0.56292 0.0549,0 0.2633,-0.20836 0.46302,-0.46302 z m -3.47333,-0.46302 c 0.34177,-0.363806 0.56187,-0.661463 0.48911,-0.661463 -0.0728,0 -0.41192,0.297657 -0.7537,0.661463 -0.34177,0.3638 -0.56188,0.66145 -0.48911,0.66145 0.0728,0 0.41192,-0.29765 0.7537,-0.66145 z m 7.58907,-0.18191 c -0.0845,-0.211061 -0.14716,-0.14837 -0.15985,0.15986 -0.0115,0.27891 0.051,0.43518 0.13896,0.34726 0.0879,-0.0879 0.0973,-0.31612 0.0209,-0.50712 z m -14.20366,-0.347261 c 0.34178,-0.363802 0.56188,-0.661458 0.48912,-0.661458 -0.0728,0 -0.41193,0.297656 -0.7537,0.661458 -0.34178,0.363801 -0.56188,0.661461 -0.48912,0.661461 0.0728,0 0.41193,-0.29766 0.7537,-0.661461 z m 4.50664,-0.264583 c 0.35904,-0.489482 0.35343,-0.501933 -0.0749,-0.166042 -0.25466,0.19972 -0.46302,0.487455 -0.46302,0.639406 0,0.15196 0.0337,0.22668 0.0749,0.16605 0.0412,-0.0606 0.24954,-0.348373 0.46302,-0.639414 z m 3.46461,-0.330729 c 0.32911,-0.419646 0.31975,-0.429004 -0.0999,-0.0999 -0.44073,0.345644 -0.58089,0.562917 -0.36313,0.562917 0.0549,0 0.2633,-0.208359 0.46302,-0.46302 z m -6.38375,-0.727605 c 0.34178,-0.363802 0.56188,-0.661458 0.48912,-0.661458 -0.0728,0 -0.41193,0.297656 -0.7537,0.661458 -0.34178,0.363802 -0.56188,0.661459 -0.48912,0.661459 0.0728,0 0.41193,-0.297657 0.7537,-0.661459 z m 16.34915,-7.871354 c 0.0759,-2.012751 0.0655,-2.05052 -0.56149,-2.05052 -0.53081,0 -0.66819,0.167698 -0.81282,0.992187 -0.0957,0.545703 -0.27469,1.504506 -0.39772,2.130673 l -0.22369,1.138486 0.95922,-0.08015 0.95923,-0.08015 z m -4.57222,1.392347 c -0.39668,-0.438325 -0.44728,-0.799824 -0.30394,-2.171229 0.20256,-1.938008 0.40054,-2.207675 1.40608,-1.915241 l 0.74697,0.217236 -0.69746,0.09556 c -0.53524,0.07333 -0.73525,0.284461 -0.8599,0.907714 -0.26175,1.308782 -0.19062,2.044516 0.26488,2.739695 0.5113,0.780342 0.11638,0.869927 -0.55663,0.126267 z"
         id="path1434" />
      <path
         style="fill:#ff6600;stroke:none;stroke-width:2.52538;stroke-linecap:round;stroke-linejoin:round;paint-order:markers fill stroke"
         d="m 381.11953,415.91167 0.0126,-14.71034 10.8162,-9.08125 c 5.94891,-4.99469 10.92457,-9.11737 11.05702,-9.16152 0.13244,-0.0442 0.4564,0.63315 0.7199,1.5051 0.35009,1.1585 0.76339,1.87013 1.53492,2.64289 1.30171,1.3038 2.58893,1.68874 5.14127,1.5375 2.55484,-0.15138 3.87311,-0.84684 9.72272,-5.1293 4.04029,-2.95786 5.09359,-3.65216 5.27118,-3.47457 0.29569,0.29569 0.16009,2.50203 -0.23844,3.87958 -0.34716,1.19998 -0.71856,1.68826 -2.96732,3.90114 -1.41378,1.39121 -6.54797,5.98981 -11.40933,10.2191 -10.64307,9.25927 -21.00523,18.45433 -25.56497,22.68556 -2.97646,2.76202 -3.85089,3.83554 -3.12421,3.83554 0.66071,0 5.88927,-4.39425 22.47735,-18.89072 12.86214,-11.24034 15.63964,-13.57499 17.37891,-14.608 1.16248,-0.69042 1.96478,-0.63236 2.21639,0.1604 0.27333,0.86118 3.06015,3.20554 4.32139,3.63529 3.77179,1.28518 6.55869,-0.17113 13.92554,-7.27682 3.76822,-3.63465 3.5517,-3.67525 2.99172,0.56096 -0.60728,4.59411 -1.30879,5.5927 -10.99395,15.64987 -7.00635,7.27547 -18.01746,17.84388 -23.98209,23.01791 l -4.39452,3.81203 h -12.4624 -12.46239 z"
         id="path1464"
         transform="scale(0.26458333)" />
      <path
         style="fill:#d45500;stroke:none;stroke-width:2.52538;stroke-linecap:round;stroke-linejoin:round;paint-order:markers fill stroke"
         d="m 409.02507,430.4106 c 0.13195,-0.11628 1.26269,-1.04771 2.51275,-2.06984 2.80544,-2.29391 8.08635,-7.06847 13.25825,-11.98703 3.83929,-3.65122 5.98868,-5.44947 6.89535,-5.76889 0.32246,-0.11361 0.80807,0.16915 1.66152,0.96746 1.36342,1.27532 3.39605,2.28671 5.08482,2.53009 0.85173,0.12275 1.55121,0.0225 2.75871,-0.39538 1.40184,-0.48513 1.73224,-0.51839 2.47653,-0.24925 1.08989,0.39411 1.28827,0.19075 0.73221,-0.75059 l -0.4411,-0.74672 1.13146,0.15508 c 2.26055,0.30985 6.46955,-2.4066 6.46955,-4.17538 0,-1.15438 1.17665,-3.30956 1.8069,-3.30956 0.36054,0 0.2373,4.85288 -0.16219,6.38662 -1.25699,4.82591 -4.14736,9.25831 -10.36832,15.89987 l -3.48904,3.72494 h -15.28366 c -8.40601,0 -15.17569,-0.0951 -15.04374,-0.21142 z"
         id="path1466"
         transform="scale(0.26458333)" />
      <path
         style="fill:#d45500;stroke:none;stroke-width:2.52538;stroke-linecap:round;stroke-linejoin:round;paint-order:markers fill stroke"
         d="m 381.19409,427.17282 c 0.091,-1.89705 0.16542,-8.51849 0.16542,-14.71431 V 401.1934 l 2.58852,-2.16611 c 1.42368,-1.19136 6.27659,-5.25189 10.78425,-9.02341 4.50765,-3.77151 8.26747,-6.77245 8.35515,-6.66876 0.0877,0.10369 0.36473,0.74579 0.61567,1.42688 0.54297,1.47374 1.96221,3.12572 3.09152,3.59849 0.46508,0.1947 1.70717,0.33763 2.90419,0.3342 3.19022,-0.009 4.12115,-0.46995 11.18292,-5.53558 1.66675,-1.19561 3.34298,-2.37241 3.72494,-2.6151 l 0.69448,-0.44126 -0.0111,1.45791 c -0.013,1.71387 -0.4308,3.0166 -1.35663,4.23042 -0.90675,1.18882 -4.47819,4.42487 -17.50334,15.85965 -17.57604,15.43 -23.93782,21.23244 -24.56589,22.406 -0.49345,0.92202 0.5761,0.58535 2.2987,-0.72357 1.93488,-1.47022 9.18452,-7.68041 21.6928,-18.58248 13.63038,-11.88007 15.7427,-13.5988 17.14578,-13.95095 0.46835,-0.11754 0.70116,-0.0337 0.89778,0.32322 0.55508,1.00773 2.76003,2.94862 4.01199,3.53154 0.95632,0.44527 1.74211,0.60726 2.94573,0.60726 2.84596,0 4.8124,-1.235 10.78237,-6.77173 1.97177,-1.82868 3.64799,-3.32487 3.72493,-3.32487 0.24556,0 0.15028,1.57866 -0.22343,3.70214 -0.65236,3.70681 -1.5444,4.97129 -9.30714,13.19315 -7.06549,7.48336 -18.8706,18.83622 -26.76515,25.73978 l -3.22687,2.8218 h -12.40652 -12.40651 z"
         id="path1468"
         transform="scale(0.26458333)" />
      <path
         style="fill:#ff00ff;stroke:none;stroke-width:2.52538;stroke-linecap:round;stroke-linejoin:round;paint-order:markers fill stroke"
         d="m 470.25294,350.61698 c 0,-0.76073 2.68087,-14.007 2.93458,-14.49987 0.48442,-0.94105 1.16387,-1.24767 2.56472,-1.1574 1.90055,0.12248 1.93401,0.28698 1.66423,8.18156 -0.1247,3.64894 -0.31831,6.72603 -0.43026,6.83798 -0.19485,0.19485 -6.73327,0.81412 -6.73327,0.63773 z"
         id="path1470"
         transform="scale(0.26458333)" />
      <path
         style="fill:#ff00ff;stroke:none;stroke-width:2.52538;stroke-linecap:round;stroke-linejoin:round;paint-order:markers fill stroke"
         d="m 436.26518,410.33778 c -0.87538,-0.87538 -1.06087,-1.2127 -0.93738,-1.70463 0.31543,-1.25654 8.10927,-8.39499 10.49406,-9.61162 1.12345,-0.57314 2.24397,-0.68645 3.78608,-0.38287 1.17778,0.23187 1.29851,-0.28455 0.25254,-1.08024 l -0.69448,-0.52831 1.2691,0.15344 c 1.63114,0.19723 3.15278,-0.21981 4.766,-1.30621 1.87796,-1.2647 2.42493,-1.11297 2.42493,0.67268 0,0.66277 -0.0826,0.73712 -0.82075,0.73852 -0.45141,8.6e-4 -1.16167,0.18484 -1.57836,0.40884 -2.25786,1.21381 -3.16705,1.61008 -4.25194,1.85321 -1.41428,0.31695 -2.43233,0.92876 -4.97754,2.9913 -2.07959,1.68523 -6.21662,5.77341 -6.03061,5.95942 0.065,0.065 1.19542,-0.73146 2.51209,-1.76987 2.77726,-2.19035 4.88199,-3.63608 5.29348,-3.63608 1.02104,0 -5.67318,6.8486 -7.6113,7.78683 -1.76908,0.85639 -2.61305,0.73846 -3.89592,-0.54441 z"
         id="path1472"
         transform="scale(0.26458333)" />
      <path
         style="fill:#ff00ff;stroke:none;stroke-width:2.52538;stroke-linecap:round;stroke-linejoin:round;paint-order:markers fill stroke"
         d="m 432.63108,390.3133 c 2.11936,-2.15889 5.53569,-4.99362 5.75447,-4.77483 0.32167,0.32167 -6.6985,6.69775 -7.37434,6.69775 -0.14732,0 0.58162,-0.86531 1.61987,-1.92292 z"
         id="path1474"
         transform="scale(0.26458333)" />
      <path
         style="fill:#ff00ff;stroke:none;stroke-width:0.631345;stroke-linecap:round;stroke-linejoin:round;paint-order:markers fill stroke"
         d="m 445.9041,382.6319 c -0.12051,-0.0893 -0.12001,-0.0957 0.0298,-0.38168 0.0838,-0.15996 0.38662,-0.51259 0.67295,-0.78363 0.58776,-0.55637 1.96619,-1.62394 2.02319,-1.56693 0.0958,0.0957 -1.69706,2.25037 -2.17716,2.61656 -0.30331,0.23135 -0.37295,0.24602 -0.54878,0.11568 z"
         id="path1478"
         transform="scale(0.26458333)" />
      <path
         style="fill:#ff00ff;stroke:none;stroke-width:0.631345;stroke-linecap:round;stroke-linejoin:round;paint-order:markers fill stroke"
         d="m 431.92352,381.66182 c 0,-0.31796 2.0123,-2.62758 3.30996,-3.79901 0.69055,-0.62337 1.26774,-1.07471 1.37439,-1.07471 0.10843,0 -0.20688,0.49302 -0.74699,1.16799 -0.67313,0.8412 -2.78942,2.97418 -3.40072,3.42754 -0.43834,0.32508 -0.53664,0.37604 -0.53664,0.27819 z"
         id="path1480"
         transform="scale(0.26458333)" />
      <path
         style="fill:#ff00ff;stroke:none;stroke-width:0.631345;stroke-linecap:round;stroke-linejoin:round;paint-order:markers fill stroke"
         d="m 437.89406,376.64124 c -0.14904,-0.10898 -0.0979,-0.2685 0.21188,-0.66034 0.38418,-0.48602 2.41656,-2.16848 2.50847,-2.07657 0.0715,0.0715 -1.05718,1.49947 -1.71779,2.17331 -0.64159,0.65444 -0.77543,0.72968 -1.00256,0.5636 z"
         id="path1482"
         transform="scale(0.26458333)" />
      <path
         style="fill:#ff00ff;stroke:none;stroke-width:0.631345;stroke-linecap:round;stroke-linejoin:round;paint-order:markers fill stroke"
         d="m 424.89502,378.63479 c -0.0798,-0.13494 -0.10615,-0.60043 -0.0465,-0.82198 0.10108,-0.37538 0.61943,-1.1283 1.11381,-1.61784 0.4627,-0.45817 1.66017,-1.39294 1.71463,-1.33848 0.0178,0.0178 -0.0217,0.11755 -0.0877,0.22176 -0.26101,0.41225 -2.58172,3.59905 -2.62262,3.60139 -0.024,10e-4 -0.0562,-0.0188 -0.0716,-0.0448 z"
         id="path1484"
         transform="scale(0.26458333)" />
      <path
         style="fill:#ff00ff;stroke:none;stroke-width:0.631345;stroke-linecap:round;stroke-linejoin:round;paint-order:markers fill stroke"
         d="m 412.92002,374.65005 c 0,-0.10618 0.49653,-0.78408 1.06601,-1.45539 1.05745,-1.24655 3.35218,-3.41449 3.61418,-3.41449 0.11235,0 -0.20624,0.51161 -0.71662,1.15079 -0.62138,0.77818 -2.88649,3.06208 -3.44896,3.47759 -0.39587,0.29243 -0.51461,0.34815 -0.51461,0.2415 z"
         id="path1488"
         transform="scale(0.26458333)" />
      <path
         style="fill:#ff00ff;stroke:none;stroke-width:0.631345;stroke-linecap:round;stroke-linejoin:round;paint-order:markers fill stroke"
         d="m 406.92224,379.63962 c 0,-0.0846 0.4845,-0.75571 0.96471,-1.33629 1.04744,-1.26635 3.60899,-3.65483 3.7589,-3.50493 0.057,0.057 -0.5408,0.88158 -1.15491,1.59318 -0.75251,0.87195 -2.53437,2.6258 -3.05478,3.00677 -0.39542,0.28946 -0.51392,0.34509 -0.51392,0.24127 z"
         id="path1490"
         transform="scale(0.26458333)" />
      <path
         style="fill:#ff00ff;stroke:none;stroke-width:0.223214;stroke-linecap:round;stroke-linejoin:round;paint-order:markers fill stroke"
         d="m 446.11581,411.42175 c -0.13079,-0.0198 -0.10244,-0.21008 0.0738,-0.49557 0.2124,-0.34398 0.57246,-0.71877 1.09015,-1.13475 0.6712,-0.53934 1.27645,-0.92516 2.0894,-1.33191 0.66706,-0.33375 1.0179,-0.44584 1.11641,-0.35669 0.0567,0.0513 0.0552,0.10454 -0.007,0.25639 -0.209,0.50762 -0.93271,1.21077 -1.9602,1.9045 -0.45291,0.30578 -0.76958,0.49166 -1.26702,0.74371 -0.59912,0.30358 -0.97084,0.43923 -1.13529,0.41432 z"
         id="path1494"
         transform="scale(0.26458333)" />
      <path
         style="fill:none;stroke:#000000;stroke-width:0.0264583;stroke-linecap:round;stroke-linejoin:bevel;stroke-miterlimit:4;stroke-dasharray:none;stroke-opacity:1"
         d="m 112.5214,96.211608 c 0.95297,-0.109552 1.29011,0.150942 1.6835,0.408364"
         id="path1498"
         sodipodi:nodetypes="cc" />
      <path
         style="fill:#ff00ff;stroke:none;stroke-width:0.00446429;stroke-linecap:round;stroke-linejoin:bevel;stroke-miterlimit:4;stroke-dasharray:none;paint-order:markers fill stroke"
         d="m 406.61249,385.10174 c -0.85179,-0.57363 -0.84763,-1.17236 0.0161,-2.31898 0.84236,-1.11824 2.79584,-2.95578 7.37352,-6.93592 3.99433,-3.47292 6.77654,-6.05724 7.84547,-7.28742 0.54394,-0.62599 0.56047,-0.77545 0.0858,-0.77545 -0.31435,0 -0.73334,0.14482 -1.21041,0.41837 -0.21526,0.12343 -0.40088,0.21493 -0.41247,0.20334 -0.0422,-0.0422 1.38975,-1.43229 3.1399,-3.04801 l 1.792,-1.65436 0.30621,-0.0284 c 1.54586,-0.14363 2.73877,-0.0405 3.78836,0.32768 0.46693,0.16377 1.13058,0.50378 1.69858,0.87023 l 0.39963,0.25782 -0.17857,0.0536 c -0.92596,0.27764 -3.3219,2.09373 -6.09375,4.61896 -0.95473,0.86978 -1.41091,1.30319 -3.99554,3.79603 -7.7862,7.50971 -11.83644,10.93548 -13.67886,11.56985 -0.37538,0.12925 -0.61103,0.11116 -0.87594,-0.0672 z"
         id="path1500"
         transform="scale(0.26458333)" />
      <path
         style="fill:none;stroke:#000000;stroke-width:0.0264583;stroke-linecap:butt;stroke-linejoin:miter;stroke-miterlimit:4;stroke-dasharray:none;stroke-opacity:1"
         d="m 117.83658,97.851374 c 0.88537,-0.232333 1.35205,-0.01763 1.75506,0.265062 l -0.0392,-0.02766"
         id="path1502"
         sodipodi:nodetypes="ccc" />
      <path
         style="fill:#ff00ff;stroke:none;stroke-width:0.00446429;stroke-linecap:round;stroke-linejoin:bevel;stroke-miterlimit:4;stroke-dasharray:none;paint-order:markers fill stroke"
         d="m 427.3167,391.63696 c -0.27982,-0.17062 -0.50575,-0.74044 -0.50575,-1.27553 0,-0.22696 0.0302,-0.33444 0.18234,-0.6491 0.46494,-0.9615 1.71134,-2.42259 3.99912,-4.68792 2.44656,-2.42257 5.13021,-4.84481 9.14715,-8.25615 2.31569,-1.96657 3.62981,-3.30098 3.5817,-3.63698 -0.02,-0.13991 -0.22383,-0.13434 -0.72398,0.0198 -0.61228,0.18865 -0.78455,0.2135 -0.78455,0.11318 0,-0.1107 0.44772,-0.5338 1.27366,-1.20362 1.16977,-0.94868 1.91515,-1.71884 1.98214,-2.04804 0.0282,-0.13879 0.0377,-0.1436 0.47356,-0.24043 2.0444,-0.4542 3.75645,-0.24461 5.26618,0.64469 0.5267,0.31025 0.51423,0.28952 0.26277,0.43688 -0.63083,0.36969 -2.76804,2.11134 -5.15117,4.19778 -2.21681,1.94083 -3.83648,3.41005 -7.47841,6.78374 -5.31512,4.92364 -9.65261,8.74738 -10.95493,9.65735 -0.18186,0.12708 -0.35262,0.23097 -0.37946,0.23088 -0.0268,-9e-5 -0.11251,-0.039 -0.19037,-0.0865 z"
         id="path1504"
         transform="scale(0.26458333)" />
      <path
         style="fill:none;stroke:#000000;stroke-width:0.0264583;stroke-linecap:butt;stroke-linejoin:miter;stroke-miterlimit:4;stroke-dasharray:none;stroke-opacity:1"
         d="m 123.6339,88.142499 1.72879,-0.184369 0.0398,0.02365"
         id="path1506" />
      <path
         style="fill:none;stroke:#000000;stroke-width:0.264583px;stroke-linecap:butt;stroke-linejoin:miter;stroke-opacity:1"
         d="m 122.4692,92.436996 0.65589,0.627367"
         id="path1508" />
      <path
         style="fill:#ff00ff;stroke:none;stroke-width:0.0126269;stroke-linecap:round;stroke-linejoin:bevel;stroke-miterlimit:4;stroke-dasharray:none;paint-order:markers fill stroke"
         d="m 449.19711,395.49598 c -0.0817,-0.21279 0.1481,-0.60986 0.83965,-1.45112 0.44197,-0.53766 0.75656,-1.033 0.75656,-1.19126 0,-0.16833 -0.45828,-0.0424 -1.35766,0.37318 -0.52927,0.24454 -1.00856,0.42919 -1.06509,0.41035 -0.0565,-0.0188 0.47966,-0.46802 1.19155,-0.99817 2.40003,-1.78733 4.4605,-3.93617 5.22959,-5.4539 0.27899,-0.55056 0.31606,-0.75547 0.26092,-1.44238 l -0.0643,-0.80065 0.37081,0.50423 c 0.63664,0.86569 1.13741,0.84022 1.72709,-0.0878 0.54455,-0.85703 1.55552,-3.28041 1.63068,-3.9089 0.0582,-0.48684 0.0386,-0.53664 -0.21106,-0.53664 -0.15137,0 -0.44815,0.0894 -0.6595,0.19871 -0.21135,0.10929 -0.41208,0.17091 -0.44606,0.13692 -0.034,-0.034 0.25158,-0.65931 0.63459,-1.3896 0.80941,-1.54332 1.84933,-4.62067 2.97947,-8.81697 0.78868,-2.92839 4.67869,-19.52363 4.67869,-19.95981 0,-0.16017 -0.0623,-0.22439 -0.17561,-0.18092 -0.21544,0.0827 -2.27341,-1.99016 -2.41051,-2.4279 -0.0524,-0.16725 -0.34767,-0.71989 -0.6562,-1.22808 -1.24428,-2.0495 -1.63317,-3.65355 -1.51121,-6.23338 0.0921,-1.94909 0.5468,-4.55466 0.964,-5.52447 0.15631,-0.36333 0.50233,-0.85768 0.76895,-1.09855 0.7469,-0.67479 1.70502,-0.88511 5.7985,-1.27289 1.07644,-0.10197 2.19829,-0.22019 2.493,-0.26271 l 0.53583,-0.0773 -0.239,0.55086 c -0.13146,0.30297 -0.3059,0.97702 -0.38766,1.49788 -1.0977,6.99321 -5.42581,26.94952 -7.53092,34.72399 -3.6727,13.56383 -8.59217,23.95104 -12.19641,25.7521 -0.86398,0.43173 -1.82116,0.52762 -1.94872,0.19522 z"
         id="path1510"
         transform="scale(0.26458333)" />
      <path
         style="fill:#ff00ff;stroke:none;stroke-width:0.00111607;stroke-linecap:round;stroke-linejoin:bevel;stroke-miterlimit:4;stroke-dasharray:none;paint-order:markers fill stroke"
         d="m 463.11731,380.53157 c -0.12504,-0.092 -0.21136,-0.35992 -0.24555,-0.76202 -0.0153,-0.17951 -0.008,-0.74448 0.0113,-0.9396 0.0589,-0.58155 0.16603,-0.81466 0.32025,-0.69702 0.11803,0.09 0.30022,0.49438 0.37692,0.83653 0.0479,0.21352 0.066,0.37556 0.0662,0.59152 2.5e-4,0.30819 -0.0398,0.51657 -0.13724,0.71402 -0.11845,0.24001 -0.27504,0.34254 -0.39185,0.25657 z"
         id="path1514"
         transform="scale(0.26458333)" />
    </g>
  </g>
</svg>
