<?xml version="1.0" encoding="UTF-8" standalone="no"?>
<svg
   xmlns:dc="http://purl.org/dc/elements/1.1/"
   xmlns:cc="http://creativecommons.org/ns#"
   xmlns:rdf="http://www.w3.org/1999/02/22-rdf-syntax-ns#"
   xmlns:svg="http://www.w3.org/2000/svg"
   xmlns="http://www.w3.org/2000/svg"
   xmlns:sodipodi="http://sodipodi.sourceforge.net/DTD/sodipodi-0.dtd"
   xmlns:inkscape="http://www.inkscape.org/namespaces/inkscape"
   inkscape:version="1.0 (4035a4fb49, 2020-05-01)"
   sodipodi:docname="rocket.svg"
   xml:space="preserve"
   style="enable-background:new 0 0 508.1 508.1;"
   viewBox="0 0 508.1 508.1"
   y="0px"
   x="0px"
   id="Capa_1"
   version="1.1"><metadata
   id="metadata55"><rdf:RDF><cc:Work
       rdf:about=""><dc:format>image/svg+xml</dc:format><dc:type
         rdf:resource="http://purl.org/dc/dcmitype/StillImage" /></cc:Work></rdf:RDF></metadata><defs
   id="defs53" /><sodipodi:namedview
   inkscape:current-layer="Capa_1"
   inkscape:window-maximized="1"
   inkscape:window-y="0"
   inkscape:window-x="1680"
   inkscape:cy="301.84513"
   inkscape:cx="217.67089"
   inkscape:zoom="1.1884849"
   inkscape:lockguides="false"
   showgrid="false"
   id="namedview51"
   inkscape:window-height="1026"
   inkscape:window-width="1920"
   inkscape:pageshadow="2"
   inkscape:pageopacity="0"
   guidetolerance="10"
   gridtolerance="10"
   objecttolerance="10"
   borderopacity="1"
   bordercolor="#666666"
   pagecolor="#ffffff" />





<path
   id="path2"
   d="m 201.19428,405.0552 c -2.63085,4.33596 -5.5898,8.65095 -8.68101,12.74093 -4.33023,5.74315 -8.93768,11.12209 -13.93301,16.32466 -23.01771,23.97259 -52.61884,41.52595 -83.561272,46.91028 0.869634,-6.41913 2.408255,-12.88211 4.249548,-19.15251 -17.761997,12.55015 -37.554616,21.48407 -58.040865,25.04662 2.812572,-20.63026 10.935047,-40.76948 22.668031,-59.01047 -6.190412,2.09452 -12.585548,3.89444 -18.951322,4.93832 5.103148,-37.74258 28.108747,-74.47052 59.22203,-99.98272 3.96103,-3.2548 8.15225,-6.38663 12.37776,-9.19143 -0.14889,0.44522 -0.31048,0.97626 -0.45936,1.42149 9.52372,-0.56047 18.68603,0.19853 27.31651,2.30944 5.68117,1.33767 11.0303,3.23879 16.11988,5.77295 6.41094,3.11669 12.2685,7.17248 17.48743,12.18352 5.21895,5.01106 9.42412,10.71522 12.7987,16.99427 2.73882,4.98243 4.9409,10.23369 6.50827,15.85583 2.45977,8.5376 3.59037,17.66152 3.41726,27.20013 0.58378,-0.0277 1.0226,-0.19447 1.46142,-0.36131 z"
   style="fill:#f6b44b;stroke-width:0.842949" /><path
   id="path4"
   d="m 196.37534,378.37178 c -6.25858,15.94911 -16.16096,31.34045 -29.09005,44.8059 -14.20242,14.7916 -30.86153,26.04802 -48.18389,32.84449 l 10.23976,-34.9672 -36.989316,26.04604 c -8.612628,6.14064 -17.703273,11.03807 -27.029042,14.72946 3.296758,-9.38222 7.906047,-18.68054 13.619259,-27.6051 l 24.521829,-38.0169 -34.522327,11.65185 c 6.087134,-17.58417 16.657476,-34.68683 30.859891,-49.47843 12.929096,-13.46544 27.905446,-23.98492 43.587136,-30.88627 5.68117,1.33766 11.0303,3.23879 16.11987,5.77294 6.41095,3.11669 12.26851,7.17248 17.48744,12.18353 5.21895,5.01106 9.42413,10.71522 12.79869,16.99426 2.81132,5.05203 5.0134,10.3033 6.58075,15.92543 z"
   style="fill:#ff1d2e;stroke-width:0.842949;fill-opacity:1" /><path
   id="path6"
   d="m 174.15554,494.08106 c 2.49572,-2.30907 5.10211,-4.80596 7.56353,-7.44205 24.58487,-25.60476 40.34624,-55.36831 46.58,-83.98695 7.62351,-34.63641 1.15591,-67.51017 -20.95211,-88.73758 -22.10803,-21.22741 -55.13218,-26.37037 -89.5155,-17.32985 -28.256557,7.37505 -57.440452,24.34875 -82.025322,49.95352 -2.448692,2.55028 -4.837625,5.25596 -7.128617,7.85962 8.966433,-33.64106 28.176514,-68.22963 56.973131,-98.22087 26.935608,-28.05305 58.120558,-47.90882 89.136278,-58.8104 48.39395,-16.95822 96.46035,-12.17448 127.48406,17.61349 30.95123,29.71836 37.75621,77.62035 22.778,126.66327 -9.6453,31.5188 -28.21779,63.48464 -55.14067,91.45187 -28.72414,30.06084 -62.50376,50.66022 -95.75278,60.98593 z"
   style="fill:#00000f;stroke-width:0.842949;fill-opacity:1" /><path
   id="path8"
   d="m 325.12147,341.71285 c -30.08288,24.14888 -62.64791,44.93419 -96.74991,61.0088 7.6235,-34.6364 1.1559,-67.51017 -20.95211,-88.73757 -22.10802,-21.22741 -55.13219,-26.37038 -89.51551,-17.32986 14.68868,-34.81268 34.13387,-68.19523 57.02797,-99.14852 48.39394,-16.95822 96.46035,-12.17448 127.48406,17.61349 30.87874,29.64876 37.68372,77.55075 22.7055,126.59366 z"
   style="fill:#334a5e;stroke-width:0.842949" /><path
   id="path10"
   d="m 199.87783,405.55571 c 0.19056,-15.79569 -3.00596,-30.5303 -9.92553,-43.05597 -3.37457,-6.27904 -7.66496,-11.967 -12.88391,-16.97805 -5.21894,-5.01106 -11.07649,-9.06683 -17.48744,-12.18353 -12.79643,-6.405 -27.64875,-9.0003 -43.42366,-8.16819 C 159.79561,197.38252 270.70668,82.233049 396.8421,34.146811 417.46634,26.305472 438.49224,20.222186 459.79636,16.170565 L 500.78551,8.3752417 494.6618,49.647222 C 491.49173,71.012545 486.25491,92.354021 479.25791,113.2798 436.33562,241.26459 325.78698,356.76206 199.87783,405.55571 Z"
   style="fill:#e0e2e1;fill-opacity:1;stroke-width:0.842949" /><path
   id="path16"
   d="m 246.90509,272.78784 v 0 0 C 198.9208,297.58956 141.52345,357.36801 118.78952,406.21825 v 0 C 166.68858,381.43273 224.0732,321.74008 246.90509,272.78784 Z"
   style="fill:#00000f;stroke-width:0.842949;fill-opacity:1" /><path
   id="path18"
   d="M 479.25791,113.2798 396.8421,34.146811 c 20.62424,-7.841339 41.65014,-13.924625 62.95426,-17.976246 L 500.78551,8.3752417 494.6618,49.647222 c -3.17007,21.365323 -8.40689,42.706799 -15.40389,63.632578 z"
   style="fill:#00000f;stroke-width:0.842949;fill-opacity:1" />
<path
   id="path12"
   d="m 392.49657,177.80523 c -0.61019,-30.02802 -26.01135,-53.85989 -56.74088,-53.23543 -15.36476,0.31221 -29.18709,6.66816 -39.0171,16.76975 -9.78203,10.05284 -15.76944,23.75962 -15.46628,38.67799 0.30315,14.91837 6.74458,28.37263 16.92694,38.01973 10.28216,9.74075 24.35131,15.52989 39.76404,15.16886 30.73147,-0.52887 55.14348,-25.37293 54.53328,-55.4009 z"
   style="fill:#ffffff;stroke-width:0.684204" /><circle
   r="36.60984"
   transform="matrix(0.72927536,0.68422033,-0.70087684,0.71328232,0,0)"
   id="circle14"
   cy="-100.05419"
   cx="365.82022"
   style="fill:#00b4d8;stroke-width:0.684296;fill-opacity:1" />


<g
   id="g20">
</g>
<g
   id="g22">
</g>
<g
   id="g24">
</g>
<g
   id="g26">
</g>
<g
   id="g28">
</g>
<g
   id="g30">
</g>
<g
   id="g32">
</g>
<g
   id="g34">
</g>
<g
   id="g36">
</g>
<g
   id="g38">
</g>
<g
   id="g40">
</g>
<g
   id="g42">
</g>
<g
   id="g44">
</g>
<g
   id="g46">
</g>
<g
   id="g48">
</g>
</svg>
