<?xml version="1.0" encoding="UTF-8" standalone="no"?>
<svg
   xmlns:dc="http://purl.org/dc/elements/1.1/"
   xmlns:cc="http://creativecommons.org/ns#"
   xmlns:rdf="http://www.w3.org/1999/02/22-rdf-syntax-ns#"
   xmlns:svg="http://www.w3.org/2000/svg"
   xmlns="http://www.w3.org/2000/svg"
   xmlns:sodipodi="http://sodipodi.sourceforge.net/DTD/sodipodi-0.dtd"
   xmlns:inkscape="http://www.inkscape.org/namespaces/inkscape"
   inkscape:version="1.0 (4035a4fb49, 2020-05-01)"
   sodipodi:docname="world.svg"
   xml:space="preserve"
   style="enable-background:new 0 0 511.999 511.999;"
   viewBox="0 0 511.999 511.999"
   y="0px"
   x="0px"
   id="Capa_1"
   version="1.1"><metadata
   id="metadata49"><rdf:RDF><cc:Work
       rdf:about=""><dc:format>image/svg+xml</dc:format><dc:type
         rdf:resource="http://purl.org/dc/dcmitype/StillImage" /></cc:Work></rdf:RDF></metadata><defs
   id="defs47" /><sodipodi:namedview
   inkscape:current-layer="Capa_1"
   inkscape:window-maximized="1"
   inkscape:window-y="0"
   inkscape:window-x="1680"
   inkscape:cy="303.96193"
   inkscape:cx="256.59903"
   inkscape:zoom="1.667972"
   showgrid="false"
   id="namedview45"
   inkscape:window-height="1026"
   inkscape:window-width="1920"
   inkscape:pageshadow="2"
   inkscape:pageopacity="0"
   guidetolerance="10"
   gridtolerance="10"
   objecttolerance="10"
   borderopacity="1"
   bordercolor="#666666"
   pagecolor="#ffffff" />
<g
   style="fill:#bcce46;fill-opacity:1"
   id="g10">
	<path
   id="path2"
   d="M441.374,79.519l-26.485,17.656l-44.141-8.828l-26.485-8.828l-35.313,8.828l-26.485-8.828   l17.656-35.313h35.313l34.607-17.303C396.73,40.101,420.875,57.916,441.374,79.519z"
   style="fill:#bcce46;fill-opacity:1" />
	<path
   id="path4"
   d="M238.325,44.206l-8.828,26.485l-26.485,8.828l-26.485,44.141l-44.141,26.485l-61.797,8.828v26.485   l17.656,17.656v35.313L61.762,220.77l-26.485-17.656l-15.361-46.171C46.356,93.935,96.898,44.126,160.284,18.604l25.072,16.774   L238.325,44.206z"
   style="fill:#bcce46;fill-opacity:1" />
	<polygon
   id="polygon6"
   points="255.982,291.395 247.154,335.536 211.841,370.849 211.841,397.334 176.528,423.818    176.528,467.959 150.044,459.131 132.387,414.99 132.387,326.708 88.246,317.88 70.59,282.567 70.59,256.082 88.246,238.426    114.731,211.941 132.387,247.254 194.184,247.254 220.669,291.395  "
   style="fill:#bcce46;fill-opacity:1" />
	<path
   id="path8"
   d="M479.335,130.987c48.193,85.978,42.702,191.996-14.125,272.526l-23.836-23.836v-35.313   l-17.656-35.313l-17.656-35.313v-35.313l-26.485-17.656l-35.313,8.828l-61.797-26.485l-8.828-61.797l26.485-26.485h52.969   l17.656,26.485l52.969,8.828l52.969-17.656L479.335,130.987z"
   style="fill:#bcce46;fill-opacity:1" />
</g>
<path
   id="path12"
   d="M308.951,88.347l35.313-8.828l26.485,8.828l44.141,8.828l26.485-17.656  c14.787,15.476,27.544,32.77,37.961,51.468l-2.648,1.501l-52.969,17.656l-52.969-8.828l-17.656-26.485h-52.969l-26.485,26.485  l8.828,61.797l61.797,26.485l35.313-8.828l26.485,17.656v35.313l17.656,35.313l17.656,35.313v35.313l23.836,23.836  c-81.528,115.526-241.275,143.079-356.792,61.55C10.311,395.815-26.494,267.691,19.916,156.942l15.361,46.171l26.485,17.656  l26.485,17.656L70.59,256.082v26.485l17.656,35.313l44.141,8.828v88.282l17.656,44.141l26.485,8.828v-44.141l35.313-26.485v-26.485  l35.313-35.313l8.828-44.141h-35.313l-26.485-44.141h-61.797l-17.656-35.313l-26.485,26.485v-35.313L70.59,185.457v-26.485  l61.797-8.828l44.141-26.485l26.485-44.141l26.485-8.828l8.828-26.485l-52.969-8.828l-25.072-16.774  c67.889-27.341,144.235-24.322,209.758,8.299l-34.607,17.303h-35.313l-17.656,35.313L308.951,88.347z"
   style="fill:#006ba1;fill-opacity:1" />
</svg>
