<?xml version="1.0" encoding="UTF-8" standalone="no"?>
<svg
   xmlns:dc="http://purl.org/dc/elements/1.1/"
   xmlns:cc="http://creativecommons.org/ns#"
   xmlns:rdf="http://www.w3.org/1999/02/22-rdf-syntax-ns#"
   xmlns:svg="http://www.w3.org/2000/svg"
   xmlns="http://www.w3.org/2000/svg"
   xmlns:sodipodi="http://sodipodi.sourceforge.net/DTD/sodipodi-0.dtd"
   xmlns:inkscape="http://www.inkscape.org/namespaces/inkscape"
   inkscape:version="1.0 (4035a4fb49, 2020-05-01)"
   sodipodi:docname="assegur.svg"
   id="svg905"
   version="1.1"
   viewBox="0 0 181 40">
  <metadata
     id="metadata909">
    <rdf:RDF>
      <cc:Work
         rdf:about="">
        <dc:format>image/svg+xml</dc:format>
        <dc:type
           rdf:resource="http://purl.org/dc/dcmitype/StillImage" />
        <dc:title></dc:title>
      </cc:Work>
    </rdf:RDF>
  </metadata>
  <sodipodi:namedview
     inkscape:current-layer="svg905"
     inkscape:window-maximized="1"
     inkscape:window-y="0"
     inkscape:window-x="1680"
     inkscape:cy="20"
     inkscape:cx="90.5"
     inkscape:zoom="5.0607735"
     showgrid="false"
     id="namedview907"
     inkscape:window-height="1026"
     inkscape:window-width="1920"
     inkscape:pageshadow="2"
     inkscape:pageopacity="0"
     guidetolerance="10"
     gridtolerance="10"
     objecttolerance="10"
     borderopacity="1"
     bordercolor="#666666"
     pagecolor="#ffffff" />
  <!-- Generator: Sketch 39 (31667) - http://www.bohemiancoding.com/sketch -->
  <desc
     id="desc884">Created with Sketch.</desc>
  <defs
     id="defs887">
    <polygon
       style="fill:currentColor;fill-opacity:1"
       points="0 0.0200229818 180.216557 0.0200229818 180.216557 39.4202454 0 39.4202454"
       id="path-1" />
  </defs>
  <g
     style="fill:currentColor;fill-opacity:1"
     fill-rule="evenodd"
     fill="none"
     stroke-width="1"
     stroke="none"
     id="Symbols">
    <g
       transform="translate(-121.000000, 0.000000)"
       id="footer-desktop">
      <g
         transform="translate(121.000000, 0.000000)"
         id="Group">
        <g
           transform="translate(0.000000, 0.000000)"
           id="Fill-1-+-Group-23">
          <path
             id="Fill-1"
             d="M48.272169,0 L36.6658599,30.3917578 L39.5951012,30.3917578 L43.0851674,21.1010942 L56.8436107,21.1010942 L60.2852649,30.3917578 L63.2145062,30.3917578 L51.622029,0 L48.272169,0 Z M49.9200638,2.95589269 L55.8678257,18.6044787 L44.0181989,18.6044787 L49.9200638,2.95589269 Z" />
          <g
             transform="translate(0.021688, 0.000000)"
             id="Group-23">
            <path
               id="Fill-2"
               d="M74.4738382,18.5325211 C69.8797266,17.4400171 67.2969141,17.1421753 67.2969141,13.9272353 C67.2969141,11.7303387 69.1170801,10.1679204 72.2141917,10.1679204 C75.6992281,10.1679204 77.7828309,11.9430829 77.9588746,14.9027299 L80.5875842,14.9027299 C80.2945972,10.5502342 77.2301795,7.92847507 72.2651186,7.92847507 C67.7118742,7.92847507 64.648714,10.5502342 64.648714,14.2726317 C64.648714,18.0751211 67.3358952,19.2958973 72.5939431,20.5692338 C76.5121727,21.4934195 78.5523934,21.960831 78.5523934,24.6683136 C78.5523934,27.0748257 76.4291807,28.7680191 72.6398402,28.7680191 C69.2403107,28.7680191 66.861206,26.6117942 66.8278834,23.5733067 L64.1847131,23.5733067 C64.3173746,28.0978749 67.6295109,31.0087159 72.7712442,31.0087159 C77.9588746,31.0087159 81.178588,28.3425307 81.178588,24.7102367 C81.178588,21.1624146 79.1383674,19.6750825 74.4738382,18.5325211" />
            <path
               id="Fill-4"
               d="M93.8732873,18.5325211 C89.2917502,17.4400171 86.6976207,17.1421753 86.6976207,13.9272353 C86.6976207,11.7303387 88.5259602,10.1679204 91.6268441,10.1679204 C95.1118805,10.1679204 97.1879386,11.9430829 97.3652397,14.9027299 L99.9914344,14.9027299 C99.6965612,10.5502342 96.6346584,7.92847507 91.6714837,7.92847507 C87.1238979,7.92847507 84.0607376,10.5502342 84.0607376,14.2726317 C84.0607376,18.0751211 86.7366018,19.2958973 92.005338,20.5692338 C95.920424,21.4934195 97.950585,21.960831 97.950585,24.6683136 C97.950585,27.0748257 95.8317734,28.7680191 92.0499777,28.7680191 C88.6561068,28.7680191 86.2713434,26.6117942 86.2298474,23.5733067 L83.6005091,23.5733067 C83.7237397,28.0978749 87.0409059,31.0087159 92.1744657,31.0087159 C97.3652397,31.0087159 100.589354,28.3425307 100.589354,24.7102367 C100.589354,21.1624146 98.5485048,19.6750825 93.8732873,18.5325211" />
            <path
               id="Fill-6"
               d="M105.427664,17.8584975 C105.67664,13.0467246 108.483908,10.1677953 112.432945,10.1677953 C116.38827,10.1677953 119.001261,13.0041758 119.217543,17.8584975 L105.427664,17.8584975 Z M112.476327,7.92834993 C106.487698,7.92834993 102.790781,12.1544505 102.790781,19.5498137 C102.790781,26.8287933 106.439286,31.0092165 112.388306,31.0092165 C117.444532,31.0092165 121.025764,28.0977498 121.574643,23.6526478 L119.001261,23.6526478 C118.498279,26.869465 116.004746,28.7678939 112.554918,28.7678939 C108.312265,28.7678939 105.427664,25.5554568 105.427664,20.0572711 L105.427664,19.9340047 L121.872659,19.9340047 L121.872659,19.0886594 C121.872659,11.9429578 118.330409,7.92834993 112.476327,7.92834993 L112.476327,7.92834993 Z" />
            <path
               id="Fill-8"
               d="M134.524291,28.7686448 C129.980477,28.7686448 127.0198,25.3891409 127.0198,19.4736012 C127.0198,13.4241579 129.807577,10.166669 134.524291,10.166669 C139.205167,10.166669 142.016208,13.4642038 142.016208,19.4736012 C142.016208,25.4723614 139.156126,28.7686448 134.524291,28.7686448 L134.524291,28.7686448 Z M141.806841,12.2840993 C140.097331,9.36762689 137.5535,7.92847507 134.149569,7.92847507 C128.277883,7.92847507 124.373486,12.2409248 124.373486,19.4736012 C124.373486,26.7456979 128.20055,31.0093416 134.149569,31.0093416 C137.514519,31.0093416 140.050177,29.5695641 141.806841,26.6555945 L141.806841,29.3605742 C141.806841,34.5221235 139.156126,37.1820515 133.846523,37.1820515 C130.12257,37.1820515 127.9434,35.6190074 127.689395,32.9972483 L125.0632,32.9972483 C125.373163,36.8898411 128.662036,39.4202454 133.88739,39.4202454 C140.787045,39.4202454 144.341242,36.0000698 144.341242,29.2798566 L144.341242,8.47785563 L141.806841,8.47785563 L141.806841,12.2840993 Z" />
            <path
               id="Fill-10"
               d="M163.633556,21.4522473 C163.633556,25.9774411 161.014277,28.7687699 156.806833,28.7687699 C152.760343,28.7687699 151.411094,26.8290436 151.411094,22.6367318 L151.411094,8.47798078 L148.8484,8.47798078 L148.8484,23.2286612 C148.8484,28.3877076 151.325587,31.0094668 156.340317,31.0094668 C159.634849,31.0094668 162.029672,29.6917043 163.715919,26.9122641 L163.715919,30.4119059 L166.193734,30.4119059 L166.193734,8.47798078 L163.633556,8.47798078 L163.633556,21.4522473 Z" />
            <path
               id="Fill-12"
               d="M179.916088,7.92834993 C176.735356,7.92834993 174.426669,9.2799012 173.109485,12.3240201 L173.109485,8.47898193 L170.659334,8.47898193 L170.659334,30.412907 L173.189333,30.412907 L173.189333,18.2408113 C173.189333,13.1718683 175.499278,10.5501091 179.872706,10.5501091 L180.21662,10.5501091 L180.21662,7.92834993 L179.916088,7.92834993 Z" />
            <path
               id="Fill-15"
               d="M30.5354073,2.8990149 C30.4825942,1.28528772 29.1698112,0.0200855536 27.5476943,0.0200855536 L20.6889063,0.0200855536 C20.6222612,0.0200855536 20.5606459,0.0551257717 20.5279521,0.111440408 C20.4927433,0.168380762 20.4914859,0.238461199 20.5210361,0.296027271 C20.5939684,0.436188144 20.6536975,0.597623435 20.6958223,0.774075962 C21.1365602,2.73194815 18.8335315,5.26360391 15.5635199,6.42243398 C14.5097727,6.79411058 13.4371636,6.99058609 12.4607498,6.99058609 C10.5274128,6.99058609 9.15175712,6.22720991 8.87071594,4.99704796 C8.54189147,3.5597733 9.74967695,1.69951315 11.8684885,0.367359144 C11.9414209,0.321681717 11.9728573,0.235332608 11.9495944,0.155866399 C11.9257027,0.0751487535 11.8508842,0.0200855536 11.7672634,0.0200855536 L2.99588642,0.0200855536 C1.34296189,0.0200855536 0,1.35661959 0,3.00100697 L0,9.20562845 C0,9.27320601 0.037094921,9.33640355 0.0961953036,9.37019233 C2.56332191,10.7524038 5.13418856,11.5545745 10.9731806,11.5545745 C15.2346954,11.5545745 20.6197463,8.92217811 25.3704111,6.59888651 C27.1572545,5.72663536 28.8435016,4.90068736 30.4203501,4.22991747 C30.4895102,4.20050872 30.5354073,4.13167972 30.5354073,4.05659354 L30.5354073,2.8990149 Z" />
            <path
               id="Fill-17"
               d="M0.265322994,13.707045 C0.207480067,13.6801392 0.139577499,13.6851449 0.0867643915,13.7233137 C0.0326938287,13.7571025 0.00188618242,13.81592 0.00188618242,13.8791175 L0.00188618242,27.4403077 C0.00188618242,29.0746836 1.33227352,30.412469 2.97136605,30.4206034 L4.99335361,30.4206034 C5.0367358,30.4206034 5.07823181,30.4068376 5.11092564,30.3811831 C5.11092564,30.3811831 10.243228,25.5762932 15.9690491,20.4579185 C14.1903791,19.2652996 11.6911874,18.0257519 8.33063904,16.7874556 C0.880847192,14.04243 0.265322994,13.707045 0.265322994,13.707045" />
            <path
               id="Fill-19"
               d="M16.020982,20.4120534 C16.0021202,20.428322 15.9857733,20.4414621 15.9694264,20.4577308 C15.9857733,20.4689937 16.0021202,20.4796309 16.020982,20.4915196 C16.0184671,20.4846367 16.0128086,20.4777538 16.0128086,20.4702451 C16.0090362,20.448345 16.0153235,20.4308249 16.020982,20.4120534" />
            <path
               id="Fill-21"
               d="M16.8054453,30.3038444 C16.8324806,30.3751762 16.9041555,30.4239823 16.981489,30.4239823 L27.5472542,30.4239823 C29.2014362,30.4239823 30.5481704,29.0849453 30.5481704,27.4399322 L30.5481704,8.88363387 C30.5481704,8.81793346 30.5142192,8.7572388 30.4563762,8.72219858 C30.4010482,8.68903552 30.3293733,8.68903552 30.2696442,8.71969571 C27.8446423,10.0631126 21.7805658,15.2678365 16.2156989,20.237916 C16.1484251,20.2954821 16.0830374,20.3536738 16.0207934,20.4112399 C16.0157636,20.4306372 16.0088476,20.4494087 16.0132487,20.4694317 C16.0132487,20.477566 16.0182785,20.4844489 16.0207934,20.4913318 C18.5162128,22.1788938 19.5724749,23.768218 19.5724749,25.1210207 C19.6957055,26.6809361 18.7827932,28.3547322 16.8557435,30.0979831 C16.7960144,30.149292 16.7771526,30.2325125 16.8054453,30.3038444" />
          </g>
        </g>
      </g>
    </g>
  </g>
</svg>
