<?xml version="1.0" encoding="UTF-8"?>
<svg xmlns="http://www.w3.org/2000/svg" viewBox="0 0 144 65.464"><defs><style>.a{fill:#21eabc;}.b{fill:#ff8180;}</style></defs><g transform="translate(68.813 54.86)"><path class="a" d="M129.5,100.487a5.317,5.317,0,0,1-.282,1.692,5.492,5.492,0,0,1-.846,1.354,3.075,3.075,0,0,1-1.354.846,4.385,4.385,0,0,1-1.749.282H122V96.2h3.215a4.394,4.394,0,0,1,1.748.338,5.492,5.492,0,0,1,1.354.846,3.429,3.429,0,0,1,.846,1.354A4.6,4.6,0,0,1,129.5,100.487Zm-1.636,0a4.126,4.126,0,0,0-.169-1.241,2.6,2.6,0,0,0-.508-.959,1.733,1.733,0,0,0-.846-.564,3.337,3.337,0,0,0-1.128-.226h-1.636v5.979h1.636a2.525,2.525,0,0,0,1.128-.226,2.232,2.232,0,0,0,.846-.564,2.6,2.6,0,0,0,.508-.959A4.125,4.125,0,0,0,127.866,100.487Z" transform="translate(-122 -96.031)"/><path class="a" d="M138.423,101.628a2.5,2.5,0,0,1,.677-.846,1.327,1.327,0,0,1,.9-.282,1.2,1.2,0,0,1,.677.169l-.113,1.072c0,.056-.056.113-.113.169a.207.207,0,0,1-.169.056.613.613,0,0,1-.282-.056c-.113,0-.226-.056-.338-.056a1.242,1.242,0,0,0-.451.056,1.18,1.18,0,0,0-.338.226,1.79,1.79,0,0,0-.282.338,1.69,1.69,0,0,0-.226.451v3.723H136.9v-5.979h.846c.169,0,.226,0,.282.056a.431.431,0,0,1,.113.282Z" transform="translate(-128.496 -97.905)"/><path class="a" d="M146.548,96.946a.716.716,0,0,1-.056.338.563.563,0,0,1-.226.282c-.113.056-.169.169-.282.169a1.044,1.044,0,0,1-.677,0,1.233,1.233,0,0,1-.282-.169.479.479,0,0,1-.169-.282,1.043,1.043,0,0,1,0-.677,1.233,1.233,0,0,1,.169-.282.48.48,0,0,1,.282-.169,1.044,1.044,0,0,1,.677,0,.975.975,0,0,1,.508.451C146.548,96.664,146.548,96.777,146.548,96.946Zm-.226,1.749v5.979h-1.41V98.695Z" transform="translate(-131.94 -95.987)"/><path class="a" d="M155.135,100.7l-2.369,5.979h-1.3L149.1,100.7h1.184a.423.423,0,0,1,.282.056l.169.169,1.185,3.215c.056.169.113.395.169.564a1.668,1.668,0,0,1,.113.564c.056-.169.056-.338.113-.564.056-.169.113-.338.169-.564l1.184-3.215a.18.18,0,0,1,.169-.169.339.339,0,0,1,.226-.056Z" transform="translate(-133.814 -97.993)"/><path class="a" d="M161.623,103.771a1.8,1.8,0,0,0,.169.79,4.954,4.954,0,0,0,.338.564.821.821,0,0,0,.508.338,2.029,2.029,0,0,0,.621.113,2.115,2.115,0,0,0,.62-.056,3.887,3.887,0,0,0,.451-.169l.338-.169a.508.508,0,0,1,.282-.056.431.431,0,0,1,.282.113l.395.508a2.207,2.207,0,0,1-.564.451,3.022,3.022,0,0,1-.62.282l-.677.169a2.748,2.748,0,0,1-.677.056,2.945,2.945,0,0,1-1.185-.226,2.548,2.548,0,0,1-.959-.62,3.071,3.071,0,0,1-.62-1.015,3.526,3.526,0,0,1-.226-1.41,2.526,2.526,0,0,1,.226-1.128,3.3,3.3,0,0,1,.564-.959,2.577,2.577,0,0,1,.9-.62,2.616,2.616,0,0,1,1.184-.226,3.285,3.285,0,0,1,1.072.169,2.124,2.124,0,0,1,.846.508,3.162,3.162,0,0,1,.564.846,3.637,3.637,0,0,1,.169,1.128.97.97,0,0,1-.056.451.331.331,0,0,1-.282.113h-3.666Zm2.707-.846a1.56,1.56,0,0,0-.056-.508,1.133,1.133,0,0,0-.226-.451,1.012,1.012,0,0,0-.395-.282,1.669,1.669,0,0,0-.564-.113,1.327,1.327,0,0,0-.959.338,1.7,1.7,0,0,0-.451,1.015Z" transform="translate(-138.61 -97.905)"/><path class="a" d="M184.594,100.656l-1.918,5.979h-1.184c-.113,0-.226-.113-.282-.282l-1.072-3.5c-.056-.113-.056-.226-.113-.338a.716.716,0,0,1-.056-.338c0,.113-.056.226-.056.338-.056.113-.056.226-.113.338l-1.072,3.441c-.056.169-.169.282-.282.282h-1.128L175.4,100.6h1.128a.509.509,0,0,1,.282.056l.169.169.846,3.215c.056.169.056.338.113.508s.056.338.113.508a1.646,1.646,0,0,0,.113-.508l.169-.508,1.015-3.215c0-.056.056-.169.113-.169a.339.339,0,0,1,.226-.056h.62a.509.509,0,0,1,.282.056l.169.169.959,3.215.169.508a1.647,1.647,0,0,1,.113.508,6.567,6.567,0,0,1,.226-1.015l.9-3.215a.18.18,0,0,1,.169-.169.339.339,0,0,1,.226-.056h1.072Z" transform="translate(-145.28 -97.949)"/><path class="a" d="M194.749,96.946a.715.715,0,0,1-.056.338.563.563,0,0,1-.226.282c-.113.056-.169.169-.282.169a1.044,1.044,0,0,1-.677,0,1.233,1.233,0,0,1-.282-.169.48.48,0,0,1-.169-.282,1.044,1.044,0,0,1,0-.677,1.235,1.235,0,0,1,.169-.282.48.48,0,0,1,.282-.169,1.044,1.044,0,0,1,.677,0,.975.975,0,0,1,.508.451C194.749,96.664,194.749,96.777,194.749,96.946Zm-.169,1.749v5.979h-1.466V98.695Z" transform="translate(-152.953 -95.987)"/><path class="a" d="M199.982,105.4a1.616,1.616,0,0,1-1.184-.451,1.646,1.646,0,0,1-.395-1.241v-3.328h-.62a.339.339,0,0,1-.226-.056c-.056-.056-.056-.113-.056-.226v-.564l.959-.169.282-1.636c0-.056.056-.113.113-.169s.113-.056.226-.056h.733v1.918h1.579v1.015h-1.579V103.7a1.062,1.062,0,0,0,.113.451.512.512,0,0,0,.395.169c.113,0,.169,0,.226-.056.056,0,.113-.056.169-.056a.2.2,0,0,0,.113-.056c.056,0,.056-.056.113-.056s.056,0,.113.056l.113.113.451.677a3.038,3.038,0,0,1-.733.395C200.6,105.34,200.32,105.4,199.982,105.4Z" transform="translate(-154.915 -96.598)"/><path class="a" d="M207.566,99.228a2.366,2.366,0,0,1,.79-.508,2.694,2.694,0,0,1,1.015-.226,1.883,1.883,0,0,1,.846.169,2.5,2.5,0,0,1,.62.451,3.039,3.039,0,0,1,.395.733,2.337,2.337,0,0,1,.113.9v3.835h-1.466v-3.835a1.261,1.261,0,0,0-.226-.846.916.916,0,0,0-.79-.282,1.34,1.34,0,0,0-.677.169,2.506,2.506,0,0,0-.62.451v4.343H206.1V95.9h1.467Z" transform="translate(-158.664 -95.9)"/></g><g transform="translate(0 0)"><path class="b" d="M231.155,102.1c.056-.056.113-.113.169-.113a3.35,3.35,0,0,0-4.738-4.738h0a3.35,3.35,0,0,0-4.738,4.738.991.991,0,0,0,.282.226l4.456,4.456Z" transform="translate(-96.292 -41.204)"/><ellipse class="a" cx="3.441" cy="3.441" rx="3.441" ry="3.441" transform="translate(75.582 9.41)"/><path class="a" d="M130.35,20.757h-.959a1.561,1.561,0,0,0-.508.056h-.226c-.169,0-.338.056-.508.056a.207.207,0,0,0-.169.056c-.169.056-.338.056-.508.113a.207.207,0,0,0-.169.056,2,2,0,0,1-.564.113c-.056,0-.056,0-.113.056-.169.056-.395.113-.564.169h-.056c-.226.056-.395.169-.62.226h0a13.908,13.908,0,0,0-5.189,3.61l-.056-.056a13.909,13.909,0,0,0-5.189-3.61h0c-.226-.056-.395-.169-.62-.226h-.056c-.169-.056-.395-.113-.564-.169-.056,0-.056,0-.113-.056a2,2,0,0,0-.564-.113.207.207,0,0,1-.169-.056c-.169-.056-.338-.056-.508-.113a.207.207,0,0,1-.169-.056c-.169,0-.338-.056-.508-.056h-.226c-.169,0-.338-.056-.508-.056h-1.861a1.242,1.242,0,0,0-.451.056h-.226c-.113,0-.282.056-.395.056a.339.339,0,0,0-.226.056c-.113,0-.282.056-.395.056-.056,0-.169.056-.226.056-.169.056-.282.056-.451.113a.207.207,0,0,0-.169.056c-.226.056-.395.113-.62.169-.056,0-.169.056-.226.056-.113.056-.226.056-.282.113-.282.056-.451.113-.508.113a1.577,1.577,0,0,1-1.579-1.579V10.378H96.282V34.407h0v.056h0a6.712,6.712,0,0,1-13.424-.056h0V24.028H75.807V34.35a6.712,6.712,0,1,1-13.424,0V28.484h0a8.029,8.029,0,0,0-8.066-7.9H49.579a7.92,7.92,0,0,0-7.9,7.9v5.979a6.885,6.885,0,0,1-13.763,0h0v-.169h0V0H20.531V19.8a1.577,1.577,0,0,1-1.579,1.579,1.152,1.152,0,0,1-.508-.113c-.113-.056-.169-.056-.282-.113-.056,0-.169-.056-.226-.056-.169-.056-.395-.113-.62-.169a.207.207,0,0,1-.169-.056c-.169-.056-.282-.056-.451-.113-.056,0-.169-.056-.226-.056-.113,0-.282-.056-.395-.056a.339.339,0,0,1-.226-.056c-.113,0-.282-.056-.395-.056h-.226a1.242,1.242,0,0,1-.451-.056H12.917a1.562,1.562,0,0,0-.508.056h-.226c-.169,0-.338.056-.508.056a.207.207,0,0,0-.169.056c-.169.056-.338.056-.508.113a.207.207,0,0,0-.169.056,2,2,0,0,1-.564.113c-.056,0-.056,0-.113.056-.226.056-.395.113-.564.169H9.532c-.226.056-.451.169-.62.226h0a13.473,13.473,0,0,0-5.189,3.61A13.481,13.481,0,0,0,0,34.294H0a13.859,13.859,0,0,0,3.5,9.194,13.648,13.648,0,0,0,5.866,3.835H9.42c.226.056.395.113.62.169.056,0,.056,0,.113.056.169.056.395.113.564.169a.207.207,0,0,1,.169.056c.169.056.338.056.564.113a.207.207,0,0,1,.169.056,1.561,1.561,0,0,0,.508.056H12.3c.169,0,.395.056.564.056h1.8A1.919,1.919,0,0,0,15.229,48H15.4c.169,0,.338-.056.508-.056a.207.207,0,0,0,.169-.056c.169-.056.338-.056.564-.113a.207.207,0,0,0,.169-.056,2,2,0,0,1,.564-.113c.056,0,.056,0,.113-.056.226-.056.395-.113.62-.169h.056c.226-.056.451-.169.62-.226h0a13.473,13.473,0,0,0,5.189-3.61l.056-.056A13.747,13.747,0,0,0,34.35,48.226h0A13.806,13.806,0,0,0,48.113,34.519V28.484a1.011,1.011,0,0,1,1.015-1.015h4.738v.056a1.011,1.011,0,0,1,1.015,1.015v5.866A13.779,13.779,0,0,0,78.91,43.6a13.765,13.765,0,0,0,10.266,4.569h.733a2.115,2.115,0,0,0,.62-.056h0c.226,0,.395-.056.62-.056h.113c.226-.056.395-.056.62-.113H92c.169-.056.338-.056.508-.113.056,0,.113,0,.113-.056.169-.056.338-.113.564-.169.056,0,.113-.056.169-.056a1.046,1.046,0,0,1,.395-.113c.056,0,.113-.056.169-.056l.508-.169c.056-.056.169-.056.226-.113l.338-.169c.113-.056.169-.056.282-.113a2.754,2.754,0,0,1,.395-.169c.056-.056.169-.056.226-.113.056,0,.056-.056.113-.056h0a13.98,13.98,0,0,0,3.5-2.82h0a13.909,13.909,0,0,0,5.189,3.61h0c.226.056.451.169.62.226h.056c.226.056.395.113.62.169.056,0,.056,0,.113.056a2,2,0,0,0,.564.113.207.207,0,0,1,.169.056c.169.056.338.056.564.113a.207.207,0,0,1,.169.056,1.561,1.561,0,0,0,.508.056h.169c.169,0,.395.056.564.056h1.8a1.919,1.919,0,0,0,.564-.056h.169c.169,0,.338-.056.508-.056a.207.207,0,0,0,.169-.056c.169-.056.338-.056.564-.113a.207.207,0,0,0,.169-.056c.169-.056.395-.113.564-.169.056,0,.056,0,.113-.056.226-.056.395-.113.62-.169h.056a13.64,13.64,0,0,0,5.81-3.835l.056.056a13.909,13.909,0,0,0,5.189,3.61h0c.226.056.451.169.62.226h.056c.226.056.395.113.621.169.056,0,.056,0,.113.056a2,2,0,0,0,.564.113.207.207,0,0,1,.169.056c.169.056.338.056.564.113a.207.207,0,0,1,.169.056c.169,0,.338.056.508.056h.226c.169,0,.395.056.564.056h.9A13.745,13.745,0,0,0,144,34.407,13.554,13.554,0,0,0,130.35,20.757ZM20.531,34.294a6.712,6.712,0,1,1-6.712-6.712,6.136,6.136,0,0,1,2.256.395l.113.056a8.512,8.512,0,0,0,2.764.451,7.135,7.135,0,0,0,1.579-.169Zm89.232,6.825a6.728,6.728,0,0,1-6.712-6.712V28.428a7.519,7.519,0,0,0,1.579.169,10.386,10.386,0,0,0,2.764-.451l.113-.056a6.136,6.136,0,0,1,2.256-.395,6.728,6.728,0,0,1,6.712,6.712A6.657,6.657,0,0,1,109.763,41.119Zm13.819-6.6a6.712,6.712,0,1,1,6.712,6.712A6.728,6.728,0,0,1,123.582,34.519Z" transform="translate(0 0)"/></g></svg>