<?xml version="1.0" encoding="UTF-8" standalone="no"?>
<svg
   xmlns:dc="http://purl.org/dc/elements/1.1/"
   xmlns:cc="http://creativecommons.org/ns#"
   xmlns:rdf="http://www.w3.org/1999/02/22-rdf-syntax-ns#"
   xmlns:svg="http://www.w3.org/2000/svg"
   xmlns="http://www.w3.org/2000/svg"
   xmlns:sodipodi="http://sodipodi.sourceforge.net/DTD/sodipodi-0.dtd"
   xmlns:inkscape="http://www.inkscape.org/namespaces/inkscape"
   inkscape:version="1.0 (4035a4fb49, 2020-05-01)"
   sodipodi:docname="iamtech.svg"
   id="svg1790"
   version="1.1"
   viewBox="0 0 224 106">
  <metadata
     id="metadata1796">
    <rdf:RDF>
      <cc:Work
         rdf:about="">
        <dc:format>image/svg+xml</dc:format>
        <dc:type
           rdf:resource="http://purl.org/dc/dcmitype/StillImage" />
        <dc:title></dc:title>
      </cc:Work>
    </rdf:RDF>
  </metadata>
  <defs
     id="defs1794" />
  <sodipodi:namedview
     inkscape:current-layer="svg1790"
     inkscape:window-maximized="1"
     inkscape:window-y="0"
     inkscape:window-x="1680"
     inkscape:cy="53"
     inkscape:cx="112"
     inkscape:zoom="5.8080357"
     showgrid="false"
     id="namedview1792"
     inkscape:window-height="1026"
     inkscape:window-width="1920"
     inkscape:pageshadow="2"
     inkscape:pageopacity="0"
     guidetolerance="10"
     gridtolerance="10"
     objecttolerance="10"
     borderopacity="1"
     bordercolor="#666666"
     pagecolor="#ffffff" />
  <g
     style="fill:currentColor;fill-opacity:1"
     id="g1788"
     transform="">
    <path
       id="path1780"
       d="m11 5v74h-11v-74z" />
    <path
       id="path1782"
       d="m77.1385743 25.2575893-24.2658228 52.7424107h-11.8727515l36.1385743-78 34.8614257 78h-12.0619587z" />
    <path
       id="path1784"
       d="m139 79.5956095 15.713443-79.5956095 25.625 57.5389948 26.543632-57.5389948 14.117925 79.5956095h-11.555425l-7.204009-44.6886193-22.095519 48.0930098-21.466981-48.140959-8.025943 44.7365685z" />
    <path
       id="path1786"
       d="m4.48476791 105v-9.7045898h2.59277344v-1.604004h-6.89941406v1.604004h2.60009766v9.7045898zm20.05644509 0v-1.604004h-4.5336914v-3.7792968h4.4018555v-1.6040039h-4.4018555v-2.7172851h4.5336914v-1.604004h-6.2402343v11.3085938zm17.2219725.205078c1.0742188 0 2.0996094-.275879 3.0761719-.827637v-2.058105c-.2783203.234375-.5432129.43457-.7946778.600586-.2514648.166016-.4943847.297851-.7287597.395508-.4199219.195312-.9301758.292968-1.5307617.292968-1.1621094 0-2.1435547-.407714-2.944336-1.223144-.8007812-.81543-1.2011719-1.816406-1.2011719-3.0029298 0-1.2011719.4003907-2.2167969 1.2011719-3.046875.7958985-.8349609 1.7749024-1.2524414 2.9370117-1.2524414 1.0546875 0 2.0751954.4125977 3.0615235 1.237793v-2.0214844c-.9472656-.5517578-1.928711-.8276367-2.944336-.8276367-1.8603515 0-3.3764648.690918-4.5483398 2.0727539-.9521484 1.1279297-1.4282227 2.4121094-1.4282227 3.8525391 0 1.6064453.5688477 2.9785153 1.706543 4.1162113 1.1425781 1.127929 2.5219727 1.691894 4.1381836 1.691894zm16.9509764-.205078v-5.2807617h4.8779297v5.2807617h1.7065429v-11.3085938h-1.7065429v4.4238282h-4.8779297v-4.4238282h-1.706543v11.3085938zm28.9480467.688477v-11.9970708h-1.706543v7.8588868l-8.2470703-8.6279297v12.0776367h1.7065429v-7.9174805zm17.8005854-.483399c1.650391 0 3.059082-.568848 4.226075-1.706543 1.162109-1.132812 1.743164-2.512207 1.743164-4.1381834 0-1.616211-.578614-3.0004883-1.73584-4.1528321-1.152344-1.1523437-2.53418-1.7285156-4.145508-1.7285156-1.630859 0-3.027344.5712891-4.189453 1.7138672-1.166992 1.1425781-1.7504885 2.5097656-1.7504885 4.1015625 0 1.8115234.6396485 3.2763674 1.9189455 4.3945314 1.162109 1.010742 2.473144 1.516113 3.933105 1.516113zm.021973-1.59668c-1.09375 0-2.058106-.402832-2.893066-1.208496-.839844-.805664-1.259766-1.833496-1.259766-3.0834958 0-1.1914062.405273-2.1923828 1.21582-3.0029296.810547-.8203125 1.804199-1.2304688 2.980957-1.2304688 1.181641 0 2.172852.4101563 2.973633 1.2304688.805664.8154296 1.208496 1.8261718 1.208496 3.0322265 0 1.1914059-.407715 2.2021489-1.223144 3.0322269-.81543.820312-1.816407 1.230468-3.00293 1.230468zm22.825 1.391602v-1.604004h-3.325196v-9.7045898h-1.706543v11.3085938zm16.145312.205078c1.650391 0 3.059082-.568848 4.226074-1.706543 1.16211-1.132812 1.743164-2.512207 1.743164-4.1381834 0-1.616211-.578613-3.0004883-1.735839-4.1528321-1.152344-1.1523437-2.53418-1.7285156-4.145508-1.7285156-1.63086 0-3.027344.5712891-4.189453 1.7138672-1.166993 1.1425781-1.750489 2.5097656-1.750489 4.1015625 0 1.8115234.639649 3.2763674 1.918946 4.3945314 1.162109 1.010742 2.473144 1.516113 3.933105 1.516113zm.021973-1.59668c-1.09375 0-2.058106-.402832-2.893067-1.208496-.839843-.805664-1.259765-1.833496-1.259765-3.0834958 0-1.1914062.405273-2.1923828 1.21582-3.0029296.810547-.8203125 1.804199-1.2304688 2.980957-1.2304688 1.181641 0 2.172852.4101563 2.973633 1.2304688.805664.8154296 1.208496 1.8261718 1.208496 3.0322265 0 1.1914059-.407715 2.2021489-1.223145 3.0322269-.815429.820312-1.816406 1.230468-3.002929 1.230468zm22.986132 1.604004c1.621094 0 2.956543-.59082 4.006348-1.772461.463867-.527343.793457-1.09375.98877-1.699218.200195-.654297.300293-1.40625.300293-2.2558597v-.3735352h-4.672852v1.6040039h2.819824c-.078125.795898-.45166 1.479492-1.120605 2.050781-.668946.566407-1.42334.84961-2.263184.84961-.986328 0-1.901855-.378418-2.746582-1.135254-.90332-.81543-1.35498-1.853028-1.35498-3.1127932 0-1.2207031.405273-2.2363281 1.21582-3.046875.810547-.8251953 1.813965-1.237793 3.010254-1.237793 1.333008 0 2.463379.6176758 3.391113 1.8530274l1.21582-1.1645508c-.708007-.8105469-1.428222-1.3964844-2.160644-1.7578125-.766602-.3613281-1.591797-.5419922-2.475586-.5419922-1.645508 0-3.041992.5737305-4.189453 1.7211914-1.147461 1.1425781-1.721192 2.5341797-1.721192 4.1748047 0 1.6064452.563965 2.9833982 1.691895 4.1308592 1.12793 1.142578 2.48291 1.713867 4.064941 1.713867zm18.847949-.212402v-11.3085938h-1.706543v11.3085938zm18.65752 0v-1.604004h-4.533692v-3.7792968h4.401856v-1.6040039h-4.401856v-2.7172851h4.533692v-1.604004h-6.240235v11.3085938zm14.988085.205078c1.035157 0 1.901856-.341797 2.600098-1.02539.69336-.678711 1.040039-1.538086 1.040039-2.578126 0-.776367-.212402-1.431884-.637207-1.9665522-.424805-.534668-1.096191-.9875489-2.01416-1.3586426l-1.12793-.4614258c-.820312-.3369141-1.230468-.78125-1.230468-1.3330078 0-.4003906.15625-.7324219.46875-.9960938.3125-.2685546.705566-.402832 1.179199-.402832.385742 0 .700683.078125.944824.234375.234375.1367188.480957.4296875.739746.8789063l1.384277-.8203125c-.732421-1.2695313-1.750488-1.9042969-3.054199-1.9042969-.966797 0-1.774902.2880859-2.424316.8642578-.649414.5712891-.974121 1.2817383-.974121 2.1313477 0 1.2597656.773926 2.2167968 2.321777 2.8710937l1.091309.4541016c.283203.1220703.527343.2502445.732422.3845215.205078.134277.372314.27832.501709.432129.129394.153808.224609.322265.285644.505371.061035.183105.091553.384521.091553.604248 0 .546875-.175781.998535-.527344 1.35498-.351562.356446-.793457.534668-1.325684.534668-.673828 0-1.186523-.24414-1.538085-.732421-.195313-.253907-.332032-.712891-.410157-1.376954l-1.728515.38086c.15625 1.054687.549316 1.872558 1.179199 2.453613.639648.581055 1.450195.871582 2.43164.871582z" />
  </g>
</svg>
