<svg class="brand__logo" xmlns="http://www.w3.org/2000/svg" viewBox="0 0 112 100" version="1.1">
    <g fill="currentColor">
        <path d="M107.276 26.726l3.92-6.534a5.638 5.638 0 0 0-.848-6.888L98.694 1.652A5.638 5.638 0 0 0 94.708 0H17.29a5.638 5.638 0 0 0-3.986 1.652L1.65 13.304a5.64 5.64 0 0 0-.85 6.888l7.884 13.14a651.934 651.934 0 0 1 98.592-6.606z"></path>
        <path d="M75.46 43.082a170.81 170.81 0 0 1 10.312 19.476l12.888-21.46c-7.726.68-15.468 1.28-23.2 1.984z"></path>
        <path d="M46.15 97.218a5.627 5.627 0 0 0 4.834 2.762H61.02a5.627 5.627 0 0 0 4.834-2.762l8.626-15.511c-4.6-12.274-11.362-24.108-16.676-36.727a217.498 217.498 0 0 0-37.526 7.735L46.15 97.218z"></path>
    </g>
</svg>