<?xml version="1.0" encoding="UTF-8" standalone="no"?>
<svg
   xmlns:dc="http://purl.org/dc/elements/1.1/"
   xmlns:cc="http://creativecommons.org/ns#"
   xmlns:rdf="http://www.w3.org/1999/02/22-rdf-syntax-ns#"
   xmlns:svg="http://www.w3.org/2000/svg"
   xmlns="http://www.w3.org/2000/svg"
   xmlns:sodipodi="http://sodipodi.sourceforge.net/DTD/sodipodi-0.dtd"
   xmlns:inkscape="http://www.inkscape.org/namespaces/inkscape"
   inkscape:version="1.0 (4035a4fb49, 2020-05-01)"
   sodipodi:docname="weecover.svg"
   viewBox="0 0 816 658.66669"
   id="svg2453"
   version="1.1">
  <metadata
     id="metadata2459">
    <rdf:RDF>
      <cc:Work
         rdf:about="">
        <dc:format>image/svg+xml</dc:format>
        <dc:type
           rdf:resource="http://purl.org/dc/dcmitype/StillImage" />
        <dc:title></dc:title>
      </cc:Work>
    </rdf:RDF>
  </metadata>
  <defs
     id="defs2457" />
  <sodipodi:namedview
     inkscape:current-layer="g2461"
     inkscape:window-maximized="1"
     inkscape:window-y="0"
     inkscape:window-x="1680"
     inkscape:cy="386.85929"
     inkscape:cx="411.41566"
     inkscape:zoom="0.92324668"
     showgrid="false"
     id="namedview2455"
     inkscape:window-height="1026"
     inkscape:window-width="1920"
     inkscape:pageshadow="2"
     inkscape:pageopacity="0"
     guidetolerance="10"
     gridtolerance="10"
     objecttolerance="10"
     borderopacity="1"
     bordercolor="#666666"
     pagecolor="#ffffff" />
  <g
     id="g2461"
     inkscape:label="Image"
     style="fill:currentColor;fill-opacity:1"
     inkscape:groupmode="layer">
    <path
       id="path3035"
       d="M 16.848257,626.33336 C 11.93821,609.28335 7.9386963,594.85341 7.9604492,594.26682 c 0.021753,-0.5866 3.4895508,-0.8866 7.7062178,-0.66667 l 7.666666,0.39987 5.406726,20.45854 5.406725,20.45853 5.977677,-20.45853 5.977676,-20.45854 h 7.200835 7.200835 l 5.414762,18.25587 c 2.97812,10.04073 5.744163,18.57013 6.14676,18.95423 0.402599,0.38408 3.047883,-7.98106 5.87841,-18.58922 l 5.146412,-19.28755 h 7.121592 c 6.00658,0 7.12159,0.3812 7.12159,2.43475 0,1.33911 -3.808856,15.58911 -8.464124,31.66667 l -8.464124,29.23192 -7.231046,0.39077 -7.231047,0.39078 -6.488795,-20.39078 -6.488793,-20.39077 -6.523216,20.33333 -6.523216,20.33334 h -7.071679 -7.071677 z m 27.189634,5 c 4.333834,-14.10647 7.833813,-23.33334 8.850917,-23.33334 1.416771,0 5.700367,12.20982 14.96884,42.66667 0.735609,2.41727 2.085451,3.43767 4.911701,3.71297 l 3.897318,0.37964 5.840149,-20.37964 c 3.212081,-11.2088 6.930249,-24.16643 8.262596,-28.79471 l 2.422448,-8.41508 -3.472569,0.41508 c -3.299823,0.39442 -3.776482,1.52607 -9.58181,22.74841 -3.644786,13.32412 -6.764489,22.33333 -7.733566,22.33333 -1.575114,0 -3.454808,-5.44728 -11.042251,-32 l -3.619503,-12.66667 h -4.369536 -4.369536 l -6.763002,22.38075 c -4.998208,16.54052 -7.26837,22.28139 -8.699651,22 -1.679083,-0.33011 -5.543837,-12.984 -12.820585,-41.97688 -0.545383,-2.17298 -1.737611,-3.07054 -4.078587,-3.07054 -1.819361,0 -3.307931,0.4508 -3.307931,1.00178 0,0.55097 3.6,13.30017 8,28.33156 4.4,15.03139 8,27.48059 8,27.66489 0,0.18431 1.695604,0.33511 3.76801,0.33511 3.718492,0 3.862212,-0.30663 10.936548,-23.33333 z M 145.64253,625.66669 146,594.00002 h 22 22 v 6 6 l -15,0.377 -15,0.377 v 5.91123 5.91123 l 14.33333,0.37844 14.33334,0.37844 v 6 6 L 174.33333,631.7118 160,632.09024 v 6.62156 6.62156 h 16 16 v 6 6 H 168.64253 145.28507 Z M 188,652.00002 c 0,-2.51208 -0.88889,-2.66666 -15.33333,-2.66666 h -15.33334 v -10.66667 -10.66667 h 14 c 13.11111,0 14,-0.1693 14,-2.66666 0,-2.49736 -0.88889,-2.66667 -14,-2.66667 h -14 v -10 -10 H 172 c 13.77777,0 14.66667,-0.16162 14.66667,-2.66667 0,-2.53968 -0.8889,-2.66667 -18.66667,-2.66667 h -18.66667 v 28.66667 28.66667 h 19.33334 c 18.44444,0 19.33333,-0.12253 19.33333,-2.66667 z m 54.97587,-26.33333 0.35746,-31.66667 h 22 22 v 6 6 l -15,0.377 -15,0.377 v 5.91123 5.91123 l 14.33334,0.37844 L 286,619.33336 v 6 6 l -14.33333,0.37844 -14.33334,0.37844 v 6.62156 6.62156 h 16 16 v 6 6 H 265.97587 242.6184 Z m 42.35746,26.33333 c 0,-2.51208 -0.88889,-2.66666 -15.33333,-2.66666 h -15.33333 v -10.66667 -10.66667 h 14 c 13.1111,0 14,-0.1693 14,-2.66666 0,-2.49736 -0.8889,-2.66667 -14,-2.66667 h -14 v -10 -10 h 14.66666 c 13.77778,0 14.66667,-0.16162 14.66667,-2.66667 0,-2.53968 -0.88889,-2.66667 -18.66667,-2.66667 h -18.66666 v 28.66667 28.66667 H 266 c 18.44444,0 19.33333,-0.12253 19.33333,-2.66667 z m 63.12655,1.2885 C 340.14772,647.39821 336,638.10957 336,625.38516 c 0,-11.68956 2.64631,-18.16767 10.20017,-24.96986 11.4001,-10.26568 33.56236,-11.38589 44.4251,-2.24552 2.22277,1.87035 4.0414,3.91675 4.0414,4.54757 0,0.63083 -2.12964,2.77132 -4.73255,4.75664 l -4.73253,3.6097 -5.11567,-2.87518 c -6.74189,-3.78916 -14.43245,-3.72274 -20.22208,0.17462 -5.89063,3.96536 -8.4926,9.36284 -8.4926,17.61689 0,11.54771 5.8802,18.86075 16.28779,20.25671 5.23706,0.70243 8.69149,-0.36459 15.8356,-4.89137 2.47856,-1.57052 3.35257,-1.41836 7.07394,1.23148 5.37138,3.82476 5.01852,7.57789 -1.09908,11.6907 -4.0872,2.74778 -6.04421,3.04 -20,2.98636 -14.9359,-0.0573 -15.66058,-0.19486 -21.00961,-3.98538 z m 33.70896,0.15438 c 6.20904,-2.81953 8.11203,-5.02868 6.08119,-7.05952 -0.95683,-0.95682 -3.30096,-0.45642 -7.59126,1.62047 -11.45857,5.547 -25.71553,1.55828 -30.50485,-8.53445 -5.60099,-11.8032 -3.91949,-23.90219 4.45891,-32.08347 4.74082,-4.6293 6.21518,-5.27564 13.18381,-5.77971 5.62736,-0.40704 9.21867,0.0839 12.70007,1.73585 3.94994,1.87436 5.23153,1.99006 6.88096,0.62115 1.75856,-1.45947 1.46217,-2.02569 -2.2383,-4.27608 -9.52322,-5.79141 -25.91758,-4.27435 -35.03636,3.24212 -12.7058,10.47319 -14.16957,31.45311 -3.03937,43.56236 7.91636,8.61271 24.30163,11.85722 35.1052,6.95128 z m 69.67152,-0.69617 c -8.55115,-6.27563 -12.26872,-14.32556 -12.29143,-26.61551 -0.0272,-14.73256 5.27831,-24.20969 17.11774,-30.57708 4.32613,-2.32664 7.59953,-2.86917 17.33333,-2.87281 12.93847,-0.005 17.72949,1.61084 25.11904,8.4709 14.64131,13.59225 12.12509,41.38849 -4.78693,52.88051 -4.49904,3.05718 -6.01804,3.29818 -20.59471,3.26756 L 458,657.26725 Z m 34.82631,0.47459 c 8.06366,-3.65572 11.75037,-7.27688 15.49677,-15.2213 12.42471,-26.34714 -16.41079,-51.91447 -43.38849,-38.47091 -15.88032,7.91351 -20.65028,27.94413 -10.44182,43.84858 1.90944,2.97484 5.86495,6.11903 10.87983,8.64827 9.58188,4.83258 18.56781,5.22384 27.45371,1.19536 z m -20.90408,-3.40624 c -4.53719,-1.00311 -13.46755,-11.55315 -14.51766,-17.15068 -1.51156,-8.05731 0.27639,-17.78508 4.21888,-22.95397 4.80746,-6.30289 11.21802,-8.79293 20.84455,-8.09661 9.33532,0.67525 13.88161,3.63805 18.02497,11.74678 5.36919,10.50773 3.47212,23.03329 -4.69662,31.00985 -4.46112,4.35617 -6.00834,5.01175 -13.01648,5.51525 -4.37446,0.31428 -9.2604,0.28251 -10.85764,-0.0707 z m 19.38973,-6.76322 c 10.68155,-7.82565 10.81423,-25.23332 0.26001,-34.11409 -6.0608,-5.09983 -16.7013,-5.15247 -22.69125,-0.11227 -5.72727,4.81919 -8.05441,9.8979 -8.05441,17.5778 0,12.14396 9.4608,21.00711 21.15232,19.81607 3.20044,-0.32603 7.40044,-1.75141 9.33333,-3.16751 z m 89.62511,11.2815 c -0.63611,-1.65 -6.02126,-15.15632 -11.967,-30.01404 C 556.86469,609.46159 552,596.41159 552,595.31931 c 0,-1.51514 1.7158,-1.98596 7.23753,-1.98596 h 7.23754 l 2.58752,7 c 1.42314,3.85 4.84804,13.45001 7.61089,21.33334 2.76285,7.88333 5.39159,14.33259 5.84161,14.33167 0.45003,-9.2e-4 3.14059,-6.45092 5.97902,-14.33334 2.83844,-7.88241 6.33154,-17.48167 7.76246,-21.33167 l 2.6017,-7 h 7.23753 c 4.81809,0 7.23753,0.54542 7.23753,1.63156 0,0.89738 -5.53213,15.29738 -12.29362,32.00001 l -12.29363,30.36844 h -6.40604 c -5.41173,0 -6.58556,-0.46564 -7.56261,-3 z m 21.49002,-26.30186 c 13.31444,-33.21029 12.61192,-30.69815 8.58487,-30.69815 -3.66895,0 -3.20457,-0.98016 -14.3658,30.32213 -7.28957,20.444 -8.57885,20.85022 -14.28772,4.50172 -11.86901,-33.98935 -12.24424,-34.82385 -15.65823,-34.82385 -1.76398,0 -3.21776,0.45 -3.23061,1 -0.0133,0.55 4.89491,13.47946 10.90615,28.73213 10.4219,26.44409 11.08537,27.7136 14.28488,27.33333 3.03129,-0.36028 4.3608,-2.90672 13.76646,-26.36731 z M 660,625.33336 v -32.00001 h 22.07305 22.07306 l -0.40639,6.33334 -0.40639,6.33333 L 689,606.37846 674.66667,606.7569 v 5.9549 5.95489 h 14.07305 14.07305 l -0.40638,6.33333 -0.40639,6.33334 -13.66667,0.37997 -13.66666,0.37999 v 6.5777 6.57771 l 15.66666,0.37564 15.66667,0.37565 0.41,5.66667 0.41,5.66667 H 683.41 660 Z m 42.66667,26.66666 c 0,-2.51852 -0.8889,-2.66666 -16,-2.66666 h -16 v -10.66667 -10.66667 h 14.66666 c 13.77778,0 14.66667,-0.16161 14.66667,-2.66666 0,-2.50506 -0.88889,-2.66667 -14.66667,-2.66667 h -14.66666 v -10 -10 H 686 c 14.44444,0 15.33333,-0.15459 15.33333,-2.66667 0,-2.53968 -0.88889,-2.66667 -18.66666,-2.66667 H 664 v 28.66667 28.66667 h 19.33333 c 18.44444,0 19.33334,-0.12253 19.33334,-2.66667 z m 54.66666,-26.66666 v -32.00001 h 15.30635 c 17.36859,0 24.39824,1.96766 28.72173,8.03944 6.21254,8.72468 4.4074,20.53649 -3.98745,26.09195 l -5.18004,3.42799 7.23637,11.93385 c 3.98,6.56363 7.23638,12.5414 7.23638,13.28395 0,0.80943 -3.33344,1.19111 -8.32422,0.95312 l -8.32421,-0.39696 -6.67579,-12.32688 c -4.49128,-8.29316 -7.43932,-12.32899 -9.00912,-12.33333 C 772.2744,632.00114 772,633.48962 772,644.66669 v 12.66667 h -7.33333 -7.33334 z M 768,641.92697 v -12.73972 l 6.20611,0.40639 6.20612,0.40638 6.57816,12.33334 c 6.0503,11.34368 6.89841,12.33333 10.56929,12.33333 h 3.99115 l -2.6454,-4.33333 c -7.83374,-12.83215 -10.90194,-18.68159 -10.87103,-20.72535 0.0201,-1.32925 2.20363,-3.27425 5.2536,-4.67971 8.55041,-3.94009 10.50161,-15.68507 3.64284,-21.92755 -5.30036,-4.82412 -8.60013,-5.6674 -22.17652,-5.6674 h -13.42099 v 28.66667 28.66667 h 3.33334 c 3.32297,0 3.33333,-0.0396 3.33333,-12.73972 z m 0,-28.41827 v -10.84201 h 10.56989 c 9.83074,0 10.76315,0.24568 13.33334,3.51314 3.60184,4.579 3.49748,8.81811 -0.32655,13.26381 -2.73084,3.1748 -4.28051,3.66872 -13.33333,4.24969 L 768,624.3507 Z m 17.73136,5.26012 c 3.65725,-1.39048 5.35844,-4.66849 4.24439,-8.17853 -0.88611,-2.7919 -7.22019,-5.25694 -13.50804,-5.25694 H 772 v 7.33334 7.33333 h 5.24653 c 2.8856,0 6.70376,-0.55404 8.48483,-1.2312 z M 486.66667,511.96828 C 449.12095,506.75146 416.0352,494.33791 384.94931,473.80462 l -14.59015,-9.6373 -6.60052,4.54036 c -11.80185,8.11824 -46.30631,24.71967 -62.27772,29.96422 -20.33159,6.67629 -32.85217,8.9592 -59.61187,10.8692 C 208.47796,511.92442 176.46279,508.22358 148,498.69018 135.78009,494.5972 106.40648,480.05139 95.333333,472.60964 50.095525,442.2074 16.852467,395.37539 4.5941936,344.77852 L 1.3367863,331.33335 1.3350599,166.33334 1.3333333,1.3333334 H 79.978108 158.62288 l 0.35523,153.6666766 0.35522,153.66667 3.72604,7.95748 c 8.3457,17.82339 21.84767,29.99943 39.2145,35.36349 9.51566,2.93908 23.95557,3.4831 33.57709,1.26498 16.37667,-3.77543 33.7324,-17.31006 41.27584,-32.18839 l 4.25763,-8.39756 -0.0361,-153.66667 -0.0361,-153.6666765 h 84.01053 84.01052 V 163.85955 c 0,153.79603 0.0781,158.77907 2.61884,167.00001 8.57399,27.74293 33.80959,46.47379 62.61294,46.47379 29.34338,0 53.30285,-17.59056 63.63272,-46.71783 l 3.5283,-9.94884 0.96519,-88.00001 c 0.78873,-71.91158 1.35439,-90.07198 3.09397,-99.33333 C 597.5722,70.581268 646.36988,22.830773 709.27801,12.490735 727.26573,9.5341433 752.28503,10.64836 770,15.194947 c 14.70267,3.773471 44.22223,17.410294 44.22223,20.42885 0,1.008471 -3.65,4.740686 -8.11112,8.29381 -26.83679,21.374597 -45.29363,51.332512 -53.54415,86.909313 -1.97368,8.5106 -2.40633,21.72678 -3.20303,97.83975 l -0.92109,88.00001 -3.44101,14 c -11.52902,46.90673 -32.68664,83.99845 -66.6626,116.86711 -32.80199,31.73293 -70.62138,51.66407 -116.24656,61.26293 -13.12699,2.76172 -20.7613,3.47688 -41.426,3.88071 -13.93334,0.27228 -29.23334,-0.0468 -34,-0.70915 z m 50.85873,-2.71048 c 98.41568,-10.04177 178.58533,-78.41005 203.13696,-173.23419 5.65184,-21.82875 6.00245,-27.58275 6.78536,-111.35694 0.81745,-87.46971 1.29296,-94.09861 8.1116,-113.08265 9.82424,-27.352105 26.91655,-51.925101 47.00957,-67.584018 5.17544,-4.033334 9.41467,-7.663939 9.42051,-8.068013 0.0217,-1.50937 -25.04725,-13.082339 -35.32273,-16.306519 -16.69776,-5.239328 -29.05076,-6.719418 -49.60448,-5.943422 -50.8591,1.920165 -93.17723,26.995387 -120.00495,71.107828 -8.55176,14.061542 -14.017,27.983274 -17.78375,45.300984 -2.74056,12.59977 -2.90692,17.28692 -3.4276,96.57581 -0.55173,84.01643 -1.15245,103.25262 -3.18522,101.9963 -1.27294,-0.78672 -3.31482,7.12735 -2.1416,8.30055 0.42505,0.42505 -0.26786,1.62664 -1.53979,2.6702 -1.27193,1.04356 -1.56948,1.52172 -0.66121,1.06259 1.09878,-0.55546 1.37829,-0.12307 0.83528,1.29196 -0.44887,1.16972 -1.11778,1.82509 -1.48647,1.45641 -0.36868,-0.36869 -2.88833,2.75543 -5.59923,6.94249 -11.18689,17.27858 -29.4052,27.85623 -52.09002,30.24379 -10.6238,1.11816 -24.5192,-1.55513 -35.53534,-6.83652 -10.41557,-4.99347 -26.57658,-21.15448 -31.57005,-31.57005 -8.07835,-16.85015 -7.88441,-11.97954 -7.18907,-180.55772 L 446.31701,8.0000003 H 365.0942 283.87139 l 0.20114,153.1378197 0.20114,153.13782 -3.7848,7.86218 c -5.2463,10.89817 -17.45846,22.87079 -29.39584,28.81927 -27.48643,13.69666 -58.51534,7.97102 -79.14848,-14.60492 -8.17382,-8.94345 -12.60315,-17.35288 -15.45383,-29.34025 -1.93063,-8.1184 -2.05383,-23.65271 -1.24264,-156.67858 L 156.14855,2.6666668 H 79.407609 2.6666667 V 160.59899 c 0,153.44611 0.077229,158.3325 2.7187654,172.02064 6.2002899,32.12917 21.7914039,65.87013 42.5333549,92.04705 7.852509,9.9101 27.351665,28.87148 37.858292,36.8142 40.348891,30.50268 84.829711,45.24351 136.222921,45.14395 50.83752,-0.0985 87.93369,-9.93059 129.35503,-34.28472 15.79257,-9.28543 15.44453,-7.82391 4.15237,-17.43708 -30.04599,-25.57857 -56.77884,-69.42594 -66.80243,-109.56968 -0.77997,-3.12375 -0.72569,-3.16566 0.86322,-0.66667 0.93253,1.46667 1.74505,2.96667 1.8056,3.33333 0.73797,4.46882 2.36529,9.37203 2.9248,8.81254 0.3913,-0.39132 4.39849,6.64937 8.90484,15.646 4.50634,8.99661 10.96484,20.22388 14.35222,24.94948 7.50364,10.46804 24.17192,26.70561 35.44435,34.52849 8.87857,6.16159 11.2974,8.77955 3.87121,4.18991 -2.45416,-1.51675 -4.95036,-2.31569 -5.54709,-1.77541 -0.59675,0.54028 -0.59036,0.1304 0.0141,-0.91092 0.81347,-1.40116 0.53492,-1.67674 -1.07166,-1.06023 -1.46064,0.56051 -3.08288,-0.44785 -4.95876,-3.08229 -1.53338,-2.15342 -3.47767,-3.77632 -4.32064,-3.60644 -0.84298,0.16988 -1.61238,-0.29112 -1.70976,-1.02446 -0.0973,-0.73333 -4.27167,-5.53333 -9.27615,-10.66667 -10.38811,-10.65556 -8.58381,-6.70765 4.55621,9.96922 13.57386,17.22748 31.86056,33.57067 54.00722,48.26733 10.94394,7.26247 20.7251,12.88712 21.73592,12.49924 1.15097,-0.44166 1.48105,-0.128 0.88318,0.8394 -0.63754,1.03158 -0.21766,1.26184 1.2641,0.69324 1.22033,-0.46826 2.21876,-0.28906 2.21876,0.39824 0,0.68731 0.99842,0.86651 2.21872,0.39824 1.36646,-0.52436 1.88889,-0.31772 1.36006,0.53794 -1.15818,1.87398 22.90226,11.21338 39.86874,15.47561 27.40125,6.88361 52.99232,8.87496 79.41121,6.17933 z m -72.44207,-11.50193 c 0.9625,-0.38516 2.11251,-0.3378 2.55556,0.1052 0.44306,0.44305 -0.34445,0.75819 -1.75,0.70029 -1.55326,-0.064 -1.8692,-0.37992 -0.80556,-0.80554 z m -12,-1.33333 c 0.9625,-0.38516 2.11251,-0.3378 2.55556,0.1052 0.44306,0.44305 -0.34445,0.75818 -1.75,0.70029 -1.55326,-0.064 -1.8692,-0.37992 -0.80556,-0.80555 z m -9.67314,-1.63151 c -0.41096,-0.66495 0.45362,-0.89496 1.9213,-0.51116 3.11332,0.81415 3.50687,1.72015 0.7472,1.72015 -1.05672,0 -2.25754,-0.54404 -2.6685,-1.20899 z m -6.73408,-1.44241 c -0.46712,-0.75582 0.0681,-0.97934 1.25464,-0.52402 2.30989,0.88639 2.73252,1.84208 0.81461,1.84208 -0.69005,0 -1.62123,-0.59313 -2.06925,-1.31806 z m -5.33334,-1.33334 c -0.46712,-0.75581 0.0681,-0.97933 1.25464,-0.52401 2.3099,0.88639 2.73252,1.84208 0.81462,1.84208 -0.69006,0 -1.62123,-0.59313 -2.06926,-1.31807 z M 426,490.66668 c -0.45323,-0.73333 -0.22404,-1.33333 0.50929,-1.33333 0.73334,0 1.70415,0.6 2.15738,1.33333 0.45322,0.73334 0.22404,1.33334 -0.5093,1.33334 -0.73333,0 -1.70414,-0.6 -2.15737,-1.33334 z m 181.94428,-41.66666 c 5.52528,-5.88692 6.72239,-6.94546 6.72239,-5.94428 0,0.21398 -2.85,3.06398 -6.33334,6.33333 L 602,455.33335 Z m -60.61095,-43.66667 c 1.32732,-1.46667 2.71331,-2.66667 3.07998,-2.66667 0.36666,0 -0.41932,1.2 -1.74664,2.66667 -1.32732,1.46666 -2.71331,2.66666 -3.07998,2.66666 -0.36666,0 0.41932,-1.2 1.74664,-2.66666 z m 3.33334,-4.50342 c 0,-0.27686 1.05,-1.32686 2.33333,-2.33333 2.11475,-1.65849 2.16191,-1.61133 0.50341,0.50341 -1.74182,2.221 -2.83674,2.92731 -2.83674,1.82992 z m 13.88128,-20.63781 c 0.38792,-0.62768 1.34012,-2.81089 2.11598,-4.85159 0.77587,-2.04069 1.73814,-3.3829 2.13835,-2.98268 0.79021,0.79022 -3.08429,8.9755 -4.24855,8.9755 -0.3911,0 -0.39372,-0.51356 -0.005,-1.14123 z m 6.78538,-16.19211 c 0.45323,-0.73333 1.08864,-1.33333 1.41203,-1.33333 0.32339,0 0.58797,0.6 0.58797,1.33333 0,0.73334 -0.63541,1.33334 -1.41202,1.33334 -0.77662,0 -1.0412,-0.6 -0.58798,-1.33334 z m 2.25134,-7 c 0.79526,-2.38333 2.05237,-4.93333 2.79354,-5.66666 0.90508,-0.89551 1.06238,-0.52647 0.479,1.12386 -0.47772,1.35147 -1.23106,3.90147 -1.6741,5.66667 -0.44304,1.76521 -1.30927,3.20947 -1.92496,3.20947 -0.61568,0 -0.46875,-1.95 0.32652,-4.33334 z M 576,348.15739 c 0,-0.73334 0.6,-1.70415 1.33333,-2.15738 0.73334,-0.45322 1.33334,-0.22404 1.33334,0.5093 0,0.73333 -0.6,1.70414 -1.33334,2.15737 C 576.6,349.11991 576,348.89072 576,348.15739 Z"
       />
    <path
       id="path3037"
       d="m 489.38872,508.23691 c -22.08222,-3.21364 -50.39516,-10.61258 -49.03457,-12.81405 0.45836,-0.74163 0.0558,-1.82901 -0.89465,-2.41641 -0.95041,-0.58738 -2.3297,-0.1181 -3.0651,1.04299 -1.03922,1.64074 -1.3423,1.47405 -1.36053,-0.74829 -0.0173,-2.10099 -0.83592,-2.64681 -3.08701,-2.05813 -1.68497,0.44063 -3.06357,0.10263 -3.06357,-0.75113 0,-0.85374 -1.13364,-1.11723 -2.5192,-0.58555 -1.38556,0.5317 -3.62579,0.0348 -4.9783,-1.10417 -1.3525,-1.13899 -6.2094,-3.5846 -10.79312,-5.43471 -17.10982,-6.90593 -57.16469,-37.13777 -67.96426,-51.29674 -4.48441,-5.87936 -3.53648,-7.82182 1.24092,-2.54286 1.52488,1.68497 3.69961,3.06357 4.83276,3.06357 1.13314,0 2.06027,0.53818 2.06027,1.19595 0,1.28964 9.39511,5.23735 10.30318,4.32928 0.30173,-0.30173 -3.78862,-3.96493 -9.08969,-8.14041 -9.54474,-7.51812 -29.82553,-27.47466 -33.92409,-33.38172 -4.50402,-6.49141 -25.49716,-45.38975 -25.49716,-47.24385 0,-1.07445 -1.01203,-3.29159 -2.24896,-4.92695 -2.14231,-2.83239 -2.25126,-2.83882 -2.29767,-0.13571 -0.0865,5.04318 8.84102,29.55768 15.83745,43.4884 11.32268,22.54482 24.80193,41.25179 42.64159,59.1796 19.0529,19.14701 19.32557,16.19079 -2.61768,28.37929 -38.96984,21.64601 -71.50021,29.7209 -120.24496,29.84791 -23.47456,0.0611 -31.29886,-0.51817 -45.59023,-3.37565 C 136.25319,493.45367 100.40737,474.92743 69.220043,445.569 39.198561,417.30803 18.643136,381.74281 7.2725628,338.38678 4.1271803,326.39342 4.0456227,322.69991 3.4420141,164.91235 L 2.8252742,3.6921922 H 78.73089 154.63651 l 0.41176,152.7953578 0.41176,152.79535 3.59498,8.91043 c 7.1895,17.8197 28.15958,35.14619 47.41219,39.17423 29.31249,6.13275 59.95661,-7.72958 73.57675,-33.28358 l 4.85174,-9.10277 V 161.63437 8.2875412 h 80.61699 80.61697 L 445.0871,148.06274 c -1.16437,156.10888 -0.4977,178.07795 5.82285,191.88387 5.45798,11.9218 21.89893,28.67211 33.8028,34.43881 28.03658,13.58205 60.33012,7.08519 82.20798,-16.5387 5.23062,-5.64809 8.96523,-8.89064 8.2991,-7.20568 -0.66611,1.68496 -1.55963,4.78682 -1.98558,6.89302 -0.42596,2.1062 -1.40474,4.62973 -2.17508,5.60781 -0.86519,1.09854 -0.78551,2.15852 0.20842,2.77281 0.88497,0.54694 2.2474,-0.68459 3.02763,-2.73673 2.5056,-6.59025 4.9264,-16.65336 4.1846,-17.39516 -0.39575,-0.39575 0.21296,-2.51698 1.35272,-4.71385 1.13974,-2.19685 1.73471,-4.54045 1.32216,-5.20797 -0.41254,-0.66752 0.38135,-3.40166 1.76424,-6.07586 2.20779,-4.2694 2.66595,-16.27345 3.75797,-98.46205 1.24245,-93.50905 1.24739,-93.61333 5.10268,-107.48884 5.08431,-18.29895 10.0036,-29.133108 20.15593,-44.391122 16.24116,-24.408965 40.89682,-44.881234 65.46129,-54.35429 21.59276,-8.327052 30.26061,-9.793222 57.84308,-9.784168 23.40993,0.0077 26.19585,0.31566 37.76496,4.174826 13.87333,4.627786 35.00069,13.911332 36.24644,15.926993 0.44223,0.715538 -3.63368,4.952632 -9.05757,9.415765 -18.72428,15.407573 -35.85582,40.425809 -45.01481,65.737876 -6.32539,17.48109 -7.41879,32.73958 -9.13611,127.49489 -1.5368,84.79595 -1.67791,86.17845 -11.77408,115.35103 -11.53412,33.32747 -29.69585,62.23167 -55.00666,87.54247 -31.99621,31.99622 -69.65313,52.64081 -114.81598,62.94537 -15.45968,3.52736 -22.52048,4.25899 -44.4217,4.6029 -14.32217,0.2249 -28.10822,0.10799 -30.63566,-0.25985 z m -21.44496,-9.77881 c 0.52068,-0.84248 -0.16862,-1.53178 -1.53179,-1.53178 -1.36316,0 -2.05246,0.6893 -1.53178,1.53178 0.52068,0.84248 1.20999,1.53178 1.53178,1.53178 0.3218,0 1.0111,-0.6893 1.53179,-1.53178 z m -11.48838,-1.53178 c 0,-0.84248 -1.03395,-1.53179 -2.29767,-1.53179 -1.26372,0 -2.29768,0.68931 -2.29768,1.53179 0,0.84248 1.03396,1.53178 2.29768,1.53178 1.26372,0 2.29767,-0.6893 2.29767,-1.53178 z m -7.65891,-1.53179 c 0,-0.84248 -1.41929,-1.53178 -3.15397,-1.53178 -1.73469,0 -2.72796,0.6893 -2.20727,1.53178 0.52068,0.84248 1.93997,1.53179 3.15397,1.53179 1.214,0 2.20727,-0.68931 2.20727,-1.53179 z m 166.96434,-52.26514 c 0,-2.5253 -2.16301,-1.35262 -7.97728,4.32485 -8.00667,7.8183 -7.30547,9.54548 1.08426,2.67073 3.79116,-3.10658 6.89302,-6.25459 6.89302,-6.99558 z m -64.27208,-39.73004 c 1.83424,-2.57594 2.88463,-5.13389 2.33419,-5.68432 -0.99527,-0.99526 -8.36387,7.02587 -8.46904,9.21903 -0.12683,2.64546 3.02889,0.82723 6.13485,-3.53471 z m 16.54093,-25.25829 c 2.10214,-4.6137 2.26128,-6.82095 0.49176,-6.82095 -1.33563,0 -4.84123,6.7073 -4.84123,9.26277 0,2.8572 2.60019,1.39744 4.34947,-2.44182 z"
       />
    <path
       id="path3039"
       d="m 29.391185,653.06568 c -1.517435,-3.99116 -15.664693,-54.17181 -15.438588,-54.76103 0.407205,-1.06116 4.307709,-0.85946 5.335186,0.27589 0.47985,0.53023 2.328785,6.56193 4.108745,13.40378 3.675049,14.12625 6.667758,24.22911 8.303813,28.03222 2.557911,5.94603 4.156382,2.58052 13.57906,-28.59009 l 3.929095,-12.99761 4.140291,-0.15739 c 3.591065,-0.13651 4.178474,-0.0287 4.42814,0.81235 0.158318,0.53336 2.025155,7.06237 4.148528,14.50892 6.235893,21.86893 8.897262,29.5154 10.272886,29.5154 1.365274,0 3.691733,-6.65556 9.468249,-27.08686 1.975155,-6.98605 4.051426,-13.74233 4.61393,-15.01396 1.056029,-2.38733 2.605772,-3.39081 5.23665,-3.39081 1.088815,0 1.300427,0.19813 1.012227,0.94774 -0.200402,0.52126 -3.874701,13.22719 -8.165109,28.23541 -4.290408,15.00822 -7.907611,27.39454 -8.038226,27.52516 -0.590124,0.59012 -5.44061,-0.63875 -6.602937,-1.67285 -0.977778,-0.86992 -2.342332,-4.50877 -5.609741,-14.9595 -7.183513,-22.97627 -9.75429,-29.78619 -11.244435,-29.78619 -1.336262,0 -3.512149,5.79201 -11.512833,30.64612 -4.864095,15.11029 -5.334016,15.92865 -9.146655,15.92865 -1.960249,0 -2.355659,-0.19858 -2.818276,-1.41535 z"
       />
    <path
       id="path3041"
       d="m 149.64243,626.08765 v -28.47116 l 16.38241,0.0641 c 9.01032,0.0352 17.08745,0.21802 17.94919,0.40618 2.20737,0.48197 3.02766,1.93674 1.79035,3.17516 -0.85526,0.85603 -2.42382,0.97667 -14.74853,1.13435 l -13.79148,0.17644 v 10.24873 10.24872 h 12.76243 c 7.7618,0 13.17288,0.21966 13.80996,0.56062 1.30784,0.69993 1.37238,2.97582 0.0998,3.51898 -0.52126,0.22248 -6.73574,0.52257 -13.80996,0.66686 l -12.86222,0.26236 v 10.76398 10.76399 l 13.67457,0.054 c 7.52101,0.0297 14.28383,0.22211 15.02849,0.42759 1.70604,0.47078 2.18608,2.93622 0.70625,3.62732 -0.53737,0.25095 -9.08024,0.54329 -18.98414,0.64963 l -18.00711,0.19335 z"
       />
    <path
       id="path3043"
       d="m 247.1245,626.09309 v -28.4766 l 15.84084,0.006 c 8.71246,0.003 16.76403,0.15852 17.89238,0.34499 2.43866,0.40302 3.39264,1.74024 2.30416,3.22981 -0.69313,0.94854 -1.76958,1.03577 -14.87211,1.20509 l -14.12489,0.18253 v 10.24263 10.24264 h 13.03321 c 13.36797,0 15.12827,0.24656 15.12827,2.11901 0,2.22474 -1.14437,2.42863 -14.94885,2.66345 l -13.21263,0.22475 v 10.76479 10.76479 l 13.67457,0.0641 c 15.34321,0.0719 16.84982,0.23788 17.08549,1.88229 0.36155,2.5227 -0.49036,2.64511 -19.74044,2.83668 l -18.06,0.17972 z"
       />
    <path
       id="path3045"
       d="m 358.00861,656.67407 c -3.32667,-0.34722 -4.8286,-0.81738 -7.23028,-2.26339 -6.59559,-3.97107 -11.84479,-11.47149 -13.50227,-19.29299 -0.89853,-4.24004 -1.0359,-14.38066 -0.25208,-18.60783 0.87761,-4.73294 3.96339,-10.33989 7.80451,-14.181 12.27458,-12.27459 35.63178,-13.50314 47.07233,-2.47592 l 2.73447,2.63568 -1.59158,1.68223 c -0.87537,0.92522 -2.99795,2.7716 -4.71685,4.10305 l -3.12527,2.42083 -3.37353,-1.8837 c -9.91636,-5.53705 -19.16307,-4.59648 -25.75867,2.62015 -3.14914,3.44566 -4.33526,6.4856 -4.79142,12.2801 -0.97464,12.3803 4.9356,20.91007 15.67753,22.6261 5.41516,0.86507 10.85638,-0.62199 16.28101,-4.44954 0.84293,-0.59476 2.09512,-1.08138 2.78265,-1.08138 1.44845,0 5.81024,2.85131 7.03357,4.59787 2.15249,3.07311 -0.15342,6.81333 -5.96414,9.67394 l -3.45852,1.70263 -10.71128,0.16571 c -5.89121,0.0911 -12.60079,-0.0315 -14.91018,-0.27254 z m 22.23277,-2.2388 c 1.87636,-0.63519 4.55711,-1.92049 5.95724,-2.85622 2.22423,-1.48652 2.54567,-1.94068 2.54567,-3.59683 0,-1.71361 -0.15736,-1.9109 -1.64007,-2.05623 -0.9438,-0.0925 -3.81775,0.68702 -6.76959,1.8362 -15.41682,6.00186 -28.31771,0.0688 -32.16918,-14.79454 -2.3678,-9.13766 -0.12006,-17.93466 6.35562,-24.874 4.50751,-4.83025 6.76263,-5.77319 14.44889,-6.04156 5.3944,-0.18835 6.67331,-0.0588 9.48456,0.96073 6.5643,2.38062 7.07234,2.46666 8.61129,1.4583 2.0687,-1.35547 1.78306,-2.81312 -0.88078,-4.49473 -3.91828,-2.4735 -7.83816,-3.57296 -13.68775,-3.83916 -13.65226,-0.6213 -24.70324,5.22665 -29.76534,15.7512 -6.8333,14.20701 -2.9179,31.20847 8.93956,38.81738 7.93423,5.09139 19.92353,6.65645 28.56988,3.72946 z"
       />
    <path
       id="path3047"
       d="m 365.05798,655.00483 c -13.25305,-2.2316 -21.92239,-10.26773 -24.57386,-22.77899 -2.06023,-9.72146 1.42788,-21.06621 8.52582,-27.72937 8.76072,-8.22408 24.96353,-10.46608 35.23522,-4.87552 3.70325,2.01556 4.13429,2.66283 2.71703,4.08009 -1.26534,1.26534 -1.12778,1.28635 -7.9661,-1.21676 -2.86266,-1.04785 -4.05512,-1.16312 -10.01899,-0.96852 -8.1495,0.26593 -9.69591,0.8641 -14.35647,5.55325 -5.43904,5.47242 -7.82947,11.18242 -7.84136,18.73057 -0.0108,6.85534 2.44524,14.14038 6.14947,18.24053 2.31136,2.5584 7.05978,5.17108 11.1127,6.11443 4.89054,1.13833 10.94975,0.45809 16.71645,-1.87667 5.21489,-2.11135 7.31103,-2.29328 7.62217,-0.66153 0.26957,1.41378 -1.32926,2.9533 -4.98537,4.80043 -5.42526,2.74094 -11.95528,3.66259 -18.33671,2.58806 z"
       />
    <path
       id="path3049"
       d="m 467.00074,654.69466 c -5.09965,-1.36661 -11.61374,-4.86646 -15.14812,-8.13867 -7.71812,-7.14562 -10.66609,-20.26623 -6.89052,-30.66782 3.28643,-9.05402 9.28414,-14.75704 18.89879,-17.97022 11.44551,-3.82506 23.02437,-1.23409 31.89923,7.138 7.22714,6.81772 10.346,16.11134 8.46849,25.23444 -1.23274,5.99 -4.59026,12.65059 -8.19322,16.25355 -3.2189,3.2189 -9.90226,6.93986 -14.71787,8.19417 -3.94673,1.02799 -10.39161,1.00843 -14.31678,-0.0435 z m 17.33014,-5.99591 c 2.6855,-1.22842 7.58135,-5.92747 9.57133,-9.1866 2.15091,-3.52269 3.48376,-8.68605 3.5028,-13.5696 0.0403,-10.34425 -5.44462,-20.06743 -12.94488,-22.9474 -3.81712,-1.46571 -12.97403,-2.0335 -17.5326,-1.08714 -10.01974,2.08009 -16.21077,11.271 -16.2639,24.1446 -0.0123,2.981 0.24985,6.43095 0.58256,7.66654 1.14116,4.23791 7.79999,12.67251 12.1932,15.44485 1.50468,0.94953 2.47804,1.03181 10.06015,0.85038 7.04115,-0.16848 8.78714,-0.38056 10.83134,-1.31563 z"
       />
    <path
       id="path3053"
       d="m 579.46527,652.17937 c -0.72582,-0.96805 -2.05811,-3.46603 -2.96065,-5.55106 -2.88057,-6.65469 -13.48943,-33.52876 -17.47486,-44.2668 l -1.55542,-4.19083 1.33796,-0.3358 c 0.73589,-0.1847 1.9676,-0.17779 2.73714,0.0154 1.93518,0.4857 3.89757,4.91794 10.89504,24.60746 6.01658,16.92949 7.6845,20.84554 9.1118,21.39325 2.56778,0.98535 4.13268,-1.99058 10.78524,-20.51003 8.85875,-24.66108 9.37526,-25.72443 12.49538,-25.72443 1.00332,0 1.96666,0.23048 2.14076,0.51218 0.44297,0.71674 -3.38032,11.03745 -11.24798,30.36315 -9.3021,22.8492 -10.66878,25.44764 -13.38447,25.44764 -1.12855,0 -1.92541,-0.487 -2.87994,-1.76009 z"
       />
    <path
       id="path3055"
       d="m 664.46876,626.09309 v -28.4766 l 15.84083,0.006 c 8.71246,0.003 16.76403,0.15852 17.89238,0.34499 2.43865,0.40301 3.39264,1.74023 2.30418,3.22981 -0.69462,0.95061 -1.77914,1.03531 -15.41367,1.2038 l -14.66649,0.18124 v 10.24393 10.24392 h 13.23314 c 7.28753,0 13.85729,0.2373 14.62231,0.52816 0.81926,0.31148 1.38918,0.95082 1.38918,1.55839 0,2.25366 -1.07366,2.44019 -15.47841,2.68904 l -13.76622,0.23782 v 10.76169 10.76169 l 14.21614,0.0641 c 15.89716,0.0716 17.39042,0.23111 17.62706,1.88229 0.36155,2.5227 -0.49036,2.64511 -19.74044,2.83668 l -18.05999,0.17972 z"
       />
    <path
       id="path3057"
       d="m 761.40926,626.04876 v -28.43227 l 10.69595,0.004 c 15.44937,0.006 19.09255,0.80385 24.02797,5.2627 4.09512,3.69969 5.49286,8.35571 4.02461,13.40633 -1.03487,3.55983 -3.87288,6.66833 -8.56823,9.38485 -3.66172,2.11851 -4.2305,3.48266 -2.92299,7.01048 0.74177,2.00139 8.81867,16.31411 11.65535,20.65394 l 0.8464,1.2949 -3.19469,-0.26493 c -4.14265,-0.34353 -4.57381,-0.86555 -11.69936,-14.1648 -3.05419,-5.70038 -5.57248,-10.39647 -5.59622,-10.43577 -0.0237,-0.0393 -2.8825,-0.2446 -6.35281,-0.45624 l -6.30964,-0.38479 -0.18916,11.88187 c -0.21517,13.51613 -0.26128,13.67191 -4.04644,13.67191 h -2.37074 z m 17.60093,-2.17721 c 7.4457,-0.53208 9.65883,-1.1641 11.90087,-3.39866 1.10704,-1.10334 2.39787,-2.73719 2.86852,-3.63077 2.40233,-4.5611 -0.50669,-11.89614 -5.46261,-13.77389 -0.8677,-0.32876 -5.59278,-0.57764 -10.96674,-0.57764 h -9.44216 v 11.14523 11.14523 l 3.38479,-0.29994 c 1.86164,-0.16497 5.33444,-0.43927 7.71733,-0.60956 z"
      />
  </g>
</svg>
